<svg width="189" height="743" viewBox="0 0 189 743" fill="none" xmlns="http://www.w3.org/2000/svg">
<g filter="url(#filter0_d_1_608)">
<rect x="47" y="41" width="95" height="648" rx="22.1433" fill="white"/>
</g>
<rect x="69.3163" y="617.316" width="49.9807" height="49.9807" rx="18.6637" stroke="#C5E0F5" stroke-width="0.632667"/>
<path opacity="0.4" d="M98.0344 636.768V635.716C98.0344 633.422 96.1741 631.562 93.8799 631.562H88.3837C86.0905 631.562 84.2303 633.422 84.2303 635.716V648.265C84.2303 650.559 86.0905 652.419 88.3837 652.419H93.8911C96.1787 652.419 98.0344 650.565 98.0344 648.277V647.214" stroke="black" stroke-width="0.949" stroke-linecap="round" stroke-linejoin="round"/>
<path d="M105.694 641.99H92.1188" stroke="black" stroke-width="0.949" stroke-linecap="round" stroke-linejoin="round"/>
<path d="M102.392 638.704L105.693 641.99L102.392 645.278" stroke="black" stroke-width="0.949" stroke-linecap="round" stroke-linejoin="round"/>
<rect x="69.4609" y="379.16" width="49.9807" height="49.9807" rx="18.6637" stroke="#C5E0F5" stroke-width="0.632667"/>
<path fill-rule="evenodd" clip-rule="evenodd" d="M97.6157 392.143H89.9901C87.6302 392.143 85.5957 394.056 85.5957 396.417V408.696C85.5957 411.19 87.4972 413.179 89.9901 413.179H99.147C101.508 413.179 103.421 411.059 103.421 408.696V398.19L97.6157 392.143Z" stroke="#141414" stroke-width="1.26533" stroke-linecap="round" stroke-linejoin="round"/>
<path d="M97.3145 392.13V395.464C97.3145 397.092 98.6314 398.412 100.258 398.416C101.767 398.419 103.311 398.42 103.416 398.413" stroke="#141414" stroke-width="1.26533" stroke-linecap="round" stroke-linejoin="round"/>
<path opacity="0.4" d="M97.0963 406.81H90.9103" stroke="#141414" stroke-width="1.26533" stroke-linecap="round" stroke-linejoin="round"/>
<path opacity="0.4" d="M94.7569 401.134H90.9103" stroke="#141414" stroke-width="1.26533" stroke-linecap="round" stroke-linejoin="round"/>
<rect x="69.4609" y="315.893" width="49.9807" height="49.9807" rx="18.6637" stroke="#C5E0F5" stroke-width="0.632667"/>
<path fill-rule="evenodd" clip-rule="evenodd" d="M101.609 347.408C98.5153 350.502 93.9343 351.17 90.1855 349.436C89.6321 349.214 89.1784 349.034 88.747 349.034C87.5456 349.041 86.0502 350.206 85.2729 349.429C84.4957 348.652 85.6615 347.155 85.6615 345.947C85.6615 345.515 85.4886 345.07 85.2658 344.515C83.5313 340.767 84.2007 336.184 87.2943 333.092C91.2435 329.141 97.6597 329.141 101.609 333.091C105.565 337.047 105.558 343.458 101.609 347.408Z" stroke="#141414" stroke-width="1.26533" stroke-linecap="round" stroke-linejoin="round"/>
<path opacity="0.4" d="M98.4375 340.669H98.4466" stroke="#141414" stroke-width="1.26533" stroke-linecap="round" stroke-linejoin="round"/>
<path opacity="0.4" d="M94.3809 340.669H94.39" stroke="#141414" stroke-width="1.26533" stroke-linecap="round" stroke-linejoin="round"/>
<path opacity="0.4" d="M90.3224 340.669H90.3315" stroke="#141414" stroke-width="1.26533" stroke-linecap="round" stroke-linejoin="round"/>
<rect x="69.4609" y="252.627" width="49.9807" height="49.9807" rx="18.6637" stroke="#C5E0F5" stroke-width="0.632667"/>
<path opacity="0.4" d="M90.0586 275.911V282.421" stroke="#141414" stroke-width="1.26533" stroke-linecap="round" stroke-linejoin="round"/>
<path opacity="0.4" d="M94.4863 272.796V282.421" stroke="#141414" stroke-width="1.26533" stroke-linecap="round" stroke-linejoin="round"/>
<path opacity="0.4" d="M98.8438 279.351V282.421" stroke="#141414" stroke-width="1.26533" stroke-linecap="round" stroke-linejoin="round"/>
<path fill-rule="evenodd" clip-rule="evenodd" d="M98.8977 268.127H90.0042C86.9041 268.127 84.9609 270.322 84.9609 273.428V281.807C84.9609 284.913 86.8951 287.107 90.0042 287.107H98.8977C102.007 287.107 103.941 284.913 103.941 281.807V273.428C103.941 270.322 102.007 268.127 98.8977 268.127Z" stroke="#141414" stroke-width="1.26533" stroke-linecap="round" stroke-linejoin="round"/>
<rect x="69.4609" y="189.361" width="49.9807" height="49.9807" rx="18.6637" stroke="#C5E0F5" stroke-width="0.632667"/>
<path opacity="0.4" d="M99.2598 222.061V208.774" stroke="#141414" stroke-width="1.26533" stroke-linecap="round" stroke-linejoin="round"/>
<path d="M103.236 218.064L99.2578 222.061L95.2793 218.064" stroke="#141414" stroke-width="1.26533" stroke-linecap="round" stroke-linejoin="round"/>
<path opacity="0.4" d="M89.5723 206.127V219.413" stroke="#141414" stroke-width="1.26533" stroke-linecap="round" stroke-linejoin="round"/>
<path d="M85.5938 210.123L89.5722 206.126L93.5507 210.123" stroke="#141414" stroke-width="1.26533" stroke-linecap="round" stroke-linejoin="round"/>
<rect x="69.4609" y="126.094" width="49.9807" height="49.9807" rx="18.6637" stroke="#C5E0F5" stroke-width="0.632667"/>
<path d="M103.941 152.759H99.9635C98.503 152.758 97.3193 151.575 97.3184 150.115C97.3184 148.654 98.503 147.472 99.9635 147.471H103.941" stroke="#141414" stroke-width="1.26533" stroke-linecap="round" stroke-linejoin="round"/>
<path d="M100.414 150.054H100.107" stroke="#141414" stroke-width="1.26533" stroke-linecap="round" stroke-linejoin="round"/>
<path fill-rule="evenodd" clip-rule="evenodd" d="M90.2926 141.562H98.7849C101.632 141.562 103.941 143.871 103.941 146.718V153.77C103.941 156.617 101.632 158.926 98.7849 158.926H90.2926C87.4451 158.926 85.1367 156.617 85.1367 153.77V146.718C85.1367 143.871 87.4451 141.562 90.2926 141.562Z" stroke="#141414" stroke-width="1.26533" stroke-linecap="round" stroke-linejoin="round"/>
<path opacity="0.4" d="M89.5918 146.021H94.8963" stroke="#141414" stroke-width="1.26533" stroke-linecap="round" stroke-linejoin="round"/>
<rect x="69.1445" y="62.5107" width="50.6133" height="50.6133" rx="18.98" fill="#FFD546"/>
<path fill-rule="evenodd" clip-rule="evenodd" d="M85.5938 82.0881C85.5938 79.5045 85.6214 78.6436 89.0383 78.6436C92.4551 78.6436 92.4828 79.5045 92.4828 82.0881C92.4828 84.6717 92.4937 85.5326 89.0383 85.5326C85.5829 85.5326 85.5938 84.6717 85.5938 82.0881Z" stroke="#141414" stroke-width="1.26533" stroke-linecap="round" stroke-linejoin="round"/>
<path opacity="0.4" fill-rule="evenodd" clip-rule="evenodd" d="M96.4199 82.0881C96.4199 79.5045 96.4476 78.6436 99.8644 78.6436C103.281 78.6436 103.309 79.5045 103.309 82.0881C103.309 84.6717 103.32 85.5326 99.8644 85.5326C96.409 85.5326 96.4199 84.6717 96.4199 82.0881Z" stroke="#141414" stroke-width="1.26533" stroke-linecap="round" stroke-linejoin="round"/>
<path fill-rule="evenodd" clip-rule="evenodd" d="M85.5938 92.9138C85.5938 90.3302 85.6214 89.4693 89.0383 89.4693C92.4551 89.4693 92.4828 90.3302 92.4828 92.9138C92.4828 95.4974 92.4937 96.3583 89.0383 96.3583C85.5829 96.3583 85.5938 95.4974 85.5938 92.9138Z" stroke="#141414" stroke-width="1.26533" stroke-linecap="round" stroke-linejoin="round"/>
<path fill-rule="evenodd" clip-rule="evenodd" d="M96.4199 92.9138C96.4199 90.3302 96.4476 89.4692 99.8644 89.4692C103.281 89.4692 103.309 90.3302 103.309 92.9138C103.309 95.4974 103.32 96.3583 99.8644 96.3583C96.409 96.3583 96.4199 95.4974 96.4199 92.9138Z" stroke="#141414" stroke-width="1.26533" stroke-linecap="round" stroke-linejoin="round"/>
<defs>
<filter id="filter0_d_1_608" x="0.182667" y="0.509333" width="188.635" height="741.635" filterUnits="userSpaceOnUse" color-interpolation-filters="sRGB">
<feFlood flood-opacity="0" result="BackgroundImageFix"/>
<feColorMatrix in="SourceAlpha" type="matrix" values="0 0 0 0 0 0 0 0 0 0 0 0 0 0 0 0 0 0 127 0" result="hardAlpha"/>
<feMorphology radius="2.53067" operator="dilate" in="SourceAlpha" result="effect1_dropShadow_1_608"/>
<feOffset dy="6.32667"/>
<feGaussianBlur stdDeviation="22.1433"/>
<feColorMatrix type="matrix" values="0 0 0 0 0.501302 0 0 0 0 0.624729 0 0 0 0 0.729167 0 0 0 0.2 0"/>
<feBlend mode="normal" in2="BackgroundImageFix" result="effect1_dropShadow_1_608"/>
<feBlend mode="normal" in="SourceGraphic" in2="effect1_dropShadow_1_608" result="shape"/>
</filter>
</defs>
</svg>
