<svg width="657" height="297" viewBox="0 0 657 297" fill="none" xmlns="http://www.w3.org/2000/svg">
<g filter="url(#filter0_bdi_1_971)">
<rect x="28" y="20.5774" width="598.331" height="233.729" rx="25" transform="rotate(-0.561514 28 20.5774)" fill="url(#paint0_linear_1_971)" fill-opacity="0.93" shape-rendering="crispEdges"/>
</g>
<path d="M58.2593 62.3052L56.4993 63.5252C56.806 64.1652 57.2193 64.7585 57.7393 65.3052C58.2593 65.8518 58.866 66.2918 59.5593 66.6252C60.266 66.9452 61.0326 67.1052 61.8593 67.1052C62.4593 67.1052 63.0326 67.0052 63.5793 66.8052C64.1393 66.6185 64.6393 66.3518 65.0793 66.0052C65.5193 65.6452 65.866 65.2052 66.1193 64.6852C66.3726 64.1652 66.4993 63.5785 66.4993 62.9252C66.4993 62.3118 66.3926 61.7785 66.1793 61.3252C65.9793 60.8718 65.706 60.4785 65.3593 60.1452C65.0126 59.7985 64.626 59.5118 64.1993 59.2852C63.786 59.0585 63.3726 58.8718 62.9593 58.7252C62.2126 58.4585 61.606 58.1985 61.1393 57.9452C60.6726 57.6918 60.326 57.4252 60.0993 57.1452C59.886 56.8518 59.7793 56.5252 59.7793 56.1652C59.7793 55.7652 59.9326 55.4185 60.2393 55.1252C60.546 54.8185 61.026 54.6652 61.6793 54.6652C62.146 54.6652 62.5526 54.7585 62.8993 54.9452C63.2593 55.1185 63.5726 55.3585 63.8393 55.6652C64.106 55.9585 64.326 56.2785 64.4993 56.6252L66.4193 55.5452C66.1793 55.0518 65.846 54.5785 65.4193 54.1252C65.006 53.6718 64.4926 53.2985 63.8793 53.0052C63.266 52.7118 62.546 52.5652 61.7193 52.5652C60.8793 52.5652 60.126 52.7252 59.4593 53.0452C58.806 53.3518 58.286 53.7918 57.8993 54.3652C57.5126 54.9252 57.3193 55.5785 57.3193 56.3252C57.3193 56.9785 57.446 57.5385 57.6993 58.0052C57.9526 58.4585 58.2726 58.8452 58.6593 59.1652C59.046 59.4718 59.4526 59.7318 59.8793 59.9452C60.306 60.1452 60.6926 60.3052 61.0393 60.4252C61.626 60.6385 62.1393 60.8585 62.5793 61.0852C63.0326 61.2985 63.386 61.5652 63.6393 61.8852C63.8926 62.1918 64.0193 62.6052 64.0193 63.1252C64.0193 63.6718 63.8193 64.1185 63.4193 64.4652C63.0193 64.8118 62.4993 64.9852 61.8593 64.9852C61.326 64.9852 60.846 64.8785 60.4193 64.6652C59.9926 64.4385 59.5993 64.1252 59.2393 63.7252C58.8926 63.3118 58.566 62.8385 58.2593 62.3052ZM70.1013 63.9452C70.1013 63.6518 70.168 63.4052 70.3013 63.2052C70.448 63.0052 70.6613 62.8518 70.9413 62.7452C71.2213 62.6252 71.588 62.5652 72.0413 62.5652C72.5613 62.5652 73.0547 62.6318 73.5213 62.7652C73.988 62.8985 74.428 63.1118 74.8413 63.4052V62.3052C74.7213 62.1585 74.5147 61.9985 74.2213 61.8252C73.928 61.6385 73.5547 61.4785 73.1013 61.3452C72.6613 61.2118 72.1347 61.1452 71.5213 61.1452C70.3747 61.1452 69.488 61.4118 68.8613 61.9452C68.2347 62.4652 67.9213 63.1718 67.9213 64.0652C67.9213 64.6918 68.068 65.2252 68.3613 65.6652C68.6547 66.1052 69.048 66.4385 69.5413 66.6652C70.0347 66.8918 70.568 67.0052 71.1413 67.0052C71.6747 67.0052 72.1947 66.9118 72.7013 66.7252C73.2213 66.5252 73.648 66.2318 73.9813 65.8452C74.328 65.4452 74.5013 64.9518 74.5013 64.3652L74.1813 63.1652C74.1813 63.6185 74.068 64.0185 73.8413 64.3652C73.628 64.6985 73.3413 64.9518 72.9813 65.1252C72.6347 65.2985 72.248 65.3852 71.8213 65.3852C71.488 65.3852 71.188 65.3318 70.9213 65.2252C70.668 65.1185 70.468 64.9585 70.3213 64.7452C70.1747 64.5185 70.1013 64.2518 70.1013 63.9452ZM69.4213 60.0052C69.5547 59.9118 69.7547 59.7985 70.0213 59.6652C70.3013 59.5185 70.628 59.3985 71.0013 59.3052C71.388 59.1985 71.7947 59.1452 72.2213 59.1452C72.5013 59.1452 72.7613 59.1718 73.0013 59.2252C73.2413 59.2785 73.448 59.3652 73.6213 59.4852C73.7947 59.6052 73.928 59.7585 74.0213 59.9452C74.128 60.1318 74.1813 60.3718 74.1813 60.6652V66.8052H76.3013V60.2452C76.3013 59.6318 76.1347 59.1185 75.8013 58.7052C75.468 58.2785 75.008 57.9518 74.4213 57.7252C73.848 57.4985 73.1813 57.3852 72.4213 57.3852C71.568 57.3852 70.808 57.5052 70.1413 57.7452C69.488 57.9852 68.9547 58.2318 68.5413 58.4852L69.4213 60.0052ZM78.8195 51.2052V66.8052H80.9795V51.2052H78.8195ZM87.7413 67.0052C88.808 67.0052 89.7213 66.7985 90.4813 66.3852C91.2413 65.9718 91.8613 65.3518 92.3413 64.5252L90.4813 63.7652C90.188 64.2585 89.8213 64.6252 89.3813 64.8652C88.9413 65.1052 88.428 65.2252 87.8413 65.2252C87.2813 65.2252 86.8013 65.1052 86.4013 64.8652C86.0147 64.6252 85.7213 64.2785 85.5213 63.8252C85.3213 63.3585 85.2213 62.7918 85.2213 62.1252C85.2347 61.4585 85.3413 60.8985 85.5413 60.4452C85.7413 59.9918 86.0347 59.6452 86.4213 59.4052C86.808 59.1652 87.2747 59.0452 87.8213 59.0452C88.2747 59.0452 88.668 59.1452 89.0013 59.3452C89.348 59.5452 89.6147 59.8252 89.8013 60.1852C90.0013 60.5452 90.1013 60.9718 90.1013 61.4652C90.1013 61.5585 90.0747 61.6785 90.0213 61.8252C89.9813 61.9585 89.9413 62.0652 89.9013 62.1452L90.5613 61.2252H84.3213V62.7052H92.4013C92.4147 62.6518 92.4213 62.5652 92.4213 62.4452C92.4347 62.3252 92.4413 62.2118 92.4413 62.1052C92.4413 61.1185 92.2547 60.2785 91.8813 59.5852C91.5213 58.8785 91.0013 58.3385 90.3213 57.9652C89.6413 57.5918 88.8147 57.4052 87.8413 57.4052C86.868 57.4052 86.0213 57.6052 85.3013 58.0052C84.5813 58.3918 84.0213 58.9452 83.6213 59.6652C83.2347 60.3852 83.0413 61.2318 83.0413 62.2052C83.0413 63.1652 83.2347 64.0052 83.6213 64.7252C84.008 65.4452 84.5547 66.0052 85.2613 66.4052C85.9813 66.8052 86.808 67.0052 87.7413 67.0052ZM102.359 63.2052H109.759L109.299 61.2052H102.799L102.359 63.2052ZM106.019 56.7652L108.239 61.9652L108.299 62.5452L110.199 66.8052H112.859L106.019 52.0252L99.1791 66.8052H101.839L103.779 62.4252L103.819 61.9052L106.019 56.7652ZM120.228 61.2052V66.8052H122.448V60.9652C122.448 59.8585 122.174 58.9918 121.628 58.3652C121.081 57.7252 120.288 57.4052 119.248 57.4052C118.608 57.4052 118.054 57.5385 117.588 57.8052C117.134 58.0718 116.761 58.4785 116.468 59.0252V57.6052H114.308V66.8052H116.468V61.2052C116.468 60.7918 116.554 60.4318 116.728 60.1252C116.901 59.8052 117.141 59.5652 117.448 59.4052C117.754 59.2318 118.108 59.1452 118.508 59.1452C119.094 59.1452 119.528 59.3185 119.808 59.6652C120.088 60.0118 120.228 60.5252 120.228 61.2052ZM126.566 63.9452C126.566 63.6518 126.633 63.4052 126.766 63.2052C126.913 63.0052 127.126 62.8518 127.406 62.7452C127.686 62.6252 128.053 62.5652 128.506 62.5652C129.026 62.5652 129.52 62.6318 129.986 62.7652C130.453 62.8985 130.893 63.1118 131.306 63.4052V62.3052C131.186 62.1585 130.98 61.9985 130.686 61.8252C130.393 61.6385 130.02 61.4785 129.566 61.3452C129.126 61.2118 128.6 61.1452 127.986 61.1452C126.84 61.1452 125.953 61.4118 125.326 61.9452C124.7 62.4652 124.386 63.1718 124.386 64.0652C124.386 64.6918 124.533 65.2252 124.826 65.6652C125.12 66.1052 125.513 66.4385 126.006 66.6652C126.5 66.8918 127.033 67.0052 127.606 67.0052C128.14 67.0052 128.66 66.9118 129.166 66.7252C129.686 66.5252 130.113 66.2318 130.446 65.8452C130.793 65.4452 130.966 64.9518 130.966 64.3652L130.646 63.1652C130.646 63.6185 130.533 64.0185 130.306 64.3652C130.093 64.6985 129.806 64.9518 129.446 65.1252C129.1 65.2985 128.713 65.3852 128.286 65.3852C127.953 65.3852 127.653 65.3318 127.386 65.2252C127.133 65.1185 126.933 64.9585 126.786 64.7452C126.64 64.5185 126.566 64.2518 126.566 63.9452ZM125.886 60.0052C126.02 59.9118 126.22 59.7985 126.486 59.6652C126.766 59.5185 127.093 59.3985 127.466 59.3052C127.853 59.1985 128.26 59.1452 128.686 59.1452C128.966 59.1452 129.226 59.1718 129.466 59.2252C129.706 59.2785 129.913 59.3652 130.086 59.4852C130.26 59.6052 130.393 59.7585 130.486 59.9452C130.593 60.1318 130.646 60.3718 130.646 60.6652V66.8052H132.766V60.2452C132.766 59.6318 132.6 59.1185 132.266 58.7052C131.933 58.2785 131.473 57.9518 130.886 57.7252C130.313 57.4985 129.646 57.3852 128.886 57.3852C128.033 57.3852 127.273 57.5052 126.606 57.7452C125.953 57.9852 125.42 58.2318 125.006 58.4852L125.886 60.0052ZM135.284 51.2052V66.8052H137.444V51.2052H135.284ZM148.346 57.6052H146.026L143.146 64.8252L144.166 64.8852L141.226 57.6052H138.746L142.446 65.7252L140.046 71.2052H142.346L148.346 57.6052ZM148.36 57.6052V59.5052H153.58V57.6052H148.36ZM149.9 54.4052V66.8052H152.04V54.4052H149.9ZM154.989 53.9452C154.989 54.3052 155.123 54.6185 155.389 54.8852C155.669 55.1385 155.989 55.2652 156.349 55.2652C156.736 55.2652 157.056 55.1385 157.309 54.8852C157.576 54.6185 157.709 54.3052 157.709 53.9452C157.709 53.5718 157.576 53.2585 157.309 53.0052C157.056 52.7518 156.736 52.6252 156.349 52.6252C155.989 52.6252 155.669 52.7518 155.389 53.0052C155.123 53.2585 154.989 53.5718 154.989 53.9452ZM155.289 57.6052V66.8052H157.409V57.6052H155.289ZM161.822 62.2052C161.822 61.6318 161.949 61.1252 162.202 60.6852C162.455 60.2452 162.795 59.8985 163.222 59.6452C163.662 59.3918 164.149 59.2652 164.682 59.2652C165.109 59.2652 165.522 59.3318 165.922 59.4652C166.322 59.5985 166.675 59.7852 166.982 60.0252C167.302 60.2518 167.535 60.5185 167.682 60.8252V58.4452C167.362 58.1252 166.929 57.8718 166.382 57.6852C165.835 57.4985 165.235 57.4052 164.582 57.4052C163.635 57.4052 162.782 57.6118 162.022 58.0252C161.275 58.4252 160.682 58.9852 160.242 59.7052C159.815 60.4252 159.602 61.2585 159.602 62.2052C159.602 63.1385 159.815 63.9718 160.242 64.7052C160.682 65.4252 161.275 65.9918 162.022 66.4052C162.782 66.8052 163.635 67.0052 164.582 67.0052C165.235 67.0052 165.835 66.9118 166.382 66.7252C166.929 66.5385 167.362 66.2852 167.682 65.9652V63.5852C167.535 63.8785 167.309 64.1452 167.002 64.3852C166.695 64.6252 166.342 64.8118 165.942 64.9452C165.542 65.0785 165.122 65.1452 164.682 65.1452C164.149 65.1452 163.662 65.0185 163.222 64.7652C162.795 64.5118 162.455 64.1718 162.202 63.7452C161.949 63.3052 161.822 62.7918 161.822 62.2052ZM170.489 63.7852L169.229 65.0452C169.496 65.3918 169.823 65.7252 170.209 66.0452C170.609 66.3518 171.069 66.6052 171.589 66.8052C172.123 66.9918 172.703 67.0852 173.329 67.0852C174.343 67.0852 175.143 66.8252 175.729 66.3052C176.329 65.7718 176.629 65.0718 176.629 64.2052C176.629 63.6452 176.496 63.1918 176.229 62.8452C175.976 62.4985 175.636 62.2052 175.209 61.9652C174.783 61.7252 174.316 61.5052 173.809 61.3052C173.436 61.1585 173.096 61.0185 172.789 60.8852C172.496 60.7518 172.256 60.6052 172.069 60.4452C171.896 60.2718 171.809 60.0785 171.809 59.8652C171.809 59.6118 171.909 59.4185 172.109 59.2852C172.309 59.1518 172.563 59.0852 172.869 59.0852C173.323 59.0852 173.763 59.1985 174.189 59.4252C174.616 59.6518 174.983 59.9452 175.289 60.3052L176.489 59.0252C176.236 58.7185 175.929 58.4452 175.569 58.2052C175.209 57.9652 174.803 57.7718 174.349 57.6252C173.909 57.4785 173.436 57.4052 172.929 57.4052C172.369 57.4052 171.843 57.4985 171.349 57.6852C170.869 57.8585 170.483 58.1318 170.189 58.5052C169.909 58.8785 169.769 59.3452 169.769 59.9052C169.769 60.4518 169.896 60.9052 170.149 61.2652C170.416 61.6252 170.749 61.9185 171.149 62.1452C171.563 62.3585 171.976 62.5452 172.389 62.7052C172.803 62.8518 173.163 62.9985 173.469 63.1452C173.776 63.2785 174.016 63.4452 174.189 63.6452C174.363 63.8318 174.449 64.0585 174.449 64.3252C174.449 64.6318 174.336 64.8718 174.109 65.0452C173.896 65.2185 173.596 65.3052 173.209 65.3052C172.903 65.3052 172.596 65.2518 172.289 65.1452C171.983 65.0252 171.676 64.8518 171.369 64.6252C171.076 64.3852 170.783 64.1052 170.489 63.7852Z" fill="#303030"/>
<path d="M56.9493 93.3049V103.805H62.8893V102.215H58.7193V93.3049H56.9493ZM67.036 103.955C67.836 103.955 68.521 103.8 69.091 103.49C69.661 103.18 70.126 102.715 70.486 102.095L69.091 101.525C68.871 101.895 68.596 102.17 68.266 102.35C67.936 102.53 67.551 102.62 67.111 102.62C66.691 102.62 66.331 102.53 66.031 102.35C65.741 102.17 65.521 101.91 65.371 101.57C65.221 101.22 65.146 100.795 65.146 100.295C65.156 99.7949 65.236 99.3749 65.386 99.0349C65.536 98.6949 65.756 98.4349 66.046 98.2549C66.336 98.0749 66.686 97.9849 67.096 97.9849C67.436 97.9849 67.731 98.0599 67.981 98.2099C68.241 98.3599 68.441 98.5699 68.581 98.8399C68.731 99.1099 68.806 99.4299 68.806 99.7999C68.806 99.8699 68.786 99.9599 68.746 100.07C68.716 100.17 68.686 100.25 68.656 100.31L69.151 99.6199H64.471V100.73H70.531C70.541 100.69 70.546 100.625 70.546 100.535C70.556 100.445 70.561 100.36 70.561 100.28C70.561 99.5399 70.421 98.9099 70.141 98.3899C69.871 97.8599 69.481 97.4549 68.971 97.1749C68.461 96.8949 67.841 96.7549 67.111 96.7549C66.381 96.7549 65.746 96.9049 65.206 97.2049C64.666 97.4949 64.246 97.9099 63.946 98.4499C63.656 98.9899 63.511 99.6249 63.511 100.355C63.511 101.075 63.656 101.705 63.946 102.245C64.236 102.785 64.646 103.205 65.176 103.505C65.716 103.805 66.336 103.955 67.036 103.955ZM73.1273 101.66C73.1273 101.44 73.1773 101.255 73.2773 101.105C73.3873 100.955 73.5473 100.84 73.7573 100.76C73.9673 100.67 74.2423 100.625 74.5823 100.625C74.9723 100.625 75.3423 100.675 75.6923 100.775C76.0423 100.875 76.3723 101.035 76.6823 101.255V100.43C76.5923 100.32 76.4373 100.2 76.2173 100.07C75.9973 99.9299 75.7173 99.8099 75.3773 99.7099C75.0473 99.6099 74.6523 99.5599 74.1923 99.5599C73.3323 99.5599 72.6673 99.7599 72.1973 100.16C71.7273 100.55 71.4923 101.08 71.4923 101.75C71.4923 102.22 71.6023 102.62 71.8223 102.95C72.0423 103.28 72.3373 103.53 72.7073 103.7C73.0773 103.87 73.4773 103.955 73.9073 103.955C74.3073 103.955 74.6973 103.885 75.0773 103.745C75.4673 103.595 75.7873 103.375 76.0373 103.085C76.2973 102.785 76.4273 102.415 76.4273 101.975L76.1873 101.075C76.1873 101.415 76.1023 101.715 75.9323 101.975C75.7723 102.225 75.5573 102.415 75.2873 102.545C75.0273 102.675 74.7373 102.74 74.4173 102.74C74.1673 102.74 73.9423 102.7 73.7423 102.62C73.5523 102.54 73.4023 102.42 73.2923 102.26C73.1823 102.09 73.1273 101.89 73.1273 101.66ZM72.6173 98.7049C72.7173 98.6349 72.8673 98.5499 73.0673 98.4499C73.2773 98.3399 73.5223 98.2499 73.8023 98.1799C74.0923 98.0999 74.3973 98.0599 74.7173 98.0599C74.9273 98.0599 75.1223 98.0799 75.3023 98.1199C75.4823 98.1599 75.6373 98.2249 75.7673 98.3149C75.8973 98.4049 75.9973 98.5199 76.0673 98.6599C76.1473 98.7999 76.1873 98.9799 76.1873 99.1999V103.805H77.7773V98.8849C77.7773 98.4249 77.6523 98.0399 77.4023 97.7299C77.1523 97.4099 76.8073 97.1649 76.3673 96.9949C75.9373 96.8249 75.4373 96.7399 74.8673 96.7399C74.2273 96.7399 73.6573 96.8299 73.1573 97.0099C72.6673 97.1899 72.2673 97.3749 71.9573 97.5649L72.6173 98.7049ZM84.8559 92.1049V103.805H86.4909V92.1049H84.8559ZM79.1409 100.355C79.1409 101.105 79.2959 101.75 79.6059 102.29C79.9159 102.83 80.3259 103.245 80.8359 103.535C81.3559 103.815 81.9109 103.955 82.5009 103.955C83.0809 103.955 83.5859 103.81 84.0159 103.52C84.4559 103.23 84.8009 102.815 85.0509 102.275C85.3109 101.735 85.4409 101.095 85.4409 100.355C85.4409 99.6049 85.3109 98.9649 85.0509 98.4349C84.8009 97.8949 84.4559 97.4799 84.0159 97.1899C83.5859 96.8999 83.0809 96.7549 82.5009 96.7549C81.9109 96.7549 81.3559 96.8999 80.8359 97.1899C80.3259 97.4699 79.9159 97.8799 79.6059 98.4199C79.2959 98.9499 79.1409 99.5949 79.1409 100.355ZM80.8209 100.355C80.8209 99.8949 80.9159 99.4999 81.1059 99.1699C81.2959 98.8399 81.5459 98.5899 81.8559 98.4199C82.1759 98.2499 82.5209 98.1649 82.8909 98.1649C83.2009 98.1649 83.5059 98.2499 83.8059 98.4199C84.1159 98.5899 84.3659 98.8399 84.5559 99.1699C84.7559 99.4899 84.8559 99.8849 84.8559 100.355C84.8559 100.825 84.7559 101.225 84.5559 101.555C84.3659 101.875 84.1159 102.12 83.8059 102.29C83.5059 102.46 83.2009 102.545 82.8909 102.545C82.5209 102.545 82.1759 102.46 81.8559 102.29C81.5459 102.12 81.2959 101.87 81.1059 101.54C80.9159 101.21 80.8209 100.815 80.8209 100.355Z" fill="#303030"/>
<path d="M558.964 97.8399C558.964 98.2799 559.044 98.6699 559.204 99.0099C559.374 99.3399 559.604 99.6199 559.894 99.8499C560.184 100.08 560.519 100.255 560.899 100.375C561.279 100.495 561.684 100.555 562.114 100.555C562.544 100.555 562.949 100.495 563.329 100.375C563.709 100.255 564.044 100.08 564.334 99.8499C564.624 99.6199 564.854 99.3399 565.024 99.0099C565.194 98.6699 565.279 98.2799 565.279 97.8399C565.279 97.2999 565.134 96.8299 564.844 96.4299C564.564 96.0199 564.184 95.6999 563.704 95.4699C563.234 95.2399 562.704 95.1249 562.114 95.1249C561.524 95.1249 560.989 95.2399 560.509 95.4699C560.039 95.6999 559.664 96.0199 559.384 96.4299C559.104 96.8299 558.964 97.2999 558.964 97.8399ZM560.644 98.0199C560.644 97.7299 560.704 97.4699 560.824 97.2399C560.954 97.0099 561.129 96.8349 561.349 96.7149C561.579 96.5849 561.834 96.5199 562.114 96.5199C562.404 96.5199 562.659 96.5849 562.879 96.7149C563.099 96.8349 563.269 97.0099 563.389 97.2399C563.519 97.4699 563.584 97.7299 563.584 98.0199C563.584 98.3199 563.519 98.5799 563.389 98.7999C563.259 99.0199 563.079 99.1949 562.849 99.3249C562.629 99.4449 562.384 99.5049 562.114 99.5049C561.844 99.5049 561.599 99.4449 561.379 99.3249C561.159 99.1949 560.979 99.0199 560.839 98.7999C560.709 98.5799 560.644 98.3199 560.644 98.0199ZM558.589 102.955C558.589 103.395 558.679 103.8 558.859 104.17C559.039 104.53 559.289 104.85 559.609 105.13C559.939 105.4 560.314 105.61 560.734 105.76C561.164 105.91 561.624 105.985 562.114 105.985C562.604 105.985 563.059 105.91 563.479 105.76C563.909 105.61 564.284 105.4 564.604 105.13C564.934 104.85 565.189 104.53 565.369 104.17C565.559 103.8 565.654 103.395 565.654 102.955C565.654 102.445 565.549 102 565.339 101.62C565.139 101.24 564.869 100.925 564.529 100.675C564.189 100.415 563.809 100.225 563.389 100.105C562.969 99.9849 562.544 99.9249 562.114 99.9249C561.684 99.9249 561.259 99.9849 560.839 100.105C560.419 100.225 560.039 100.415 559.699 100.675C559.359 100.925 559.089 101.24 558.889 101.62C558.689 102 558.589 102.445 558.589 102.955ZM560.329 102.715C560.329 102.385 560.409 102.085 560.569 101.815C560.739 101.545 560.959 101.335 561.229 101.185C561.509 101.025 561.804 100.945 562.114 100.945C562.424 100.945 562.714 101.025 562.984 101.185C563.264 101.335 563.489 101.545 563.659 101.815C563.829 102.085 563.914 102.385 563.914 102.715C563.914 103.095 563.829 103.42 563.659 103.69C563.489 103.95 563.264 104.15 562.984 104.29C562.714 104.43 562.424 104.5 562.114 104.5C561.804 104.5 561.509 104.43 561.229 104.29C560.959 104.15 560.739 103.95 560.569 103.69C560.409 103.42 560.329 103.095 560.329 102.715ZM568.791 100.555C568.791 99.9949 568.846 99.4799 568.956 99.0099C569.066 98.5399 569.221 98.1349 569.421 97.7949C569.631 97.4549 569.881 97.1949 570.171 97.0149C570.461 96.8249 570.781 96.7299 571.131 96.7299C571.501 96.7299 571.826 96.8249 572.106 97.0149C572.396 97.1949 572.641 97.4549 572.841 97.7949C573.051 98.1349 573.211 98.5399 573.321 99.0099C573.431 99.4799 573.486 99.9949 573.486 100.555C573.486 101.115 573.431 101.63 573.321 102.1C573.211 102.57 573.051 102.975 572.841 103.315C572.641 103.655 572.396 103.92 572.106 104.11C571.826 104.29 571.501 104.38 571.131 104.38C570.781 104.38 570.461 104.29 570.171 104.11C569.881 103.92 569.631 103.655 569.421 103.315C569.221 102.975 569.066 102.57 568.956 102.1C568.846 101.63 568.791 101.115 568.791 100.555ZM567.051 100.555C567.051 101.645 567.221 102.595 567.561 103.405C567.911 104.215 568.391 104.845 569.001 105.295C569.621 105.745 570.331 105.97 571.131 105.97C571.951 105.97 572.666 105.745 573.276 105.295C573.896 104.845 574.376 104.215 574.716 103.405C575.056 102.595 575.226 101.645 575.226 100.555C575.226 99.4649 575.056 98.5149 574.716 97.7049C574.376 96.8949 573.896 96.2649 573.276 95.8149C572.666 95.3649 571.951 95.1399 571.131 95.1399C570.331 95.1399 569.621 95.3649 569.001 95.8149C568.391 96.2649 567.911 96.8949 567.561 97.7049C567.221 98.5149 567.051 99.4649 567.051 100.555ZM576.276 97.6449C576.276 98.1149 576.381 98.5449 576.591 98.9349C576.811 99.3149 577.116 99.6199 577.506 99.8499C577.896 100.08 578.336 100.195 578.826 100.195C579.336 100.195 579.781 100.08 580.161 99.8499C580.551 99.6199 580.851 99.3149 581.061 98.9349C581.281 98.5449 581.391 98.1149 581.391 97.6449C581.391 97.1749 581.281 96.7499 581.061 96.3699C580.851 95.9799 580.551 95.6699 580.161 95.4399C579.781 95.2099 579.336 95.0949 578.826 95.0949C578.336 95.0949 577.896 95.2099 577.506 95.4399C577.116 95.6699 576.811 95.9799 576.591 96.3699C576.381 96.7499 576.276 97.1749 576.276 97.6449ZM577.656 97.6449C577.656 97.4149 577.706 97.2049 577.806 97.0149C577.906 96.8249 578.041 96.6749 578.211 96.5649C578.391 96.4549 578.596 96.3999 578.826 96.3999C579.076 96.3999 579.286 96.4549 579.456 96.5649C579.626 96.6749 579.761 96.8249 579.861 97.0149C579.961 97.2049 580.011 97.4149 580.011 97.6449C580.011 97.8649 579.961 98.0749 579.861 98.2749C579.761 98.4649 579.626 98.6199 579.456 98.7399C579.286 98.8499 579.076 98.9049 578.826 98.9049C578.596 98.9049 578.391 98.8499 578.211 98.7399C578.041 98.6199 577.906 98.4649 577.806 98.2749C577.706 98.0749 577.656 97.8649 577.656 97.6449ZM582.531 103.465C582.531 103.925 582.641 104.35 582.861 104.74C583.081 105.13 583.381 105.44 583.761 105.67C584.151 105.89 584.596 106 585.096 106C585.596 106 586.036 105.89 586.416 105.67C586.806 105.44 587.106 105.13 587.316 104.74C587.536 104.35 587.646 103.925 587.646 103.465C587.646 102.985 587.536 102.555 587.316 102.175C587.106 101.785 586.806 101.48 586.416 101.26C586.036 101.03 585.596 100.915 585.096 100.915C584.596 100.915 584.151 101.03 583.761 101.26C583.381 101.48 583.081 101.785 582.861 102.175C582.641 102.555 582.531 102.985 582.531 103.465ZM583.926 103.45C583.926 103.23 583.971 103.025 584.061 102.835C584.161 102.645 584.296 102.495 584.466 102.385C584.646 102.265 584.856 102.205 585.096 102.205C585.336 102.205 585.541 102.265 585.711 102.385C585.891 102.495 586.026 102.645 586.116 102.835C586.216 103.025 586.266 103.23 586.266 103.45C586.266 103.68 586.216 103.89 586.116 104.08C586.026 104.27 585.891 104.425 585.711 104.545C585.541 104.655 585.336 104.71 585.096 104.71C584.856 104.71 584.646 104.655 584.466 104.545C584.296 104.425 584.161 104.27 584.061 104.08C583.971 103.88 583.926 103.67 583.926 103.45ZM584.796 95.3049L577.521 105.805H579.126L586.401 95.3049H584.796Z" fill="#303030"/>
<rect x="160" y="92.999" width="376" height="16" rx="8" fill="#EBEBEB"/>
<rect x="160" y="92.999" width="325" height="16" rx="8" fill="#49DDE2"/>
<path d="M58.2243 135.555C58.2243 134.835 58.3793 134.195 58.6893 133.635C58.9993 133.065 59.4243 132.62 59.9643 132.3C60.5043 131.98 61.1193 131.82 61.8093 131.82C62.5493 131.82 63.1893 131.99 63.7293 132.33C64.2793 132.67 64.7093 133.13 65.0193 133.71C65.3293 134.29 65.4843 134.94 65.4843 135.66C65.4843 136.38 65.3293 137.02 65.0193 137.58C64.7093 138.14 64.2843 138.58 63.7443 138.9C63.2043 139.21 62.5843 139.365 61.8843 139.365C61.1943 139.365 60.5693 139.205 60.0093 138.885C59.4593 138.555 59.0243 138.105 58.7043 137.535C58.3843 136.965 58.2243 136.305 58.2243 135.555ZM56.3493 135.555C56.3493 136.335 56.4843 137.06 56.7543 137.73C57.0243 138.4 57.4043 138.98 57.8943 139.47C58.3843 139.96 58.9643 140.345 59.6343 140.625C60.3043 140.895 61.0293 141.03 61.8093 141.03C62.6093 141.03 63.3393 140.895 63.9993 140.625C64.6593 140.345 65.2293 139.96 65.7093 139.47C66.1993 138.98 66.5793 138.4 66.8493 137.73C67.1193 137.06 67.2543 136.335 67.2543 135.555C67.2543 134.765 67.1193 134.04 66.8493 133.38C66.5793 132.72 66.1993 132.15 65.7093 131.67C65.2193 131.18 64.6443 130.8 63.9843 130.53C63.3243 130.26 62.5993 130.125 61.8093 130.125C61.0393 130.125 60.3193 130.26 59.6493 130.53C58.9893 130.8 58.4093 131.18 57.9093 131.67C57.4193 132.15 57.0343 132.72 56.7543 133.38C56.4843 134.04 56.3493 134.765 56.3493 135.555ZM61.3293 136.305L66.0093 140.88H68.0943L63.3693 136.305H61.3293ZM70.7693 138.105V133.905H69.1043V138.285C69.1043 139.105 69.3093 139.755 69.7193 140.235C70.1393 140.715 70.7343 140.955 71.5043 140.955C71.9843 140.955 72.3943 140.855 72.7343 140.655C73.0843 140.445 73.3693 140.14 73.5893 139.74V140.805H75.2093V133.905H73.5893V138.105C73.5893 138.415 73.5243 138.69 73.3943 138.93C73.2643 139.16 73.0843 139.34 72.8543 139.47C72.6243 139.59 72.3543 139.65 72.0443 139.65C71.6143 139.65 71.2943 139.515 71.0843 139.245C70.8743 138.975 70.7693 138.595 70.7693 138.105ZM78.2982 138.66C78.2982 138.44 78.3482 138.255 78.4482 138.105C78.5582 137.955 78.7182 137.84 78.9282 137.76C79.1382 137.67 79.4132 137.625 79.7532 137.625C80.1432 137.625 80.5132 137.675 80.8632 137.775C81.2132 137.875 81.5432 138.035 81.8532 138.255V137.43C81.7632 137.32 81.6082 137.2 81.3882 137.07C81.1682 136.93 80.8882 136.81 80.5482 136.71C80.2182 136.61 79.8232 136.56 79.3632 136.56C78.5032 136.56 77.8382 136.76 77.3682 137.16C76.8982 137.55 76.6632 138.08 76.6632 138.75C76.6632 139.22 76.7732 139.62 76.9932 139.95C77.2132 140.28 77.5082 140.53 77.8782 140.7C78.2482 140.87 78.6482 140.955 79.0782 140.955C79.4782 140.955 79.8682 140.885 80.2482 140.745C80.6382 140.595 80.9582 140.375 81.2082 140.085C81.4682 139.785 81.5982 139.415 81.5982 138.975L81.3582 138.075C81.3582 138.415 81.2732 138.715 81.1032 138.975C80.9432 139.225 80.7282 139.415 80.4582 139.545C80.1982 139.675 79.9082 139.74 79.5882 139.74C79.3382 139.74 79.1132 139.7 78.9132 139.62C78.7232 139.54 78.5732 139.42 78.4632 139.26C78.3532 139.09 78.2982 138.89 78.2982 138.66ZM77.7882 135.705C77.8882 135.635 78.0382 135.55 78.2382 135.45C78.4482 135.34 78.6932 135.25 78.9732 135.18C79.2632 135.1 79.5682 135.06 79.8882 135.06C80.0982 135.06 80.2932 135.08 80.4732 135.12C80.6532 135.16 80.8082 135.225 80.9382 135.315C81.0682 135.405 81.1682 135.52 81.2382 135.66C81.3182 135.8 81.3582 135.98 81.3582 136.2V140.805H82.9482V135.885C82.9482 135.425 82.8232 135.04 82.5732 134.73C82.3232 134.41 81.9782 134.165 81.5382 133.995C81.1082 133.825 80.6082 133.74 80.0382 133.74C79.3982 133.74 78.8282 133.83 78.3282 134.01C77.8382 134.19 77.4382 134.375 77.1282 134.565L77.7882 135.705ZM84.8368 129.105V140.805H86.4568V129.105H84.8368ZM88.4682 131.16C88.4682 131.43 88.5682 131.665 88.7682 131.865C88.9782 132.055 89.2182 132.15 89.4882 132.15C89.7782 132.15 90.0182 132.055 90.2082 131.865C90.4082 131.665 90.5082 131.43 90.5082 131.16C90.5082 130.88 90.4082 130.645 90.2082 130.455C90.0182 130.265 89.7782 130.17 89.4882 130.17C89.2182 130.17 88.9782 130.265 88.7682 130.455C88.5682 130.645 88.4682 130.88 88.4682 131.16ZM88.6932 133.905V140.805H90.2832V133.905H88.6932ZM91.9425 133.905V135.33H95.9025V133.905H91.9425ZM95.7225 130.845L96.4875 129.585C96.4075 129.485 96.2925 129.385 96.1425 129.285C96.0025 129.185 95.8325 129.1 95.6325 129.03C95.4325 128.96 95.1975 128.925 94.9275 128.925C94.4475 128.925 94.0425 129.02 93.7125 129.21C93.3825 129.39 93.1275 129.66 92.9475 130.02C92.7775 130.37 92.6925 130.815 92.6925 131.355V140.805H94.2825V131.67C94.2825 131.38 94.3125 131.145 94.3725 130.965C94.4325 130.785 94.5125 130.655 94.6125 130.575C94.7225 130.495 94.8525 130.455 95.0025 130.455C95.1325 130.455 95.2575 130.48 95.3775 130.53C95.5075 130.58 95.6225 130.685 95.7225 130.845ZM97.0814 131.16C97.0814 131.43 97.1814 131.665 97.3814 131.865C97.5914 132.055 97.8314 132.15 98.1014 132.15C98.3914 132.15 98.6314 132.055 98.8214 131.865C99.0214 131.665 99.1214 131.43 99.1214 131.16C99.1214 130.88 99.0214 130.645 98.8214 130.455C98.6314 130.265 98.3914 130.17 98.1014 130.17C97.8314 130.17 97.5914 130.265 97.3814 130.455C97.1814 130.645 97.0814 130.88 97.0814 131.16ZM97.3064 133.905V140.805H98.8964V133.905H97.3064ZM102.206 137.355C102.206 136.925 102.301 136.545 102.491 136.215C102.681 135.885 102.936 135.625 103.256 135.435C103.586 135.245 103.951 135.15 104.351 135.15C104.671 135.15 104.981 135.2 105.281 135.3C105.581 135.4 105.846 135.54 106.076 135.72C106.316 135.89 106.491 136.09 106.601 136.32V134.535C106.361 134.295 106.036 134.105 105.626 133.965C105.216 133.825 104.766 133.755 104.276 133.755C103.566 133.755 102.926 133.91 102.356 134.22C101.796 134.52 101.351 134.94 101.021 135.48C100.701 136.02 100.541 136.645 100.541 137.355C100.541 138.055 100.701 138.68 101.021 139.23C101.351 139.77 101.796 140.195 102.356 140.505C102.926 140.805 103.566 140.955 104.276 140.955C104.766 140.955 105.216 140.885 105.626 140.745C106.036 140.605 106.361 140.415 106.601 140.175V138.39C106.491 138.61 106.321 138.81 106.091 138.99C105.861 139.17 105.596 139.31 105.296 139.41C104.996 139.51 104.681 139.56 104.351 139.56C103.951 139.56 103.586 139.465 103.256 139.275C102.936 139.085 102.681 138.83 102.491 138.51C102.301 138.18 102.206 137.795 102.206 137.355ZM109.411 138.66C109.411 138.44 109.461 138.255 109.561 138.105C109.671 137.955 109.831 137.84 110.041 137.76C110.251 137.67 110.526 137.625 110.866 137.625C111.256 137.625 111.626 137.675 111.976 137.775C112.326 137.875 112.656 138.035 112.966 138.255V137.43C112.876 137.32 112.721 137.2 112.501 137.07C112.281 136.93 112.001 136.81 111.661 136.71C111.331 136.61 110.936 136.56 110.476 136.56C109.616 136.56 108.951 136.76 108.481 137.16C108.011 137.55 107.776 138.08 107.776 138.75C107.776 139.22 107.886 139.62 108.106 139.95C108.326 140.28 108.621 140.53 108.991 140.7C109.361 140.87 109.761 140.955 110.191 140.955C110.591 140.955 110.981 140.885 111.361 140.745C111.751 140.595 112.071 140.375 112.321 140.085C112.581 139.785 112.711 139.415 112.711 138.975L112.471 138.075C112.471 138.415 112.386 138.715 112.216 138.975C112.056 139.225 111.841 139.415 111.571 139.545C111.311 139.675 111.021 139.74 110.701 139.74C110.451 139.74 110.226 139.7 110.026 139.62C109.836 139.54 109.686 139.42 109.576 139.26C109.466 139.09 109.411 138.89 109.411 138.66ZM108.901 135.705C109.001 135.635 109.151 135.55 109.351 135.45C109.561 135.34 109.806 135.25 110.086 135.18C110.376 135.1 110.681 135.06 111.001 135.06C111.211 135.06 111.406 135.08 111.586 135.12C111.766 135.16 111.921 135.225 112.051 135.315C112.181 135.405 112.281 135.52 112.351 135.66C112.431 135.8 112.471 135.98 112.471 136.2V140.805H114.061V135.885C114.061 135.425 113.936 135.04 113.686 134.73C113.436 134.41 113.091 134.165 112.651 133.995C112.221 133.825 111.721 133.74 111.151 133.74C110.511 133.74 109.941 133.83 109.441 134.01C108.951 134.19 108.551 134.375 108.241 134.565L108.901 135.705ZM114.99 133.905V135.33H118.905V133.905H114.99ZM116.145 131.505V140.805H117.75V131.505H116.145ZM119.962 131.16C119.962 131.43 120.062 131.665 120.262 131.865C120.472 132.055 120.712 132.15 120.982 132.15C121.272 132.15 121.512 132.055 121.702 131.865C121.902 131.665 122.002 131.43 122.002 131.16C122.002 130.88 121.902 130.645 121.702 130.455C121.512 130.265 121.272 130.17 120.982 130.17C120.712 130.17 120.472 130.265 120.262 130.455C120.062 130.645 119.962 130.88 119.962 131.16ZM120.187 133.905V140.805H121.777V133.905H120.187ZM123.482 137.355C123.482 138.055 123.642 138.68 123.962 139.23C124.292 139.77 124.737 140.195 125.297 140.505C125.857 140.805 126.492 140.955 127.202 140.955C127.912 140.955 128.542 140.805 129.092 140.505C129.652 140.195 130.097 139.77 130.427 139.23C130.757 138.68 130.922 138.055 130.922 137.355C130.922 136.645 130.757 136.02 130.427 135.48C130.097 134.94 129.652 134.52 129.092 134.22C128.542 133.91 127.912 133.755 127.202 133.755C126.492 133.755 125.857 133.91 125.297 134.22C124.737 134.52 124.292 134.94 123.962 135.48C123.642 136.02 123.482 136.645 123.482 137.355ZM125.147 137.355C125.147 136.925 125.237 136.545 125.417 136.215C125.597 135.885 125.842 135.63 126.152 135.45C126.462 135.27 126.812 135.18 127.202 135.18C127.582 135.18 127.927 135.27 128.237 135.45C128.557 135.63 128.807 135.885 128.987 136.215C129.167 136.545 129.257 136.925 129.257 137.355C129.257 137.785 129.167 138.165 128.987 138.495C128.807 138.815 128.557 139.07 128.237 139.26C127.927 139.44 127.582 139.53 127.202 139.53C126.812 139.53 126.462 139.44 126.152 139.26C125.842 139.07 125.597 138.815 125.417 138.495C125.237 138.165 125.147 137.785 125.147 137.355ZM136.899 136.605V140.805H138.564V136.425C138.564 135.595 138.359 134.945 137.949 134.475C137.539 133.995 136.944 133.755 136.164 133.755C135.684 133.755 135.269 133.855 134.919 134.055C134.579 134.255 134.299 134.56 134.079 134.97V133.905H132.459V140.805H134.079V136.605C134.079 136.295 134.144 136.025 134.274 135.795C134.404 135.555 134.584 135.375 134.814 135.255C135.044 135.125 135.309 135.06 135.609 135.06C136.049 135.06 136.374 135.19 136.584 135.45C136.794 135.71 136.899 136.095 136.899 136.605Z" fill="#303030"/>
<path d="M558.049 140.795H566.689V139.265H564.544L564.289 139.4H560.644L563.329 135.47V140L563.224 140.165V142.805H565.039V132.305H563.974L558.049 140.795ZM575.553 139.385C575.553 138.675 575.413 138.06 575.133 137.54C574.853 137.02 574.473 136.615 573.993 136.325C573.513 136.035 572.983 135.89 572.403 135.89C572.113 135.89 571.828 135.92 571.548 135.98C571.268 136.04 570.998 136.135 570.738 136.265L571.398 133.865H575.448V132.305H570.063L568.638 138.08C568.998 137.86 569.328 137.69 569.628 137.57C569.938 137.45 570.238 137.37 570.528 137.33C570.828 137.28 571.128 137.255 571.428 137.255C571.838 137.255 572.213 137.335 572.553 137.495C572.893 137.655 573.163 137.885 573.363 138.185C573.563 138.485 573.663 138.85 573.663 139.28C573.663 139.7 573.573 140.065 573.393 140.375C573.223 140.685 572.973 140.92 572.643 141.08C572.313 141.24 571.908 141.32 571.428 141.32C571.098 141.32 570.768 141.255 570.438 141.125C570.108 140.985 569.798 140.805 569.508 140.585C569.228 140.355 568.983 140.105 568.773 139.835L567.738 141.11C568.008 141.44 568.323 141.75 568.683 142.04C569.043 142.32 569.468 142.545 569.958 142.715C570.448 142.885 571.013 142.97 571.653 142.97C572.163 142.97 572.648 142.9 573.108 142.76C573.578 142.61 573.998 142.39 574.368 142.1C574.738 141.8 575.028 141.425 575.238 140.975C575.448 140.525 575.553 139.995 575.553 139.385ZM576.598 134.645C576.598 135.115 576.703 135.545 576.913 135.935C577.133 136.315 577.438 136.62 577.828 136.85C578.218 137.08 578.658 137.195 579.148 137.195C579.658 137.195 580.103 137.08 580.483 136.85C580.873 136.62 581.173 136.315 581.383 135.935C581.603 135.545 581.713 135.115 581.713 134.645C581.713 134.175 581.603 133.75 581.383 133.37C581.173 132.98 580.873 132.67 580.483 132.44C580.103 132.21 579.658 132.095 579.148 132.095C578.658 132.095 578.218 132.21 577.828 132.44C577.438 132.67 577.133 132.98 576.913 133.37C576.703 133.75 576.598 134.175 576.598 134.645ZM577.978 134.645C577.978 134.415 578.028 134.205 578.128 134.015C578.228 133.825 578.363 133.675 578.533 133.565C578.713 133.455 578.918 133.4 579.148 133.4C579.398 133.4 579.608 133.455 579.778 133.565C579.948 133.675 580.083 133.825 580.183 134.015C580.283 134.205 580.333 134.415 580.333 134.645C580.333 134.865 580.283 135.075 580.183 135.275C580.083 135.465 579.948 135.62 579.778 135.74C579.608 135.85 579.398 135.905 579.148 135.905C578.918 135.905 578.713 135.85 578.533 135.74C578.363 135.62 578.228 135.465 578.128 135.275C578.028 135.075 577.978 134.865 577.978 134.645ZM582.853 140.465C582.853 140.925 582.963 141.35 583.183 141.74C583.403 142.13 583.703 142.44 584.083 142.67C584.473 142.89 584.918 143 585.418 143C585.918 143 586.358 142.89 586.738 142.67C587.128 142.44 587.428 142.13 587.638 141.74C587.858 141.35 587.968 140.925 587.968 140.465C587.968 139.985 587.858 139.555 587.638 139.175C587.428 138.785 587.128 138.48 586.738 138.26C586.358 138.03 585.918 137.915 585.418 137.915C584.918 137.915 584.473 138.03 584.083 138.26C583.703 138.48 583.403 138.785 583.183 139.175C582.963 139.555 582.853 139.985 582.853 140.465ZM584.248 140.45C584.248 140.23 584.293 140.025 584.383 139.835C584.483 139.645 584.618 139.495 584.788 139.385C584.968 139.265 585.178 139.205 585.418 139.205C585.658 139.205 585.863 139.265 586.033 139.385C586.213 139.495 586.348 139.645 586.438 139.835C586.538 140.025 586.588 140.23 586.588 140.45C586.588 140.68 586.538 140.89 586.438 141.08C586.348 141.27 586.213 141.425 586.033 141.545C585.863 141.655 585.658 141.71 585.418 141.71C585.178 141.71 584.968 141.655 584.788 141.545C584.618 141.425 584.483 141.27 584.383 141.08C584.293 140.88 584.248 140.67 584.248 140.45ZM585.118 132.305L577.843 142.805H579.448L586.723 132.305H585.118Z" fill="#303030"/>
<rect x="160" y="129.999" width="376" height="16" rx="8" fill="#EBEBEB"/>
<rect x="160" y="129.999" width="217" height="16" rx="8" fill="#FFB545"/>
<path d="M60.9543 174.685L57.8643 167.305H55.8243L60.9543 178.39L66.0843 167.305H64.0443L60.9543 174.685ZM66.6966 175.66C66.6966 175.44 66.7466 175.255 66.8466 175.105C66.9566 174.955 67.1166 174.84 67.3266 174.76C67.5366 174.67 67.8116 174.625 68.1516 174.625C68.5416 174.625 68.9116 174.675 69.2616 174.775C69.6116 174.875 69.9416 175.035 70.2516 175.255V174.43C70.1616 174.32 70.0066 174.2 69.7866 174.07C69.5666 173.93 69.2866 173.81 68.9466 173.71C68.6166 173.61 68.2216 173.56 67.7616 173.56C66.9016 173.56 66.2366 173.76 65.7666 174.16C65.2966 174.55 65.0616 175.08 65.0616 175.75C65.0616 176.22 65.1716 176.62 65.3916 176.95C65.6116 177.28 65.9066 177.53 66.2766 177.7C66.6466 177.87 67.0466 177.955 67.4766 177.955C67.8766 177.955 68.2666 177.885 68.6466 177.745C69.0366 177.595 69.3566 177.375 69.6066 177.085C69.8666 176.785 69.9966 176.415 69.9966 175.975L69.7566 175.075C69.7566 175.415 69.6716 175.715 69.5016 175.975C69.3416 176.225 69.1266 176.415 68.8566 176.545C68.5966 176.675 68.3066 176.74 67.9866 176.74C67.7366 176.74 67.5116 176.7 67.3116 176.62C67.1216 176.54 66.9716 176.42 66.8616 176.26C66.7516 176.09 66.6966 175.89 66.6966 175.66ZM66.1866 172.705C66.2866 172.635 66.4366 172.55 66.6366 172.45C66.8466 172.34 67.0916 172.25 67.3716 172.18C67.6616 172.1 67.9666 172.06 68.2866 172.06C68.4966 172.06 68.6916 172.08 68.8716 172.12C69.0516 172.16 69.2066 172.225 69.3366 172.315C69.4666 172.405 69.5666 172.52 69.6366 172.66C69.7166 172.8 69.7566 172.98 69.7566 173.2V177.805H71.3466V172.885C71.3466 172.425 71.2216 172.04 70.9716 171.73C70.7216 171.41 70.3766 171.165 69.9366 170.995C69.5066 170.825 69.0066 170.74 68.4366 170.74C67.7966 170.74 67.2266 170.83 66.7266 171.01C66.2366 171.19 65.8366 171.375 65.5266 171.565L66.1866 172.705ZM73.2352 166.105V177.805H74.8552V166.105H73.2352ZM76.8666 168.16C76.8666 168.43 76.9666 168.665 77.1666 168.865C77.3766 169.055 77.6166 169.15 77.8866 169.15C78.1766 169.15 78.4166 169.055 78.6066 168.865C78.8066 168.665 78.9066 168.43 78.9066 168.16C78.9066 167.88 78.8066 167.645 78.6066 167.455C78.4166 167.265 78.1766 167.17 77.8866 167.17C77.6166 167.17 77.3766 167.265 77.1666 167.455C76.9666 167.645 76.8666 167.88 76.8666 168.16ZM77.0916 170.905V177.805H78.6816V170.905H77.0916ZM86.101 166.105V177.805H87.736V166.105H86.101ZM80.386 174.355C80.386 175.105 80.541 175.75 80.851 176.29C81.161 176.83 81.571 177.245 82.081 177.535C82.601 177.815 83.156 177.955 83.746 177.955C84.326 177.955 84.831 177.81 85.261 177.52C85.701 177.23 86.046 176.815 86.296 176.275C86.556 175.735 86.686 175.095 86.686 174.355C86.686 173.605 86.556 172.965 86.296 172.435C86.046 171.895 85.701 171.48 85.261 171.19C84.831 170.9 84.326 170.755 83.746 170.755C83.156 170.755 82.601 170.9 82.081 171.19C81.571 171.47 81.161 171.88 80.851 172.42C80.541 172.95 80.386 173.595 80.386 174.355ZM82.066 174.355C82.066 173.895 82.161 173.5 82.351 173.17C82.541 172.84 82.791 172.59 83.101 172.42C83.421 172.25 83.766 172.165 84.136 172.165C84.446 172.165 84.751 172.25 85.051 172.42C85.361 172.59 85.611 172.84 85.801 173.17C86.001 173.49 86.101 173.885 86.101 174.355C86.101 174.825 86.001 175.225 85.801 175.555C85.611 175.875 85.361 176.12 85.051 176.29C84.751 176.46 84.446 176.545 84.136 176.545C83.766 176.545 83.421 176.46 83.101 176.29C82.791 176.12 82.541 175.87 82.351 175.54C82.161 175.21 82.066 174.815 82.066 174.355ZM90.764 175.66C90.764 175.44 90.814 175.255 90.914 175.105C91.024 174.955 91.184 174.84 91.394 174.76C91.604 174.67 91.879 174.625 92.219 174.625C92.609 174.625 92.979 174.675 93.329 174.775C93.679 174.875 94.009 175.035 94.319 175.255V174.43C94.229 174.32 94.074 174.2 93.854 174.07C93.634 173.93 93.354 173.81 93.014 173.71C92.684 173.61 92.289 173.56 91.829 173.56C90.969 173.56 90.304 173.76 89.834 174.16C89.364 174.55 89.129 175.08 89.129 175.75C89.129 176.22 89.239 176.62 89.459 176.95C89.679 177.28 89.974 177.53 90.344 177.7C90.714 177.87 91.114 177.955 91.544 177.955C91.944 177.955 92.334 177.885 92.714 177.745C93.104 177.595 93.424 177.375 93.674 177.085C93.934 176.785 94.064 176.415 94.064 175.975L93.824 175.075C93.824 175.415 93.739 175.715 93.569 175.975C93.409 176.225 93.194 176.415 92.924 176.545C92.664 176.675 92.374 176.74 92.054 176.74C91.804 176.74 91.579 176.7 91.379 176.62C91.189 176.54 91.039 176.42 90.929 176.26C90.819 176.09 90.764 175.89 90.764 175.66ZM90.254 172.705C90.354 172.635 90.504 172.55 90.704 172.45C90.914 172.34 91.159 172.25 91.439 172.18C91.729 172.1 92.034 172.06 92.354 172.06C92.564 172.06 92.759 172.08 92.939 172.12C93.119 172.16 93.274 172.225 93.404 172.315C93.534 172.405 93.634 172.52 93.704 172.66C93.784 172.8 93.824 172.98 93.824 173.2V177.805H95.414V172.885C95.414 172.425 95.289 172.04 95.039 171.73C94.789 171.41 94.444 171.165 94.004 170.995C93.574 170.825 93.074 170.74 92.504 170.74C91.864 170.74 91.294 170.83 90.794 171.01C90.304 171.19 89.904 171.375 89.594 171.565L90.254 172.705ZM96.3426 170.905V172.33H100.258V170.905H96.3426ZM97.4976 168.505V177.805H99.1026V168.505H97.4976ZM101.315 168.16C101.315 168.43 101.415 168.665 101.615 168.865C101.825 169.055 102.065 169.15 102.335 169.15C102.625 169.15 102.865 169.055 103.055 168.865C103.255 168.665 103.355 168.43 103.355 168.16C103.355 167.88 103.255 167.645 103.055 167.455C102.865 167.265 102.625 167.17 102.335 167.17C102.065 167.17 101.825 167.265 101.615 167.455C101.415 167.645 101.315 167.88 101.315 168.16ZM101.54 170.905V177.805H103.13V170.905H101.54ZM104.834 174.355C104.834 175.055 104.994 175.68 105.314 176.23C105.644 176.77 106.089 177.195 106.649 177.505C107.209 177.805 107.844 177.955 108.554 177.955C109.264 177.955 109.894 177.805 110.444 177.505C111.004 177.195 111.449 176.77 111.779 176.23C112.109 175.68 112.274 175.055 112.274 174.355C112.274 173.645 112.109 173.02 111.779 172.48C111.449 171.94 111.004 171.52 110.444 171.22C109.894 170.91 109.264 170.755 108.554 170.755C107.844 170.755 107.209 170.91 106.649 171.22C106.089 171.52 105.644 171.94 105.314 172.48C104.994 173.02 104.834 173.645 104.834 174.355ZM106.499 174.355C106.499 173.925 106.589 173.545 106.769 173.215C106.949 172.885 107.194 172.63 107.504 172.45C107.814 172.27 108.164 172.18 108.554 172.18C108.934 172.18 109.279 172.27 109.589 172.45C109.909 172.63 110.159 172.885 110.339 173.215C110.519 173.545 110.609 173.925 110.609 174.355C110.609 174.785 110.519 175.165 110.339 175.495C110.159 175.815 109.909 176.07 109.589 176.26C109.279 176.44 108.934 176.53 108.554 176.53C108.164 176.53 107.814 176.44 107.504 176.26C107.194 176.07 106.949 175.815 106.769 175.495C106.589 175.165 106.499 174.785 106.499 174.355ZM118.251 173.605V177.805H119.916V173.425C119.916 172.595 119.711 171.945 119.301 171.475C118.891 170.995 118.296 170.755 117.516 170.755C117.036 170.755 116.621 170.855 116.271 171.055C115.931 171.255 115.651 171.56 115.431 171.97V170.905H113.811V177.805H115.431V173.605C115.431 173.295 115.496 173.025 115.626 172.795C115.756 172.555 115.936 172.375 116.166 172.255C116.396 172.125 116.661 172.06 116.961 172.06C117.401 172.06 117.726 172.19 117.936 172.45C118.146 172.71 118.251 173.095 118.251 173.605Z" fill="#303030"/>
<path d="M564.499 172.845C564.499 173.275 564.404 173.655 564.214 173.985C564.034 174.315 563.784 174.575 563.464 174.765C563.144 174.955 562.784 175.05 562.384 175.05C561.974 175.05 561.609 174.955 561.289 174.765C560.969 174.575 560.714 174.315 560.524 173.985C560.344 173.655 560.254 173.275 560.254 172.845C560.254 172.415 560.344 172.04 560.524 171.72C560.714 171.39 560.969 171.135 561.289 170.955C561.609 170.765 561.974 170.67 562.384 170.67C562.784 170.67 563.144 170.765 563.464 170.955C563.784 171.135 564.034 171.39 564.214 171.72C564.404 172.04 564.499 172.415 564.499 172.845ZM562.009 179.79L565.339 175.32C565.599 174.98 565.809 174.605 565.969 174.195C566.139 173.785 566.224 173.335 566.224 172.845C566.224 172.065 566.054 171.4 565.714 170.85C565.374 170.29 564.914 169.865 564.334 169.575C563.754 169.275 563.104 169.125 562.384 169.125C561.664 169.125 561.014 169.275 560.434 169.575C559.854 169.865 559.389 170.29 559.039 170.85C558.699 171.4 558.529 172.065 558.529 172.845C558.529 173.345 558.614 173.805 558.784 174.225C558.954 174.645 559.184 175.01 559.474 175.32C559.774 175.62 560.114 175.85 560.494 176.01C560.874 176.17 561.274 176.25 561.694 176.25C562.044 176.25 562.349 176.21 562.609 176.13C562.869 176.05 563.119 175.88 563.359 175.62L563.089 175.665L559.759 179.79H562.009ZM569.319 174.555C569.319 173.995 569.374 173.48 569.484 173.01C569.594 172.54 569.749 172.135 569.949 171.795C570.159 171.455 570.409 171.195 570.699 171.015C570.989 170.825 571.309 170.73 571.659 170.73C572.029 170.73 572.354 170.825 572.634 171.015C572.924 171.195 573.169 171.455 573.369 171.795C573.579 172.135 573.739 172.54 573.849 173.01C573.959 173.48 574.014 173.995 574.014 174.555C574.014 175.115 573.959 175.63 573.849 176.1C573.739 176.57 573.579 176.975 573.369 177.315C573.169 177.655 572.924 177.92 572.634 178.11C572.354 178.29 572.029 178.38 571.659 178.38C571.309 178.38 570.989 178.29 570.699 178.11C570.409 177.92 570.159 177.655 569.949 177.315C569.749 176.975 569.594 176.57 569.484 176.1C569.374 175.63 569.319 175.115 569.319 174.555ZM567.579 174.555C567.579 175.645 567.749 176.595 568.089 177.405C568.439 178.215 568.919 178.845 569.529 179.295C570.149 179.745 570.859 179.97 571.659 179.97C572.479 179.97 573.194 179.745 573.804 179.295C574.424 178.845 574.904 178.215 575.244 177.405C575.584 176.595 575.754 175.645 575.754 174.555C575.754 173.465 575.584 172.515 575.244 171.705C574.904 170.895 574.424 170.265 573.804 169.815C573.194 169.365 572.479 169.14 571.659 169.14C570.859 169.14 570.149 169.365 569.529 169.815C568.919 170.265 568.439 170.895 568.089 171.705C567.749 172.515 567.579 173.465 567.579 174.555ZM576.804 171.645C576.804 172.115 576.909 172.545 577.119 172.935C577.339 173.315 577.644 173.62 578.034 173.85C578.424 174.08 578.864 174.195 579.354 174.195C579.864 174.195 580.309 174.08 580.689 173.85C581.079 173.62 581.379 173.315 581.589 172.935C581.809 172.545 581.919 172.115 581.919 171.645C581.919 171.175 581.809 170.75 581.589 170.37C581.379 169.98 581.079 169.67 580.689 169.44C580.309 169.21 579.864 169.095 579.354 169.095C578.864 169.095 578.424 169.21 578.034 169.44C577.644 169.67 577.339 169.98 577.119 170.37C576.909 170.75 576.804 171.175 576.804 171.645ZM578.184 171.645C578.184 171.415 578.234 171.205 578.334 171.015C578.434 170.825 578.569 170.675 578.739 170.565C578.919 170.455 579.124 170.4 579.354 170.4C579.604 170.4 579.814 170.455 579.984 170.565C580.154 170.675 580.289 170.825 580.389 171.015C580.489 171.205 580.539 171.415 580.539 171.645C580.539 171.865 580.489 172.075 580.389 172.275C580.289 172.465 580.154 172.62 579.984 172.74C579.814 172.85 579.604 172.905 579.354 172.905C579.124 172.905 578.919 172.85 578.739 172.74C578.569 172.62 578.434 172.465 578.334 172.275C578.234 172.075 578.184 171.865 578.184 171.645ZM583.059 177.465C583.059 177.925 583.169 178.35 583.389 178.74C583.609 179.13 583.909 179.44 584.289 179.67C584.679 179.89 585.124 180 585.624 180C586.124 180 586.564 179.89 586.944 179.67C587.334 179.44 587.634 179.13 587.844 178.74C588.064 178.35 588.174 177.925 588.174 177.465C588.174 176.985 588.064 176.555 587.844 176.175C587.634 175.785 587.334 175.48 586.944 175.26C586.564 175.03 586.124 174.915 585.624 174.915C585.124 174.915 584.679 175.03 584.289 175.26C583.909 175.48 583.609 175.785 583.389 176.175C583.169 176.555 583.059 176.985 583.059 177.465ZM584.454 177.45C584.454 177.23 584.499 177.025 584.589 176.835C584.689 176.645 584.824 176.495 584.994 176.385C585.174 176.265 585.384 176.205 585.624 176.205C585.864 176.205 586.069 176.265 586.239 176.385C586.419 176.495 586.554 176.645 586.644 176.835C586.744 177.025 586.794 177.23 586.794 177.45C586.794 177.68 586.744 177.89 586.644 178.08C586.554 178.27 586.419 178.425 586.239 178.545C586.069 178.655 585.864 178.71 585.624 178.71C585.384 178.71 585.174 178.655 584.994 178.545C584.824 178.425 584.689 178.27 584.589 178.08C584.499 177.88 584.454 177.67 584.454 177.45ZM585.324 169.305L578.049 179.805H579.654L586.929 169.305H585.324Z" fill="#303030"/>
<rect x="160" y="166.999" width="376" height="16" rx="8" fill="#EBEBEB"/>
<rect x="160" y="166.999" width="358" height="16" rx="8" fill="#6B7AFF"/>
<path d="M57.6393 211.43L56.3193 212.345C56.5493 212.825 56.8593 213.27 57.2493 213.68C57.6393 214.09 58.0943 214.42 58.6143 214.67C59.1443 214.91 59.7193 215.03 60.3393 215.03C60.7893 215.03 61.2193 214.955 61.6293 214.805C62.0493 214.665 62.4243 214.465 62.7543 214.205C63.0843 213.935 63.3443 213.605 63.5343 213.215C63.7243 212.825 63.8193 212.385 63.8193 211.895C63.8193 211.435 63.7393 211.035 63.5793 210.695C63.4293 210.355 63.2243 210.06 62.9643 209.81C62.7043 209.55 62.4143 209.335 62.0943 209.165C61.7843 208.995 61.4743 208.855 61.1643 208.745C60.6043 208.545 60.1493 208.35 59.7993 208.16C59.4493 207.97 59.1893 207.77 59.0193 207.56C58.8593 207.34 58.7793 207.095 58.7793 206.825C58.7793 206.525 58.8943 206.265 59.1243 206.045C59.3543 205.815 59.7143 205.7 60.2043 205.7C60.5543 205.7 60.8593 205.77 61.1193 205.91C61.3893 206.04 61.6243 206.22 61.8243 206.45C62.0243 206.67 62.1893 206.91 62.3193 207.17L63.7593 206.36C63.5793 205.99 63.3293 205.635 63.0093 205.295C62.6993 204.955 62.3143 204.675 61.8543 204.455C61.3943 204.235 60.8543 204.125 60.2343 204.125C59.6043 204.125 59.0393 204.245 58.5393 204.485C58.0493 204.715 57.6593 205.045 57.3693 205.475C57.0793 205.895 56.9343 206.385 56.9343 206.945C56.9343 207.435 57.0293 207.855 57.2193 208.205C57.4093 208.545 57.6493 208.835 57.9393 209.075C58.2293 209.305 58.5343 209.5 58.8543 209.66C59.1743 209.81 59.4643 209.93 59.7243 210.02C60.1643 210.18 60.5493 210.345 60.8793 210.515C61.2193 210.675 61.4843 210.875 61.6743 211.115C61.8643 211.345 61.9593 211.655 61.9593 212.045C61.9593 212.455 61.8093 212.79 61.5093 213.05C61.2093 213.31 60.8193 213.44 60.3393 213.44C59.9393 213.44 59.5793 213.36 59.2593 213.2C58.9393 213.03 58.6443 212.795 58.3743 212.495C58.1143 212.185 57.8693 211.83 57.6393 211.43ZM67.1658 212.105V207.905H65.5008V212.285C65.5008 213.105 65.7058 213.755 66.1158 214.235C66.5358 214.715 67.1308 214.955 67.9008 214.955C68.3808 214.955 68.7908 214.855 69.1308 214.655C69.4808 214.445 69.7658 214.14 69.9858 213.74V214.805H71.6058V207.905H69.9858V212.105C69.9858 212.415 69.9208 212.69 69.7908 212.93C69.6608 213.16 69.4808 213.34 69.2508 213.47C69.0208 213.59 68.7508 213.65 68.4408 213.65C68.0108 213.65 67.6908 213.515 67.4808 213.245C67.2708 212.975 67.1658 212.595 67.1658 212.105ZM75.2496 218.105V207.905H73.6146V218.105H75.2496ZM80.9646 211.355C80.9646 210.585 80.8096 209.93 80.4996 209.39C80.1896 208.85 79.7796 208.44 79.2696 208.16C78.7596 207.87 78.2046 207.725 77.6046 207.725C77.0146 207.725 76.4996 207.875 76.0596 208.175C75.6296 208.465 75.2946 208.88 75.0546 209.42C74.8246 209.96 74.7096 210.605 74.7096 211.355C74.7096 212.095 74.8246 212.74 75.0546 213.29C75.2946 213.83 75.6296 214.25 76.0596 214.55C76.4996 214.84 77.0146 214.985 77.6046 214.985C78.2046 214.985 78.7596 214.845 79.2696 214.565C79.7796 214.275 80.1896 213.86 80.4996 213.32C80.8096 212.77 80.9646 212.115 80.9646 211.355ZM79.2846 211.355C79.2846 211.815 79.1896 212.21 78.9996 212.54C78.8096 212.86 78.5546 213.105 78.2346 213.275C77.9246 213.435 77.5796 213.515 77.1996 213.515C76.8896 213.515 76.5846 213.435 76.2846 213.275C75.9846 213.105 75.7346 212.86 75.5346 212.54C75.3446 212.22 75.2496 211.825 75.2496 211.355C75.2496 210.885 75.3446 210.49 75.5346 210.17C75.7346 209.85 75.9846 209.61 76.2846 209.45C76.5846 209.28 76.8896 209.195 77.1996 209.195C77.5796 209.195 77.9246 209.28 78.2346 209.45C78.5546 209.61 78.8096 209.855 78.9996 210.185C79.1896 210.505 79.2846 210.895 79.2846 211.355ZM84.0827 218.105V207.905H82.4477V218.105H84.0827ZM89.7977 211.355C89.7977 210.585 89.6427 209.93 89.3327 209.39C89.0227 208.85 88.6127 208.44 88.1027 208.16C87.5927 207.87 87.0377 207.725 86.4377 207.725C85.8477 207.725 85.3327 207.875 84.8927 208.175C84.4627 208.465 84.1277 208.88 83.8877 209.42C83.6577 209.96 83.5427 210.605 83.5427 211.355C83.5427 212.095 83.6577 212.74 83.8877 213.29C84.1277 213.83 84.4627 214.25 84.8927 214.55C85.3327 214.84 85.8477 214.985 86.4377 214.985C87.0377 214.985 87.5927 214.845 88.1027 214.565C88.6127 214.275 89.0227 213.86 89.3327 213.32C89.6427 212.77 89.7977 212.115 89.7977 211.355ZM88.1177 211.355C88.1177 211.815 88.0227 212.21 87.8327 212.54C87.6427 212.86 87.3877 213.105 87.0677 213.275C86.7577 213.435 86.4127 213.515 86.0327 213.515C85.7227 213.515 85.4177 213.435 85.1177 213.275C84.8177 213.105 84.5677 212.86 84.3677 212.54C84.1777 212.22 84.0827 211.825 84.0827 211.355C84.0827 210.885 84.1777 210.49 84.3677 210.17C84.5677 209.85 84.8177 209.61 85.1177 209.45C85.4177 209.28 85.7227 209.195 86.0327 209.195C86.4127 209.195 86.7577 209.28 87.0677 209.45C87.3877 209.61 87.6427 209.855 87.8327 210.185C88.0227 210.505 88.1177 210.895 88.1177 211.355ZM91.3407 203.105V214.805H92.9607V203.105H91.3407ZM101.137 207.905H99.3971L97.2371 213.32L98.0021 213.365L95.7971 207.905H93.9371L96.7121 213.995L94.9121 218.105H96.6371L101.137 207.905Z" fill="#303030"/>
<path d="M560.254 213.265C560.254 212.835 560.344 212.455 560.524 212.125C560.714 211.785 560.969 211.525 561.289 211.345C561.609 211.155 561.974 211.06 562.384 211.06C562.784 211.06 563.144 211.155 563.464 211.345C563.784 211.525 564.034 211.785 564.214 212.125C564.404 212.455 564.499 212.835 564.499 213.265C564.499 213.695 564.404 214.075 564.214 214.405C564.034 214.725 563.784 214.98 563.464 215.17C563.144 215.35 562.784 215.44 562.384 215.44C561.974 215.44 561.609 215.35 561.289 215.17C560.969 214.98 560.714 214.725 560.524 214.405C560.344 214.075 560.254 213.695 560.254 213.265ZM562.744 206.32L559.414 210.79C559.154 211.13 558.939 211.505 558.769 211.915C558.609 212.325 558.529 212.775 558.529 213.265C558.529 214.035 558.699 214.7 559.039 215.26C559.389 215.82 559.854 216.25 560.434 216.55C561.014 216.84 561.664 216.985 562.384 216.985C563.104 216.985 563.754 216.84 564.334 216.55C564.914 216.25 565.374 215.82 565.714 215.26C566.054 214.7 566.224 214.035 566.224 213.265C566.224 212.765 566.139 212.305 565.969 211.885C565.799 211.465 565.564 211.105 565.264 210.805C564.974 210.495 564.639 210.26 564.259 210.1C563.879 209.94 563.484 209.86 563.074 209.86C562.714 209.86 562.404 209.9 562.144 209.98C561.884 210.06 561.639 210.23 561.409 210.49L561.664 210.445L564.994 206.32H562.744ZM569.319 211.555C569.319 210.995 569.374 210.48 569.484 210.01C569.594 209.54 569.749 209.135 569.949 208.795C570.159 208.455 570.409 208.195 570.699 208.015C570.989 207.825 571.309 207.73 571.659 207.73C572.029 207.73 572.354 207.825 572.634 208.015C572.924 208.195 573.169 208.455 573.369 208.795C573.579 209.135 573.739 209.54 573.849 210.01C573.959 210.48 574.014 210.995 574.014 211.555C574.014 212.115 573.959 212.63 573.849 213.1C573.739 213.57 573.579 213.975 573.369 214.315C573.169 214.655 572.924 214.92 572.634 215.11C572.354 215.29 572.029 215.38 571.659 215.38C571.309 215.38 570.989 215.29 570.699 215.11C570.409 214.92 570.159 214.655 569.949 214.315C569.749 213.975 569.594 213.57 569.484 213.1C569.374 212.63 569.319 212.115 569.319 211.555ZM567.579 211.555C567.579 212.645 567.749 213.595 568.089 214.405C568.439 215.215 568.919 215.845 569.529 216.295C570.149 216.745 570.859 216.97 571.659 216.97C572.479 216.97 573.194 216.745 573.804 216.295C574.424 215.845 574.904 215.215 575.244 214.405C575.584 213.595 575.754 212.645 575.754 211.555C575.754 210.465 575.584 209.515 575.244 208.705C574.904 207.895 574.424 207.265 573.804 206.815C573.194 206.365 572.479 206.14 571.659 206.14C570.859 206.14 570.149 206.365 569.529 206.815C568.919 207.265 568.439 207.895 568.089 208.705C567.749 209.515 567.579 210.465 567.579 211.555ZM576.804 208.645C576.804 209.115 576.909 209.545 577.119 209.935C577.339 210.315 577.644 210.62 578.034 210.85C578.424 211.08 578.864 211.195 579.354 211.195C579.864 211.195 580.309 211.08 580.689 210.85C581.079 210.62 581.379 210.315 581.589 209.935C581.809 209.545 581.919 209.115 581.919 208.645C581.919 208.175 581.809 207.75 581.589 207.37C581.379 206.98 581.079 206.67 580.689 206.44C580.309 206.21 579.864 206.095 579.354 206.095C578.864 206.095 578.424 206.21 578.034 206.44C577.644 206.67 577.339 206.98 577.119 207.37C576.909 207.75 576.804 208.175 576.804 208.645ZM578.184 208.645C578.184 208.415 578.234 208.205 578.334 208.015C578.434 207.825 578.569 207.675 578.739 207.565C578.919 207.455 579.124 207.4 579.354 207.4C579.604 207.4 579.814 207.455 579.984 207.565C580.154 207.675 580.289 207.825 580.389 208.015C580.489 208.205 580.539 208.415 580.539 208.645C580.539 208.865 580.489 209.075 580.389 209.275C580.289 209.465 580.154 209.62 579.984 209.74C579.814 209.85 579.604 209.905 579.354 209.905C579.124 209.905 578.919 209.85 578.739 209.74C578.569 209.62 578.434 209.465 578.334 209.275C578.234 209.075 578.184 208.865 578.184 208.645ZM583.059 214.465C583.059 214.925 583.169 215.35 583.389 215.74C583.609 216.13 583.909 216.44 584.289 216.67C584.679 216.89 585.124 217 585.624 217C586.124 217 586.564 216.89 586.944 216.67C587.334 216.44 587.634 216.13 587.844 215.74C588.064 215.35 588.174 214.925 588.174 214.465C588.174 213.985 588.064 213.555 587.844 213.175C587.634 212.785 587.334 212.48 586.944 212.26C586.564 212.03 586.124 211.915 585.624 211.915C585.124 211.915 584.679 212.03 584.289 212.26C583.909 212.48 583.609 212.785 583.389 213.175C583.169 213.555 583.059 213.985 583.059 214.465ZM584.454 214.45C584.454 214.23 584.499 214.025 584.589 213.835C584.689 213.645 584.824 213.495 584.994 213.385C585.174 213.265 585.384 213.205 585.624 213.205C585.864 213.205 586.069 213.265 586.239 213.385C586.419 213.495 586.554 213.645 586.644 213.835C586.744 214.025 586.794 214.23 586.794 214.45C586.794 214.68 586.744 214.89 586.644 215.08C586.554 215.27 586.419 215.425 586.239 215.545C586.069 215.655 585.864 215.71 585.624 215.71C585.384 215.71 585.174 215.655 584.994 215.545C584.824 215.425 584.689 215.27 584.589 215.08C584.499 214.88 584.454 214.67 584.454 214.45ZM585.324 206.305L578.049 216.805H579.654L586.929 206.305H585.324Z" fill="#303030"/>
<rect x="160" y="203.999" width="376" height="16" rx="8" fill="#EBEBEB"/>
<rect x="160" y="203.999" width="235" height="16" rx="8" fill="#FF6F89"/>
<defs>
<filter id="filter0_bdi_1_971" x="0.243774" y="-6.48096" width="656.105" height="302.532" filterUnits="userSpaceOnUse" color-interpolation-filters="sRGB">
<feFlood flood-opacity="0" result="BackgroundImageFix"/>
<feGaussianBlur in="BackgroundImageFix" stdDeviation="10.7192"/>
<feComposite in2="SourceAlpha" operator="in" result="effect1_backgroundBlur_1_971"/>
<feColorMatrix in="SourceAlpha" type="matrix" values="0 0 0 0 0 0 0 0 0 0 0 0 0 0 0 0 0 0 127 0" result="hardAlpha"/>
<feOffset dy="14"/>
<feGaussianBlur stdDeviation="14"/>
<feComposite in2="hardAlpha" operator="out"/>
<feColorMatrix type="matrix" values="0 0 0 0 0.804167 0 0 0 0 0.804167 0 0 0 0 0.804167 0 0 0 0.25 0"/>
<feBlend mode="normal" in2="effect1_backgroundBlur_1_971" result="effect2_dropShadow_1_971"/>
<feBlend mode="normal" in="SourceGraphic" in2="effect2_dropShadow_1_971" result="shape"/>
<feColorMatrix in="SourceAlpha" type="matrix" values="0 0 0 0 0 0 0 0 0 0 0 0 0 0 0 0 0 0 127 0" result="hardAlpha"/>
<feOffset dx="-2.57262" dy="2.57262"/>
<feComposite in2="hardAlpha" operator="arithmetic" k2="-1" k3="1"/>
<feColorMatrix type="matrix" values="0 0 0 0 1 0 0 0 0 1 0 0 0 0 1 0 0 0 1 0"/>
<feBlend mode="normal" in2="shape" result="effect3_innerShadow_1_971"/>
</filter>
<linearGradient id="paint0_linear_1_971" x1="573.537" y1="105.809" x2="89.0819" y2="-35.1428" gradientUnits="userSpaceOnUse">
<stop stop-color="#F4F4F4"/>
<stop offset="0.421875" stop-color="#F4F4F4"/>
<stop offset="1" stop-color="white"/>
</linearGradient>
</defs>
</svg>
