<svg width="424" height="292" viewBox="0 0 424 292" fill="none" xmlns="http://www.w3.org/2000/svg">
<g filter="url(#filter0_bdi_1_953)">
<rect x="28.0195" y="18.2427" width="365.134" height="231.807" rx="25" transform="rotate(-0.561514 28.0195 18.2427)" fill="url(#paint0_linear_1_953)" fill-opacity="0.93" shape-rendering="crispEdges"/>
</g>
<path d="M67.5594 48.5535H69.8794V63.2535L59.6594 53.1535V62.5535H57.3394V47.8535L67.5594 57.9535V48.5535ZM75.0239 58.9535C75.0239 59.6068 75.1639 60.1135 75.4439 60.4735C75.7239 60.8335 76.1506 61.0135 76.7239 61.0135C77.1372 61.0135 77.4972 60.9335 77.8039 60.7735C78.1106 60.6001 78.3506 60.3601 78.5239 60.0535C78.6972 59.7335 78.7839 59.3668 78.7839 58.9535V53.3535H80.9439V62.5535H78.7839V61.1335C78.4906 61.6668 78.1106 62.0735 77.6439 62.3535C77.1906 62.6201 76.6439 62.7535 76.0039 62.7535C74.9772 62.7535 74.1839 62.4335 73.6239 61.7935C73.0772 61.1535 72.8039 60.2868 72.8039 59.1935V53.3535H75.0239V58.9535ZM96.8623 56.7135V62.5535H94.7023V56.9535C94.7023 56.2601 94.5757 55.7468 94.3223 55.4135C94.0823 55.0668 93.6957 54.8935 93.1623 54.8935C92.8023 54.8935 92.4823 54.9735 92.2023 55.1335C91.9357 55.2935 91.7223 55.5268 91.5623 55.8335C91.4157 56.1401 91.3423 56.5135 91.3423 56.9535V62.5535H89.1823V56.9535C89.1823 56.2601 89.0557 55.7468 88.8023 55.4135C88.5623 55.0668 88.1757 54.8935 87.6423 54.8935C87.269 54.8935 86.9423 54.9735 86.6623 55.1335C86.3957 55.2935 86.189 55.5268 86.0423 55.8335C85.8957 56.1401 85.8223 56.5135 85.8223 56.9535V62.5535H83.7023V53.3535H85.8223V54.6935C86.089 54.1868 86.4357 53.8068 86.8623 53.5535C87.3023 53.2868 87.8157 53.1535 88.4023 53.1535C89.0823 53.1535 89.6423 53.2935 90.0823 53.5735C90.5357 53.8535 90.8623 54.2601 91.0623 54.7935C91.3823 54.2601 91.7823 53.8535 92.2623 53.5735C92.7557 53.2935 93.3157 53.1535 93.9423 53.1535C94.5957 53.1535 95.1357 53.2935 95.5623 53.5735C96.0023 53.8401 96.329 54.2401 96.5423 54.7735C96.7557 55.3068 96.8623 55.9535 96.8623 56.7135ZM101.72 46.9535V62.5535H99.5403V46.9535H101.72ZM109.34 57.9535C109.34 58.9535 109.134 59.8135 108.72 60.5335C108.307 61.2535 107.76 61.8068 107.08 62.1935C106.4 62.5668 105.66 62.7535 104.86 62.7535C104.1 62.7535 103.42 62.5601 102.82 62.1735C102.234 61.7868 101.774 61.2335 101.44 60.5135C101.107 59.7935 100.94 58.9401 100.94 57.9535C100.94 56.9535 101.107 56.1001 101.44 55.3935C101.774 54.6735 102.234 54.1201 102.82 53.7335C103.42 53.3468 104.1 53.1535 104.86 53.1535C105.66 53.1535 106.4 53.3468 107.08 53.7335C107.76 54.1068 108.307 54.6535 108.72 55.3735C109.134 56.0801 109.34 56.9401 109.34 57.9535ZM107.1 57.9535C107.1 57.3401 106.974 56.8135 106.72 56.3735C106.467 55.9335 106.127 55.6001 105.7 55.3735C105.287 55.1468 104.827 55.0335 104.32 55.0335C103.907 55.0335 103.5 55.1468 103.1 55.3735C102.7 55.6001 102.367 55.9335 102.1 56.3735C101.847 56.8001 101.72 57.3268 101.72 57.9535C101.72 58.5801 101.847 59.1135 102.1 59.5535C102.367 59.9801 102.7 60.3068 103.1 60.5335C103.5 60.7601 103.907 60.8735 104.32 60.8735C104.827 60.8735 105.287 60.7601 105.7 60.5335C106.127 60.3068 106.467 59.9735 106.72 59.5335C106.974 59.0935 107.1 58.5668 107.1 57.9535ZM115.398 62.7535C114.464 62.7535 113.638 62.5535 112.918 62.1535C112.211 61.7535 111.664 61.1935 111.278 60.4735C110.891 59.7535 110.698 58.9135 110.698 57.9535C110.698 56.9801 110.891 56.1335 111.278 55.4135C111.678 54.6935 112.238 54.1401 112.958 53.7535C113.678 53.3535 114.524 53.1535 115.498 53.1535C116.471 53.1535 117.298 53.3401 117.978 53.7135C118.658 54.0868 119.178 54.6268 119.538 55.3335C119.911 56.0268 120.098 56.8668 120.098 57.8535C120.098 57.9601 120.091 58.0735 120.078 58.1935C120.078 58.3135 120.071 58.4001 120.058 58.4535H111.978V56.9735H118.218L117.558 57.8935C117.598 57.8135 117.638 57.7068 117.678 57.5735C117.731 57.4268 117.758 57.3068 117.758 57.2135C117.758 56.7201 117.658 56.2935 117.458 55.9335C117.271 55.5735 117.004 55.2935 116.658 55.0935C116.324 54.8935 115.931 54.7935 115.478 54.7935C114.931 54.7935 114.464 54.9135 114.078 55.1535C113.691 55.3935 113.398 55.7401 113.198 56.1935C112.998 56.6468 112.891 57.2068 112.878 57.8735C112.878 58.5401 112.978 59.1068 113.178 59.5735C113.378 60.0268 113.671 60.3735 114.058 60.6135C114.458 60.8535 114.938 60.9735 115.498 60.9735C116.084 60.9735 116.598 60.8535 117.038 60.6135C117.478 60.3735 117.844 60.0068 118.138 59.5135L119.998 60.2735C119.518 61.1001 118.898 61.7201 118.138 62.1335C117.378 62.5468 116.464 62.7535 115.398 62.7535ZM124.299 53.3535V62.5535H122.159V53.3535H124.299ZM127.039 55.6535C126.839 55.4935 126.653 55.3735 126.479 55.2935C126.306 55.2135 126.086 55.1735 125.819 55.1735C125.459 55.1735 125.166 55.2668 124.939 55.4535C124.713 55.6401 124.546 55.9001 124.439 56.2335C124.346 56.5535 124.299 56.9335 124.299 57.3735L123.579 56.9535C123.579 56.2201 123.713 55.5735 123.979 55.0135C124.259 54.4401 124.613 53.9868 125.039 53.6535C125.479 53.3201 125.933 53.1535 126.399 53.1535C126.733 53.1535 127.046 53.2068 127.339 53.3135C127.633 53.4068 127.879 53.5801 128.079 53.8335L127.039 55.6535ZM137.438 55.5535C137.438 56.5135 137.638 57.3735 138.038 58.1335C138.451 58.8801 139.018 59.4668 139.738 59.8935C140.458 60.3201 141.278 60.5335 142.198 60.5335C143.131 60.5335 143.951 60.3201 144.658 59.8935C145.378 59.4668 145.938 58.8801 146.338 58.1335C146.751 57.3735 146.958 56.5135 146.958 55.5535C146.958 54.5935 146.758 53.7401 146.358 52.9935C145.958 52.2335 145.398 51.6401 144.678 51.2135C143.971 50.7868 143.144 50.5735 142.198 50.5735C141.278 50.5735 140.458 50.7868 139.738 51.2135C139.018 51.6401 138.451 52.2335 138.038 52.9935C137.638 53.7401 137.438 54.5935 137.438 55.5535ZM134.938 55.5535C134.938 54.5001 135.118 53.5335 135.478 52.6535C135.838 51.7735 136.344 51.0135 136.998 50.3735C137.664 49.7201 138.438 49.2135 139.318 48.8535C140.211 48.4935 141.171 48.3135 142.198 48.3135C143.251 48.3135 144.218 48.4935 145.098 48.8535C145.978 49.2135 146.744 49.7201 147.398 50.3735C148.064 51.0135 148.578 51.7735 148.938 52.6535C149.298 53.5335 149.478 54.5001 149.478 55.5535C149.478 56.5935 149.298 57.5601 148.938 58.4535C148.578 59.3468 148.071 60.1201 147.418 60.7735C146.764 61.4268 145.991 61.9401 145.098 62.3135C144.218 62.6735 143.251 62.8535 142.198 62.8535C141.158 62.8535 140.191 62.6735 139.298 62.3135C138.404 61.9401 137.631 61.4268 136.978 60.7735C136.338 60.1201 135.838 59.3468 135.478 58.4535C135.118 57.5601 134.938 56.5935 134.938 55.5535ZM150.833 53.3535H156.113V55.2535H150.833V53.3535ZM155.873 49.2735C155.74 49.0601 155.586 48.9201 155.413 48.8535C155.253 48.7868 155.086 48.7535 154.913 48.7535C154.713 48.7535 154.54 48.8068 154.393 48.9135C154.26 49.0201 154.153 49.1935 154.073 49.4335C153.993 49.6735 153.953 49.9868 153.953 50.3735V62.5535H151.833V49.9535C151.833 49.2335 151.946 48.6401 152.173 48.1735C152.413 47.6935 152.753 47.3335 153.193 47.0935C153.633 46.8401 154.173 46.7135 154.813 46.7135C155.173 46.7135 155.486 46.7601 155.753 46.8535C156.02 46.9468 156.246 47.0601 156.433 47.1935C156.633 47.3268 156.786 47.4601 156.893 47.5935L155.873 49.2735ZM163.941 48.5535H166.301V60.4335H171.861V62.5535H163.941V48.5535ZM177.39 62.7535C176.456 62.7535 175.63 62.5535 174.91 62.1535C174.203 61.7535 173.656 61.1935 173.27 60.4735C172.883 59.7535 172.69 58.9135 172.69 57.9535C172.69 56.9801 172.883 56.1335 173.27 55.4135C173.67 54.6935 174.23 54.1401 174.95 53.7535C175.67 53.3535 176.516 53.1535 177.49 53.1535C178.463 53.1535 179.29 53.3401 179.97 53.7135C180.65 54.0868 181.17 54.6268 181.53 55.3335C181.903 56.0268 182.09 56.8668 182.09 57.8535C182.09 57.9601 182.083 58.0735 182.07 58.1935C182.07 58.3135 182.063 58.4001 182.05 58.4535H173.97V56.9735H180.21L179.55 57.8935C179.59 57.8135 179.63 57.7068 179.67 57.5735C179.723 57.4268 179.75 57.3068 179.75 57.2135C179.75 56.7201 179.65 56.2935 179.45 55.9335C179.263 55.5735 178.996 55.2935 178.65 55.0935C178.316 54.8935 177.923 54.7935 177.47 54.7935C176.923 54.7935 176.456 54.9135 176.07 55.1535C175.683 55.3935 175.39 55.7401 175.19 56.1935C174.99 56.6468 174.883 57.2068 174.87 57.8735C174.87 58.5401 174.97 59.1068 175.17 59.5735C175.37 60.0268 175.663 60.3735 176.05 60.6135C176.45 60.8535 176.93 60.9735 177.49 60.9735C178.076 60.9735 178.59 60.8535 179.03 60.6135C179.47 60.3735 179.836 60.0068 180.13 59.5135L181.99 60.2735C181.51 61.1001 180.89 61.7201 180.13 62.1335C179.37 62.5468 178.456 62.7535 177.39 62.7535ZM185.512 59.6935C185.512 60.0001 185.585 60.2668 185.732 60.4935C185.878 60.7068 186.078 60.8668 186.332 60.9735C186.598 61.0801 186.898 61.1335 187.232 61.1335C187.658 61.1335 188.045 61.0468 188.392 60.8735C188.752 60.7001 189.038 60.4468 189.252 60.1135C189.478 59.7668 189.592 59.3668 189.592 58.9135L189.912 60.1135C189.912 60.7001 189.738 61.1935 189.392 61.5935C189.058 61.9801 188.632 62.2735 188.112 62.4735C187.605 62.6601 187.085 62.7535 186.552 62.7535C185.978 62.7535 185.445 62.6401 184.952 62.4135C184.458 62.1868 184.065 61.8535 183.772 61.4135C183.478 60.9735 183.332 60.4401 183.332 59.8135C183.332 58.9201 183.645 58.2135 184.272 57.6935C184.898 57.1601 185.785 56.8935 186.932 56.8935C187.545 56.8935 188.072 56.9601 188.512 57.0935C188.965 57.2268 189.338 57.3868 189.632 57.5735C189.925 57.7468 190.132 57.9068 190.252 58.0535V59.1535C189.838 58.8601 189.398 58.6468 188.932 58.5135C188.465 58.3801 187.972 58.3135 187.452 58.3135C186.998 58.3135 186.632 58.3735 186.352 58.4935C186.072 58.6001 185.858 58.7535 185.712 58.9535C185.578 59.1535 185.512 59.4001 185.512 59.6935ZM184.832 55.7535L183.952 54.2335C184.365 53.9801 184.898 53.7335 185.552 53.4935C186.218 53.2535 186.978 53.1335 187.832 53.1335C188.592 53.1335 189.258 53.2468 189.832 53.4735C190.418 53.7001 190.878 54.0268 191.212 54.4535C191.545 54.8668 191.712 55.3801 191.712 55.9935V62.5535H189.592V56.4135C189.592 56.1201 189.538 55.8801 189.432 55.6935C189.338 55.5068 189.205 55.3535 189.032 55.2335C188.858 55.1135 188.652 55.0268 188.412 54.9735C188.172 54.9201 187.912 54.8935 187.632 54.8935C187.205 54.8935 186.798 54.9468 186.412 55.0535C186.038 55.1468 185.712 55.2668 185.432 55.4135C185.165 55.5468 184.965 55.6601 184.832 55.7535ZM201.15 46.9535H203.33V62.5535H201.15V46.9535ZM193.53 57.9535C193.53 56.9401 193.736 56.0801 194.15 55.3735C194.563 54.6535 195.11 54.1068 195.79 53.7335C196.483 53.3468 197.223 53.1535 198.01 53.1535C198.783 53.1535 199.456 53.3468 200.03 53.7335C200.616 54.1201 201.076 54.6735 201.41 55.3935C201.756 56.1001 201.93 56.9535 201.93 57.9535C201.93 58.9401 201.756 59.7935 201.41 60.5135C201.076 61.2335 200.616 61.7868 200.03 62.1735C199.456 62.5601 198.783 62.7535 198.01 62.7535C197.223 62.7535 196.483 62.5668 195.79 62.1935C195.11 61.8068 194.563 61.2535 194.15 60.5335C193.736 59.8135 193.53 58.9535 193.53 57.9535ZM195.77 57.9535C195.77 58.5668 195.896 59.0935 196.15 59.5335C196.403 59.9735 196.736 60.3068 197.15 60.5335C197.576 60.7601 198.036 60.8735 198.53 60.8735C198.943 60.8735 199.35 60.7601 199.75 60.5335C200.163 60.3068 200.496 59.9801 200.75 59.5535C201.016 59.1135 201.15 58.5801 201.15 57.9535C201.15 57.3268 201.016 56.8001 200.75 56.3735C200.496 55.9335 200.163 55.6001 199.75 55.3735C199.35 55.1468 198.943 55.0335 198.53 55.0335C198.036 55.0335 197.576 55.1468 197.15 55.3735C196.736 55.6001 196.403 55.9335 196.15 56.3735C195.896 56.8135 195.77 57.3401 195.77 57.9535ZM206.427 59.5335C206.72 59.8535 207.014 60.1335 207.307 60.3735C207.614 60.6001 207.92 60.7735 208.227 60.8935C208.534 61.0001 208.84 61.0535 209.147 61.0535C209.534 61.0535 209.834 60.9668 210.047 60.7935C210.274 60.6201 210.387 60.3801 210.387 60.0735C210.387 59.8068 210.3 59.5801 210.127 59.3935C209.954 59.1935 209.714 59.0268 209.407 58.8935C209.1 58.7468 208.74 58.6001 208.327 58.4535C207.914 58.2935 207.5 58.1068 207.087 57.8935C206.687 57.6668 206.354 57.3735 206.087 57.0135C205.834 56.6535 205.707 56.2001 205.707 55.6535C205.707 55.0935 205.847 54.6268 206.127 54.2535C206.42 53.8801 206.807 53.6068 207.287 53.4335C207.78 53.2468 208.307 53.1535 208.867 53.1535C209.374 53.1535 209.847 53.2268 210.287 53.3735C210.74 53.5201 211.147 53.7135 211.507 53.9535C211.867 54.1935 212.174 54.4668 212.427 54.7735L211.227 56.0535C210.92 55.6935 210.554 55.4001 210.127 55.1735C209.7 54.9468 209.26 54.8335 208.807 54.8335C208.5 54.8335 208.247 54.9001 208.047 55.0335C207.847 55.1668 207.747 55.3601 207.747 55.6135C207.747 55.8268 207.834 56.0201 208.007 56.1935C208.194 56.3535 208.434 56.5001 208.727 56.6335C209.034 56.7668 209.374 56.9068 209.747 57.0535C210.254 57.2535 210.72 57.4735 211.147 57.7135C211.574 57.9535 211.914 58.2468 212.167 58.5935C212.434 58.9401 212.567 59.3935 212.567 59.9535C212.567 60.8201 212.267 61.5201 211.667 62.0535C211.08 62.5735 210.28 62.8335 209.267 62.8335C208.64 62.8335 208.06 62.7401 207.527 62.5535C207.007 62.3535 206.547 62.1001 206.147 61.7935C205.76 61.4735 205.434 61.1401 205.167 60.7935L206.427 59.5335Z" fill="#303030"/>
<path d="M56.8081 87.883C56.8081 86.539 57.1681 85.375 57.8881 84.391C58.6081 83.407 59.5681 82.651 60.7681 82.123C61.9921 81.571 63.3481 81.295 64.8361 81.295C66.3001 81.295 67.6321 81.571 68.8321 82.123C70.0561 82.651 71.0281 83.407 71.7481 84.391C72.4921 85.375 72.8641 86.539 72.8641 87.883C72.8641 88.987 72.6361 89.959 72.1801 90.799C71.7481 91.615 71.1481 92.299 70.3801 92.851C69.6361 93.403 68.7841 93.823 67.8241 94.111C66.8641 94.399 65.8681 94.543 64.8361 94.543C63.8041 94.543 62.8081 94.399 61.8481 94.111C60.8881 93.823 60.0241 93.403 59.2561 92.851C58.5121 92.299 57.9121 91.615 57.4561 90.799C57.0241 89.959 56.8081 88.987 56.8081 87.883ZM61.6321 88.387C61.6321 89.035 61.7761 89.599 62.0641 90.079C62.3521 90.559 62.7361 90.943 63.2161 91.231C63.6961 91.495 64.2361 91.627 64.8361 91.627C65.4361 91.627 65.9761 91.495 66.4561 91.231C66.9361 90.943 67.3081 90.559 67.5721 90.079C67.8601 89.599 68.0041 89.035 68.0041 88.387C68.0041 87.763 67.8721 87.199 67.6081 86.695C67.3441 86.191 66.9721 85.807 66.4921 85.543C66.0121 85.279 65.4601 85.147 64.8361 85.147C64.2121 85.147 63.6601 85.279 63.1801 85.543C62.7001 85.807 62.3161 86.191 62.0281 86.695C61.7641 87.199 61.6321 87.763 61.6321 88.387ZM55.9081 100.159C55.9081 98.887 56.1721 97.795 56.7001 96.883C57.2281 95.947 57.9241 95.179 58.7881 94.579C59.6761 93.979 60.6481 93.535 61.7041 93.247C62.7601 92.959 63.8041 92.815 64.8361 92.815C65.8681 92.815 66.9121 92.959 67.9681 93.247C69.0241 93.535 69.9841 93.979 70.8481 94.579C71.7361 95.179 72.4441 95.947 72.9721 96.883C73.5001 97.795 73.7641 98.887 73.7641 100.159C73.7641 101.263 73.5241 102.271 73.0441 103.183C72.5641 104.071 71.9041 104.839 71.0641 105.487C70.2481 106.135 69.3001 106.639 68.2201 106.999C67.1641 107.335 66.0361 107.503 64.8361 107.503C63.6361 107.503 62.4961 107.335 61.4161 106.999C60.3601 106.639 59.4121 106.135 58.5721 105.487C57.7321 104.839 57.0721 104.071 56.5921 103.183C56.1361 102.271 55.9081 101.263 55.9081 100.159ZM60.9841 99.403C60.9841 100.243 61.1521 100.951 61.4881 101.527C61.8481 102.079 62.3161 102.511 62.8921 102.823C63.4921 103.111 64.1401 103.255 64.8361 103.255C65.5081 103.255 66.1321 103.111 66.7081 102.823C67.3081 102.511 67.7881 102.079 68.1481 101.527C68.5081 100.951 68.6881 100.243 68.6881 99.403C68.6881 98.707 68.5081 98.071 68.1481 97.495C67.7881 96.919 67.3081 96.463 66.7081 96.127C66.1321 95.791 65.5081 95.623 64.8361 95.623C64.1401 95.623 63.4921 95.791 62.8921 96.127C62.3161 96.463 61.8481 96.919 61.4881 97.495C61.1521 98.071 60.9841 98.707 60.9841 99.403ZM96.5363 98.863C96.5363 100.351 96.2603 101.635 95.7083 102.715C95.1563 103.795 94.4123 104.683 93.4763 105.379C92.5403 106.075 91.4963 106.591 90.3443 106.927C89.1923 107.263 88.0043 107.431 86.7803 107.431C85.2443 107.431 83.8643 107.251 82.6403 106.891C81.4403 106.531 80.3843 106.063 79.4723 105.487C78.5603 104.887 77.7563 104.239 77.0603 103.543L79.4723 99.547C80.0723 100.147 80.7203 100.687 81.4163 101.167C82.1363 101.647 82.8803 102.031 83.6483 102.319C84.4163 102.583 85.1483 102.715 85.8443 102.715C86.9243 102.715 87.8363 102.547 88.5803 102.211C89.3483 101.875 89.9363 101.395 90.3443 100.771C90.7523 100.123 90.9563 99.331 90.9563 98.395C90.9563 97.483 90.7163 96.715 90.2363 96.091C89.7803 95.467 89.1563 94.999 88.3643 94.687C87.5963 94.351 86.7563 94.183 85.8443 94.183C85.1723 94.183 84.4643 94.243 83.7203 94.363C82.9763 94.459 82.2083 94.639 81.4163 94.903C80.6483 95.143 79.8323 95.503 78.9683 95.983L82.4243 81.799H96.1403V86.263H86.2403L84.7283 91.447C85.3523 91.111 86.0123 90.883 86.7083 90.763C87.4283 90.619 88.1603 90.547 88.9043 90.547C90.2723 90.547 91.5323 90.883 92.6843 91.555C93.8363 92.227 94.7603 93.187 95.4563 94.435C96.1763 95.659 96.5363 97.135 96.5363 98.863Z" fill="#303030"/>
<path d="M102.06 98.479H104.82V99.379H102.06V98.479ZM102.96 96.559H103.92V103.999H102.96V96.559ZM106.743 94.639V103.999H105.783V94.639H106.743ZM109.323 100.639C109.323 100.183 109.223 99.839 109.023 99.607C108.831 99.375 108.539 99.259 108.147 99.259C107.867 99.259 107.619 99.319 107.403 99.439C107.195 99.559 107.031 99.723 106.911 99.931C106.799 100.139 106.743 100.375 106.743 100.639H106.431C106.431 100.199 106.515 99.811 106.683 99.475C106.851 99.131 107.079 98.859 107.367 98.659C107.663 98.459 108.003 98.359 108.387 98.359C108.771 98.359 109.103 98.439 109.383 98.599C109.671 98.759 109.891 98.999 110.043 99.319C110.203 99.639 110.283 100.039 110.283 100.519V103.999H109.323V100.639ZM112.088 96.199C112.088 96.015 112.152 95.859 112.28 95.731C112.416 95.603 112.572 95.539 112.748 95.539C112.932 95.539 113.088 95.603 113.216 95.731C113.344 95.859 113.408 96.015 113.408 96.199C113.408 96.375 113.344 96.531 113.216 96.667C113.088 96.795 112.932 96.859 112.748 96.859C112.572 96.859 112.416 96.795 112.28 96.667C112.152 96.531 112.088 96.375 112.088 96.199ZM112.268 98.479H113.228V103.999H112.268V98.479ZM115.433 102.307C115.545 102.475 115.673 102.631 115.817 102.775C115.961 102.919 116.125 103.035 116.309 103.123C116.501 103.203 116.709 103.243 116.933 103.243C117.205 103.243 117.417 103.183 117.569 103.063C117.729 102.935 117.809 102.763 117.809 102.547C117.809 102.355 117.745 102.195 117.617 102.067C117.497 101.931 117.341 101.819 117.149 101.731C116.957 101.635 116.753 101.547 116.537 101.467C116.297 101.371 116.053 101.259 115.805 101.131C115.565 100.995 115.361 100.823 115.193 100.615C115.033 100.399 114.953 100.131 114.953 99.811C114.953 99.483 115.037 99.211 115.205 98.995C115.381 98.779 115.605 98.619 115.877 98.515C116.157 98.411 116.445 98.359 116.741 98.359C117.037 98.359 117.313 98.407 117.569 98.503C117.833 98.599 118.065 98.727 118.265 98.887C118.465 99.047 118.621 99.231 118.733 99.439L117.965 99.931C117.813 99.723 117.621 99.551 117.389 99.415C117.165 99.279 116.909 99.211 116.621 99.211C116.421 99.211 116.249 99.255 116.105 99.343C115.961 99.431 115.889 99.567 115.889 99.751C115.889 99.895 115.945 100.023 116.057 100.135C116.169 100.247 116.313 100.347 116.489 100.435C116.665 100.523 116.849 100.607 117.041 100.687C117.361 100.815 117.653 100.955 117.917 101.107C118.181 101.251 118.389 101.427 118.541 101.635C118.701 101.843 118.781 102.111 118.781 102.439C118.781 102.919 118.605 103.319 118.253 103.639C117.909 103.959 117.453 104.119 116.885 104.119C116.517 104.119 116.185 104.055 115.889 103.927C115.593 103.791 115.341 103.619 115.133 103.411C114.933 103.203 114.781 102.991 114.677 102.775L115.433 102.307ZM122.802 98.479H123.882L125.262 102.067L126.762 98.059L128.37 102.091L129.762 98.479H130.842L128.442 104.419L126.774 100.399L125.202 104.419L122.802 98.479ZM133.759 104.119C133.247 104.119 132.791 103.999 132.391 103.759C131.999 103.511 131.691 103.171 131.467 102.739C131.251 102.307 131.143 101.807 131.143 101.239C131.143 100.663 131.255 100.159 131.479 99.727C131.711 99.295 132.031 98.959 132.439 98.719C132.855 98.479 133.335 98.359 133.879 98.359C134.423 98.359 134.887 98.475 135.271 98.707C135.663 98.931 135.963 99.255 136.171 99.679C136.379 100.103 136.483 100.607 136.483 101.191C136.483 101.247 136.479 101.307 136.471 101.371C136.471 101.427 136.471 101.463 136.471 101.479H131.755V100.663H135.715L135.331 101.215C135.355 101.175 135.379 101.115 135.403 101.035C135.427 100.947 135.439 100.875 135.439 100.819C135.439 100.491 135.371 100.207 135.235 99.967C135.107 99.727 134.927 99.539 134.695 99.403C134.463 99.267 134.191 99.199 133.879 99.199C133.511 99.199 133.195 99.279 132.931 99.439C132.675 99.591 132.475 99.815 132.331 100.111C132.195 100.399 132.123 100.755 132.115 101.179C132.115 101.611 132.183 101.979 132.319 102.283C132.455 102.587 132.655 102.819 132.919 102.979C133.183 103.139 133.503 103.219 133.879 103.219C134.255 103.219 134.587 103.139 134.875 102.979C135.163 102.811 135.407 102.559 135.607 102.223L136.387 102.715C136.099 103.179 135.735 103.531 135.295 103.771C134.863 104.003 134.351 104.119 133.759 104.119ZM139.934 104.119C139.422 104.119 138.966 103.999 138.566 103.759C138.174 103.511 137.866 103.171 137.642 102.739C137.426 102.307 137.318 101.807 137.318 101.239C137.318 100.663 137.43 100.159 137.654 99.727C137.886 99.295 138.206 98.959 138.614 98.719C139.03 98.479 139.51 98.359 140.054 98.359C140.598 98.359 141.062 98.475 141.446 98.707C141.838 98.931 142.138 99.255 142.346 99.679C142.554 100.103 142.658 100.607 142.658 101.191C142.658 101.247 142.654 101.307 142.646 101.371C142.646 101.427 142.646 101.463 142.646 101.479H137.93V100.663H141.89L141.506 101.215C141.53 101.175 141.554 101.115 141.578 101.035C141.602 100.947 141.614 100.875 141.614 100.819C141.614 100.491 141.546 100.207 141.41 99.967C141.282 99.727 141.102 99.539 140.87 99.403C140.638 99.267 140.366 99.199 140.054 99.199C139.686 99.199 139.37 99.279 139.106 99.439C138.85 99.591 138.65 99.815 138.506 100.111C138.37 100.399 138.298 100.755 138.29 101.179C138.29 101.611 138.358 101.979 138.494 102.283C138.63 102.587 138.83 102.819 139.094 102.979C139.358 103.139 139.678 103.219 140.054 103.219C140.43 103.219 140.762 103.139 141.05 102.979C141.338 102.811 141.582 102.559 141.782 102.223L142.562 102.715C142.274 103.179 141.91 103.531 141.47 103.771C141.038 104.003 140.526 104.119 139.934 104.119ZM143.914 94.639H144.874V103.999H143.914V94.639ZM146.914 98.479H148.114L145.714 100.759L148.354 103.999H147.154L144.514 100.759L146.914 98.479Z" fill="#9A9A9A"/>
<path d="M352.86 106.549C352.86 105.849 352.725 105.234 352.455 104.704C352.185 104.174 351.81 103.759 351.33 103.459C350.86 103.159 350.325 103.009 349.725 103.009C349.465 103.009 349.2 103.044 348.93 103.114C348.67 103.174 348.415 103.269 348.165 103.399L348.87 100.624H352.83V99.499H347.88L346.5 105.094C346.86 104.844 347.175 104.654 347.445 104.524C347.725 104.384 348 104.289 348.27 104.239C348.55 104.179 348.855 104.149 349.185 104.149C349.635 104.149 350.035 104.249 350.385 104.449C350.745 104.649 351.025 104.929 351.225 105.289C351.435 105.649 351.54 106.069 351.54 106.549C351.54 107.029 351.445 107.449 351.255 107.809C351.075 108.169 350.81 108.449 350.46 108.649C350.11 108.849 349.685 108.949 349.185 108.949C348.805 108.949 348.44 108.869 348.09 108.709C347.74 108.539 347.43 108.324 347.16 108.064C346.9 107.794 346.69 107.509 346.53 107.209L345.45 107.944C345.68 108.344 345.96 108.714 346.29 109.054C346.63 109.384 347.035 109.649 347.505 109.849C347.985 110.049 348.545 110.149 349.185 110.149C349.695 110.149 350.17 110.074 350.61 109.924C351.05 109.774 351.44 109.549 351.78 109.249C352.12 108.949 352.385 108.574 352.575 108.124C352.765 107.674 352.86 107.149 352.86 106.549ZM355.342 104.749C355.342 104.139 355.402 103.579 355.522 103.069C355.642 102.549 355.817 102.104 356.047 101.734C356.277 101.354 356.552 101.064 356.872 100.864C357.202 100.654 357.567 100.549 357.967 100.549C358.377 100.549 358.742 100.654 359.062 100.864C359.382 101.064 359.657 101.354 359.887 101.734C360.117 102.104 360.292 102.549 360.412 103.069C360.532 103.579 360.592 104.139 360.592 104.749C360.592 105.359 360.532 105.924 360.412 106.444C360.292 106.954 360.117 107.399 359.887 107.779C359.657 108.149 359.382 108.439 359.062 108.649C358.742 108.849 358.377 108.949 357.967 108.949C357.567 108.949 357.202 108.849 356.872 108.649C356.552 108.439 356.277 108.149 356.047 107.779C355.817 107.399 355.642 106.954 355.522 106.444C355.402 105.924 355.342 105.359 355.342 104.749ZM354.067 104.749C354.067 105.799 354.232 106.729 354.562 107.539C354.892 108.349 355.347 108.989 355.927 109.459C356.517 109.919 357.197 110.149 357.967 110.149C358.737 110.149 359.412 109.919 359.992 109.459C360.582 108.989 361.042 108.349 361.372 107.539C361.702 106.729 361.867 105.799 361.867 104.749C361.867 103.699 361.702 102.769 361.372 101.959C361.042 101.149 360.582 100.514 359.992 100.054C359.412 99.584 358.737 99.349 357.967 99.349C357.197 99.349 356.517 99.584 355.927 100.054C355.347 100.514 354.892 101.149 354.562 101.959C354.232 102.769 354.067 103.699 354.067 104.749ZM362.986 101.749C362.986 102.189 363.081 102.594 363.271 102.964C363.471 103.324 363.751 103.614 364.111 103.834C364.471 104.044 364.886 104.149 365.356 104.149C365.836 104.149 366.251 104.044 366.601 103.834C366.961 103.614 367.236 103.324 367.426 102.964C367.626 102.594 367.726 102.189 367.726 101.749C367.726 101.299 367.626 100.894 367.426 100.534C367.236 100.174 366.961 99.889 366.601 99.679C366.251 99.459 365.836 99.349 365.356 99.349C364.886 99.349 364.471 99.459 364.111 99.679C363.751 99.889 363.471 100.174 363.271 100.534C363.081 100.894 362.986 101.299 362.986 101.749ZM364.051 101.749C364.051 101.489 364.101 101.254 364.201 101.044C364.311 100.824 364.461 100.649 364.651 100.519C364.851 100.389 365.086 100.324 365.356 100.324C365.636 100.324 365.871 100.389 366.061 100.519C366.251 100.649 366.396 100.824 366.496 101.044C366.606 101.254 366.661 101.489 366.661 101.749C366.661 101.999 366.606 102.234 366.496 102.454C366.396 102.674 366.251 102.849 366.061 102.979C365.871 103.109 365.636 103.174 365.356 103.174C365.086 103.174 364.851 103.109 364.651 102.979C364.461 102.849 364.311 102.674 364.201 102.454C364.101 102.234 364.051 101.999 364.051 101.749ZM368.461 107.749C368.461 108.189 368.556 108.594 368.746 108.964C368.946 109.324 369.226 109.614 369.586 109.834C369.946 110.044 370.361 110.149 370.831 110.149C371.311 110.149 371.726 110.044 372.076 109.834C372.436 109.614 372.711 109.324 372.901 108.964C373.101 108.594 373.201 108.189 373.201 107.749C373.201 107.299 373.101 106.894 372.901 106.534C372.711 106.174 372.436 105.889 372.076 105.679C371.726 105.459 371.311 105.349 370.831 105.349C370.361 105.349 369.946 105.459 369.586 105.679C369.226 105.889 368.946 106.174 368.746 106.534C368.556 106.894 368.461 107.299 368.461 107.749ZM369.526 107.749C369.526 107.489 369.576 107.254 369.676 107.044C369.786 106.824 369.936 106.649 370.126 106.519C370.326 106.389 370.561 106.324 370.831 106.324C371.111 106.324 371.346 106.389 371.536 106.519C371.726 106.649 371.871 106.824 371.971 107.044C372.081 107.254 372.136 107.489 372.136 107.749C372.136 107.999 372.081 108.234 371.971 108.454C371.871 108.674 371.726 108.849 371.536 108.979C371.346 109.109 371.111 109.174 370.831 109.174C370.561 109.174 370.326 109.109 370.126 108.979C369.936 108.849 369.786 108.674 369.676 108.454C369.576 108.234 369.526 107.999 369.526 107.749ZM370.906 99.499L364.156 109.999H365.281L372.031 99.499H370.906Z" fill="#303030"/>
<path d="M267.965 91.549C267.965 91.069 268.065 90.644 268.265 90.274C268.475 89.894 268.755 89.599 269.105 89.389C269.465 89.179 269.87 89.074 270.32 89.074C270.77 89.074 271.17 89.179 271.52 89.389C271.88 89.599 272.16 89.894 272.36 90.274C272.57 90.644 272.675 91.069 272.675 91.549C272.675 92.029 272.57 92.454 272.36 92.824C272.16 93.184 271.88 93.469 271.52 93.679C271.17 93.889 270.77 93.994 270.32 93.994C269.87 93.994 269.465 93.889 269.105 93.679C268.755 93.469 268.475 93.184 268.265 92.824C268.065 92.454 267.965 92.029 267.965 91.549ZM270.95 84.499L267.41 89.374C267.21 89.654 267.05 89.979 266.93 90.349C266.81 90.719 266.75 91.119 266.75 91.549C266.75 92.269 266.905 92.899 267.215 93.439C267.535 93.979 267.965 94.399 268.505 94.699C269.045 94.999 269.65 95.149 270.32 95.149C271 95.149 271.605 94.999 272.135 94.699C272.675 94.399 273.1 93.979 273.41 93.439C273.73 92.899 273.89 92.269 273.89 91.549C273.89 91.069 273.81 90.624 273.65 90.214C273.49 89.794 273.265 89.429 272.975 89.119C272.695 88.809 272.365 88.569 271.985 88.399C271.615 88.229 271.215 88.144 270.785 88.144C270.445 88.144 270.14 88.184 269.87 88.264C269.61 88.344 269.38 88.509 269.18 88.759L269.27 88.834L272.555 84.499H270.95ZM276.518 89.749C276.518 89.139 276.578 88.579 276.698 88.069C276.818 87.549 276.993 87.104 277.223 86.734C277.453 86.354 277.728 86.064 278.048 85.864C278.378 85.654 278.743 85.549 279.143 85.549C279.553 85.549 279.918 85.654 280.238 85.864C280.558 86.064 280.833 86.354 281.063 86.734C281.293 87.104 281.468 87.549 281.588 88.069C281.708 88.579 281.768 89.139 281.768 89.749C281.768 90.359 281.708 90.924 281.588 91.444C281.468 91.954 281.293 92.399 281.063 92.779C280.833 93.149 280.558 93.439 280.238 93.649C279.918 93.849 279.553 93.949 279.143 93.949C278.743 93.949 278.378 93.849 278.048 93.649C277.728 93.439 277.453 93.149 277.223 92.779C276.993 92.399 276.818 91.954 276.698 91.444C276.578 90.924 276.518 90.359 276.518 89.749ZM275.243 89.749C275.243 90.799 275.408 91.729 275.738 92.539C276.068 93.349 276.523 93.989 277.103 94.459C277.693 94.919 278.373 95.149 279.143 95.149C279.913 95.149 280.588 94.919 281.168 94.459C281.758 93.989 282.218 93.349 282.548 92.539C282.878 91.729 283.043 90.799 283.043 89.749C283.043 88.699 282.878 87.769 282.548 86.959C282.218 86.149 281.758 85.514 281.168 85.054C280.588 84.584 279.913 84.349 279.143 84.349C278.373 84.349 277.693 84.584 277.103 85.054C276.523 85.514 276.068 86.149 275.738 86.959C275.408 87.769 275.243 88.699 275.243 89.749ZM284.162 86.749C284.162 87.189 284.257 87.594 284.447 87.964C284.647 88.324 284.927 88.614 285.287 88.834C285.647 89.044 286.062 89.149 286.532 89.149C287.012 89.149 287.427 89.044 287.777 88.834C288.137 88.614 288.412 88.324 288.602 87.964C288.802 87.594 288.902 87.189 288.902 86.749C288.902 86.299 288.802 85.894 288.602 85.534C288.412 85.174 288.137 84.889 287.777 84.679C287.427 84.459 287.012 84.349 286.532 84.349C286.062 84.349 285.647 84.459 285.287 84.679C284.927 84.889 284.647 85.174 284.447 85.534C284.257 85.894 284.162 86.299 284.162 86.749ZM285.227 86.749C285.227 86.489 285.277 86.254 285.377 86.044C285.487 85.824 285.637 85.649 285.827 85.519C286.027 85.389 286.262 85.324 286.532 85.324C286.812 85.324 287.047 85.389 287.237 85.519C287.427 85.649 287.572 85.824 287.672 86.044C287.782 86.254 287.837 86.489 287.837 86.749C287.837 86.999 287.782 87.234 287.672 87.454C287.572 87.674 287.427 87.849 287.237 87.979C287.047 88.109 286.812 88.174 286.532 88.174C286.262 88.174 286.027 88.109 285.827 87.979C285.637 87.849 285.487 87.674 285.377 87.454C285.277 87.234 285.227 86.999 285.227 86.749ZM289.637 92.749C289.637 93.189 289.732 93.594 289.922 93.964C290.122 94.324 290.402 94.614 290.762 94.834C291.122 95.044 291.537 95.149 292.007 95.149C292.487 95.149 292.902 95.044 293.252 94.834C293.612 94.614 293.887 94.324 294.077 93.964C294.277 93.594 294.377 93.189 294.377 92.749C294.377 92.299 294.277 91.894 294.077 91.534C293.887 91.174 293.612 90.889 293.252 90.679C292.902 90.459 292.487 90.349 292.007 90.349C291.537 90.349 291.122 90.459 290.762 90.679C290.402 90.889 290.122 91.174 289.922 91.534C289.732 91.894 289.637 92.299 289.637 92.749ZM290.702 92.749C290.702 92.489 290.752 92.254 290.852 92.044C290.962 91.824 291.112 91.649 291.302 91.519C291.502 91.389 291.737 91.324 292.007 91.324C292.287 91.324 292.522 91.389 292.712 91.519C292.902 91.649 293.047 91.824 293.147 92.044C293.257 92.254 293.312 92.489 293.312 92.749C293.312 92.999 293.257 93.234 293.147 93.454C293.047 93.674 292.902 93.849 292.712 93.979C292.522 94.109 292.287 94.174 292.007 94.174C291.737 94.174 291.502 94.109 291.302 93.979C291.112 93.849 290.962 93.674 290.852 93.454C290.752 93.234 290.702 92.999 290.702 92.749ZM292.082 84.499L285.332 94.999H286.457L293.207 84.499H292.082Z" fill="#303030"/>
<path d="M184.3 123.899H192.295V122.774H190.15H189.895H186.4L189.37 118.334V123.194V123.359V125.999H190.645V115.499H190.12L184.3 123.899ZM194.62 120.749C194.62 120.139 194.68 119.579 194.8 119.069C194.92 118.549 195.095 118.104 195.325 117.734C195.555 117.354 195.83 117.064 196.15 116.864C196.48 116.654 196.845 116.549 197.245 116.549C197.655 116.549 198.02 116.654 198.34 116.864C198.66 117.064 198.935 117.354 199.165 117.734C199.395 118.104 199.57 118.549 199.69 119.069C199.81 119.579 199.87 120.139 199.87 120.749C199.87 121.359 199.81 121.924 199.69 122.444C199.57 122.954 199.395 123.399 199.165 123.779C198.935 124.149 198.66 124.439 198.34 124.649C198.02 124.849 197.655 124.949 197.245 124.949C196.845 124.949 196.48 124.849 196.15 124.649C195.83 124.439 195.555 124.149 195.325 123.779C195.095 123.399 194.92 122.954 194.8 122.444C194.68 121.924 194.62 121.359 194.62 120.749ZM193.345 120.749C193.345 121.799 193.51 122.729 193.84 123.539C194.17 124.349 194.625 124.989 195.205 125.459C195.795 125.919 196.475 126.149 197.245 126.149C198.015 126.149 198.69 125.919 199.27 125.459C199.86 124.989 200.32 124.349 200.65 123.539C200.98 122.729 201.145 121.799 201.145 120.749C201.145 119.699 200.98 118.769 200.65 117.959C200.32 117.149 199.86 116.514 199.27 116.054C198.69 115.584 198.015 115.349 197.245 115.349C196.475 115.349 195.795 115.584 195.205 116.054C194.625 116.514 194.17 117.149 193.84 117.959C193.51 118.769 193.345 119.699 193.345 120.749ZM202.264 117.749C202.264 118.189 202.359 118.594 202.549 118.964C202.749 119.324 203.029 119.614 203.389 119.834C203.749 120.044 204.164 120.149 204.634 120.149C205.114 120.149 205.529 120.044 205.879 119.834C206.239 119.614 206.514 119.324 206.704 118.964C206.904 118.594 207.004 118.189 207.004 117.749C207.004 117.299 206.904 116.894 206.704 116.534C206.514 116.174 206.239 115.889 205.879 115.679C205.529 115.459 205.114 115.349 204.634 115.349C204.164 115.349 203.749 115.459 203.389 115.679C203.029 115.889 202.749 116.174 202.549 116.534C202.359 116.894 202.264 117.299 202.264 117.749ZM203.329 117.749C203.329 117.489 203.379 117.254 203.479 117.044C203.589 116.824 203.739 116.649 203.929 116.519C204.129 116.389 204.364 116.324 204.634 116.324C204.914 116.324 205.149 116.389 205.339 116.519C205.529 116.649 205.674 116.824 205.774 117.044C205.884 117.254 205.939 117.489 205.939 117.749C205.939 117.999 205.884 118.234 205.774 118.454C205.674 118.674 205.529 118.849 205.339 118.979C205.149 119.109 204.914 119.174 204.634 119.174C204.364 119.174 204.129 119.109 203.929 118.979C203.739 118.849 203.589 118.674 203.479 118.454C203.379 118.234 203.329 117.999 203.329 117.749ZM207.739 123.749C207.739 124.189 207.834 124.594 208.024 124.964C208.224 125.324 208.504 125.614 208.864 125.834C209.224 126.044 209.639 126.149 210.109 126.149C210.589 126.149 211.004 126.044 211.354 125.834C211.714 125.614 211.989 125.324 212.179 124.964C212.379 124.594 212.479 124.189 212.479 123.749C212.479 123.299 212.379 122.894 212.179 122.534C211.989 122.174 211.714 121.889 211.354 121.679C211.004 121.459 210.589 121.349 210.109 121.349C209.639 121.349 209.224 121.459 208.864 121.679C208.504 121.889 208.224 122.174 208.024 122.534C207.834 122.894 207.739 123.299 207.739 123.749ZM208.804 123.749C208.804 123.489 208.854 123.254 208.954 123.044C209.064 122.824 209.214 122.649 209.404 122.519C209.604 122.389 209.839 122.324 210.109 122.324C210.389 122.324 210.624 122.389 210.814 122.519C211.004 122.649 211.149 122.824 211.249 123.044C211.359 123.254 211.414 123.489 211.414 123.749C211.414 123.999 211.359 124.234 211.249 124.454C211.149 124.674 211.004 124.849 210.814 124.979C210.624 125.109 210.389 125.174 210.109 125.174C209.839 125.174 209.604 125.109 209.404 124.979C209.214 124.849 209.064 124.674 208.954 124.454C208.854 124.234 208.804 123.999 208.804 123.749ZM210.184 115.499L203.434 125.999H204.559L211.309 115.499H210.184Z" fill="#303030"/>
<path d="M97.2001 176.569L99.5251 175.879V184.999H100.8V174.349L97.2001 175.249V176.569ZM104.628 179.749C104.628 179.139 104.688 178.579 104.808 178.069C104.928 177.549 105.103 177.104 105.333 176.734C105.563 176.354 105.838 176.064 106.158 175.864C106.488 175.654 106.853 175.549 107.253 175.549C107.663 175.549 108.028 175.654 108.348 175.864C108.668 176.064 108.943 176.354 109.173 176.734C109.403 177.104 109.578 177.549 109.698 178.069C109.818 178.579 109.878 179.139 109.878 179.749C109.878 180.359 109.818 180.924 109.698 181.444C109.578 181.954 109.403 182.399 109.173 182.779C108.943 183.149 108.668 183.439 108.348 183.649C108.028 183.849 107.663 183.949 107.253 183.949C106.853 183.949 106.488 183.849 106.158 183.649C105.838 183.439 105.563 183.149 105.333 182.779C105.103 182.399 104.928 181.954 104.808 181.444C104.688 180.924 104.628 180.359 104.628 179.749ZM103.353 179.749C103.353 180.799 103.518 181.729 103.848 182.539C104.178 183.349 104.633 183.989 105.213 184.459C105.803 184.919 106.483 185.149 107.253 185.149C108.023 185.149 108.698 184.919 109.278 184.459C109.868 183.989 110.328 183.349 110.658 182.539C110.988 181.729 111.153 180.799 111.153 179.749C111.153 178.699 110.988 177.769 110.658 176.959C110.328 176.149 109.868 175.514 109.278 175.054C108.698 174.584 108.023 174.349 107.253 174.349C106.483 174.349 105.803 174.584 105.213 175.054C104.633 175.514 104.178 176.149 103.848 176.959C103.518 177.769 103.353 178.699 103.353 179.749ZM112.272 176.749C112.272 177.189 112.367 177.594 112.557 177.964C112.757 178.324 113.037 178.614 113.397 178.834C113.757 179.044 114.172 179.149 114.642 179.149C115.122 179.149 115.537 179.044 115.887 178.834C116.247 178.614 116.522 178.324 116.712 177.964C116.912 177.594 117.012 177.189 117.012 176.749C117.012 176.299 116.912 175.894 116.712 175.534C116.522 175.174 116.247 174.889 115.887 174.679C115.537 174.459 115.122 174.349 114.642 174.349C114.172 174.349 113.757 174.459 113.397 174.679C113.037 174.889 112.757 175.174 112.557 175.534C112.367 175.894 112.272 176.299 112.272 176.749ZM113.337 176.749C113.337 176.489 113.387 176.254 113.487 176.044C113.597 175.824 113.747 175.649 113.937 175.519C114.137 175.389 114.372 175.324 114.642 175.324C114.922 175.324 115.157 175.389 115.347 175.519C115.537 175.649 115.682 175.824 115.782 176.044C115.892 176.254 115.947 176.489 115.947 176.749C115.947 176.999 115.892 177.234 115.782 177.454C115.682 177.674 115.537 177.849 115.347 177.979C115.157 178.109 114.922 178.174 114.642 178.174C114.372 178.174 114.137 178.109 113.937 177.979C113.747 177.849 113.597 177.674 113.487 177.454C113.387 177.234 113.337 176.999 113.337 176.749ZM117.747 182.749C117.747 183.189 117.842 183.594 118.032 183.964C118.232 184.324 118.512 184.614 118.872 184.834C119.232 185.044 119.647 185.149 120.117 185.149C120.597 185.149 121.012 185.044 121.362 184.834C121.722 184.614 121.997 184.324 122.187 183.964C122.387 183.594 122.487 183.189 122.487 182.749C122.487 182.299 122.387 181.894 122.187 181.534C121.997 181.174 121.722 180.889 121.362 180.679C121.012 180.459 120.597 180.349 120.117 180.349C119.647 180.349 119.232 180.459 118.872 180.679C118.512 180.889 118.232 181.174 118.032 181.534C117.842 181.894 117.747 182.299 117.747 182.749ZM118.812 182.749C118.812 182.489 118.862 182.254 118.962 182.044C119.072 181.824 119.222 181.649 119.412 181.519C119.612 181.389 119.847 181.324 120.117 181.324C120.397 181.324 120.632 181.389 120.822 181.519C121.012 181.649 121.157 181.824 121.257 182.044C121.367 182.254 121.422 182.489 121.422 182.749C121.422 182.999 121.367 183.234 121.257 183.454C121.157 183.674 121.012 183.849 120.822 183.979C120.632 184.109 120.397 184.174 120.117 184.174C119.847 184.174 119.612 184.109 119.412 183.979C119.222 183.849 119.072 183.674 118.962 183.454C118.862 183.234 118.812 182.999 118.812 182.749ZM120.192 174.499L113.442 184.999H114.567L121.317 174.499H120.192Z" fill="#303030"/>
<path d="M132.816 197.035C96.9504 224.42 69.7954 171.303 60 137.999V231.499H367V150.999C363.498 149.443 360.497 146.862 357.984 143.859C348.961 133.077 344.975 118.462 334.891 108.665C313.378 87.7628 296.48 94.7663 286.5 103.499C274.5 113.999 250 137.999 210.5 137.999C186.544 137.999 166.056 156.198 153.697 171.901C146.933 180.495 141.509 190.398 132.816 197.035Z" fill="url(#paint1_linear_1_953)"/>
<path d="M61 138.04C70.8473 171.521 98.2386 225.024 134.387 196.634C142.608 190.177 147.831 180.768 154.248 172.516C166.557 156.686 187.252 138.04 211.5 138.04C251 138.04 275.5 114.04 287.5 103.54C296.415 95.739 310.85 89.318 329.164 102.935C345.156 114.826 348.619 139.33 365.594 149.768C366.368 150.244 367.17 150.671 368 151.04" stroke="#2EB4E3" stroke-width="3" stroke-linecap="round"/>
<circle cx="197" cy="140.999" r="8.5" fill="#F3F4F4" stroke="#2EB4E3" stroke-width="3"/>
<circle cx="279" cy="109.999" r="8.5" fill="#F3F4F4" stroke="#2EB4E3" stroke-width="3"/>
<circle cx="112" cy="200.999" r="8.5" fill="#F3F4F4" stroke="#2EB4E3" stroke-width="3"/>
<circle cx="351" cy="129.999" r="8.5" fill="#F3F4F4" stroke="#2EB4E3" stroke-width="3"/>
<defs>
<filter id="filter0_bdi_1_953" x="0.263306" y="-6.53028" width="422.901" height="298.325" filterUnits="userSpaceOnUse" color-interpolation-filters="sRGB">
<feFlood flood-opacity="0" result="BackgroundImageFix"/>
<feGaussianBlur in="BackgroundImageFix" stdDeviation="10.7192"/>
<feComposite in2="SourceAlpha" operator="in" result="effect1_backgroundBlur_1_953"/>
<feColorMatrix in="SourceAlpha" type="matrix" values="0 0 0 0 0 0 0 0 0 0 0 0 0 0 0 0 0 0 127 0" result="hardAlpha"/>
<feOffset dy="14"/>
<feGaussianBlur stdDeviation="14"/>
<feComposite in2="hardAlpha" operator="out"/>
<feColorMatrix type="matrix" values="0 0 0 0 0.804167 0 0 0 0 0.804167 0 0 0 0 0.804167 0 0 0 0.25 0"/>
<feBlend mode="normal" in2="effect1_backgroundBlur_1_953" result="effect2_dropShadow_1_953"/>
<feBlend mode="normal" in="SourceGraphic" in2="effect2_dropShadow_1_953" result="shape"/>
<feColorMatrix in="SourceAlpha" type="matrix" values="0 0 0 0 0 0 0 0 0 0 0 0 0 0 0 0 0 0 127 0" result="hardAlpha"/>
<feOffset dx="-2.57262" dy="2.57262"/>
<feComposite in2="hardAlpha" operator="arithmetic" k2="-1" k3="1"/>
<feColorMatrix type="matrix" values="0 0 0 0 1 0 0 0 0 1 0 0 0 0 1 0 0 0 1 0"/>
<feBlend mode="normal" in2="shape" result="effect3_innerShadow_1_953"/>
</filter>
<linearGradient id="paint0_linear_1_953" x1="360.936" y1="102.774" x2="50.2268" y2="47.1488" gradientUnits="userSpaceOnUse">
<stop stop-color="#F4F4F4"/>
<stop offset="0.421875" stop-color="#F4F4F4"/>
<stop offset="1" stop-color="white"/>
</linearGradient>
<linearGradient id="paint1_linear_1_953" x1="214" y1="115.499" x2="221.5" y2="289.499" gradientUnits="userSpaceOnUse">
<stop stop-color="#47CFFF"/>
<stop offset="1" stop-color="white" stop-opacity="0"/>
</linearGradient>
</defs>
</svg>
