<svg width="650" height="142" viewBox="0 0 650 142" fill="none" xmlns="http://www.w3.org/2000/svg">
<g filter="url(#filter0_bdi_1_939)">
<rect x="28.3398" y="19.999" width="592.154" height="79.9123" rx="10" transform="rotate(-0.561514 28.3398 19.999)" fill="url(#paint0_linear_1_939)" fill-opacity="0.93" shape-rendering="crispEdges"/>
</g>
<path d="M62.16 51.179H65.84V62.999H68.22V51.179H71.92V48.999H62.16V51.179ZM72.8259 60.139C72.8259 59.8457 72.8926 59.599 73.0259 59.399C73.1726 59.199 73.3859 59.0457 73.6659 58.939C73.9459 58.819 74.3126 58.759 74.7659 58.759C75.2859 58.759 75.7793 58.8257 76.2459 58.959C76.7126 59.0924 77.1526 59.3057 77.5659 59.599V58.499C77.4459 58.3524 77.2393 58.1924 76.9459 58.019C76.6526 57.8324 76.2793 57.6724 75.8259 57.539C75.3859 57.4057 74.8593 57.339 74.2459 57.339C73.0993 57.339 72.2126 57.6057 71.5859 58.139C70.9593 58.659 70.6459 59.3657 70.6459 60.259C70.6459 60.8857 70.7926 61.419 71.0859 61.859C71.3793 62.299 71.7726 62.6324 72.2659 62.859C72.7593 63.0857 73.2926 63.199 73.8659 63.199C74.3993 63.199 74.9193 63.1057 75.4259 62.919C75.9459 62.719 76.3726 62.4257 76.7059 62.039C77.0526 61.639 77.2259 61.1457 77.2259 60.559L76.9059 59.359C76.9059 59.8124 76.7926 60.2124 76.5659 60.559C76.3526 60.8924 76.0659 61.1457 75.7059 61.319C75.3593 61.4924 74.9726 61.579 74.5459 61.579C74.2126 61.579 73.9126 61.5257 73.6459 61.419C73.3926 61.3124 73.1926 61.1524 73.0459 60.939C72.8993 60.7124 72.8259 60.4457 72.8259 60.139ZM72.1459 56.199C72.2793 56.1057 72.4793 55.9924 72.7459 55.859C73.0259 55.7124 73.3526 55.5924 73.7259 55.499C74.1126 55.3924 74.5193 55.339 74.9459 55.339C75.2259 55.339 75.4859 55.3657 75.7259 55.419C75.9659 55.4724 76.1726 55.559 76.3459 55.679C76.5193 55.799 76.6526 55.9524 76.7459 56.139C76.8526 56.3257 76.9059 56.5657 76.9059 56.859V62.999H79.0259V56.439C79.0259 55.8257 78.8593 55.3124 78.5259 54.899C78.1926 54.4724 77.7326 54.1457 77.1459 53.919C76.5726 53.6924 75.9059 53.579 75.1459 53.579C74.2926 53.579 73.5326 53.699 72.8659 53.939C72.2126 54.179 71.6793 54.4257 71.2659 54.679L72.1459 56.199ZM81.9641 59.979L80.7041 61.239C80.9707 61.5857 81.2974 61.919 81.6841 62.239C82.0841 62.5457 82.5441 62.799 83.0641 62.999C83.5974 63.1857 84.1774 63.279 84.8041 63.279C85.8174 63.279 86.6174 63.019 87.2041 62.499C87.8041 61.9657 88.1041 61.2657 88.1041 60.399C88.1041 59.839 87.9707 59.3857 87.7041 59.039C87.4507 58.6924 87.1107 58.399 86.6841 58.159C86.2574 57.919 85.7907 57.699 85.2841 57.499C84.9107 57.3524 84.5707 57.2124 84.2641 57.079C83.9707 56.9457 83.7307 56.799 83.5441 56.639C83.3707 56.4657 83.2841 56.2724 83.2841 56.059C83.2841 55.8057 83.3841 55.6124 83.5841 55.479C83.7841 55.3457 84.0374 55.279 84.3441 55.279C84.7974 55.279 85.2374 55.3924 85.6641 55.619C86.0907 55.8457 86.4574 56.139 86.7641 56.499L87.9641 55.219C87.7107 54.9124 87.4041 54.639 87.0441 54.399C86.6841 54.159 86.2774 53.9657 85.8241 53.819C85.3841 53.6724 84.9107 53.599 84.4041 53.599C83.8441 53.599 83.3174 53.6924 82.8241 53.879C82.3441 54.0524 81.9574 54.3257 81.6641 54.699C81.3841 55.0724 81.2441 55.539 81.2441 56.099C81.2441 56.6457 81.3707 57.099 81.6241 57.459C81.8907 57.819 82.2241 58.1124 82.6241 58.339C83.0374 58.5524 83.4507 58.739 83.8641 58.899C84.2774 59.0457 84.6374 59.1924 84.9441 59.339C85.2507 59.4724 85.4907 59.639 85.6641 59.839C85.8374 60.0257 85.9241 60.2524 85.9241 60.519C85.9241 60.8257 85.8107 61.0657 85.5841 61.239C85.3707 61.4124 85.0707 61.499 84.6841 61.499C84.3774 61.499 84.0707 61.4457 83.7641 61.339C83.4574 61.219 83.1507 61.0457 82.8441 60.819C82.5507 60.579 82.2574 60.299 81.9641 59.979ZM89.9406 47.399V62.999H92.0606V47.399H89.9406ZM95.4406 53.799L91.4606 57.599L95.8606 62.999H98.4806L94.1206 57.599L98.0806 53.799H95.4406ZM107.779 59.399H115.179L114.719 57.399H108.219L107.779 59.399ZM111.439 52.959L113.659 58.159L113.719 58.739L115.619 62.999H118.279L111.439 48.219L104.599 62.999H107.259L109.199 58.619L109.239 58.099L111.439 52.959ZM120.148 59.979L118.888 61.239C119.154 61.5857 119.481 61.919 119.868 62.239C120.268 62.5457 120.728 62.799 121.248 62.999C121.781 63.1857 122.361 63.279 122.988 63.279C124.001 63.279 124.801 63.019 125.388 62.499C125.988 61.9657 126.288 61.2657 126.288 60.399C126.288 59.839 126.154 59.3857 125.888 59.039C125.634 58.6924 125.294 58.399 124.868 58.159C124.441 57.919 123.974 57.699 123.468 57.499C123.094 57.3524 122.754 57.2124 122.448 57.079C122.154 56.9457 121.914 56.799 121.728 56.639C121.554 56.4657 121.468 56.2724 121.468 56.059C121.468 55.8057 121.568 55.6124 121.768 55.479C121.968 55.3457 122.221 55.279 122.528 55.279C122.981 55.279 123.421 55.3924 123.848 55.619C124.274 55.8457 124.641 56.139 124.948 56.499L126.148 55.219C125.894 54.9124 125.588 54.639 125.228 54.399C124.868 54.159 124.461 53.9657 124.008 53.819C123.568 53.6724 123.094 53.599 122.588 53.599C122.028 53.599 121.501 53.6924 121.008 53.879C120.528 54.0524 120.141 54.3257 119.848 54.699C119.568 55.0724 119.428 55.539 119.428 56.099C119.428 56.6457 119.554 57.099 119.808 57.459C120.074 57.819 120.408 58.1124 120.808 58.339C121.221 58.5524 121.634 58.739 122.048 58.899C122.461 59.0457 122.821 59.1924 123.128 59.339C123.434 59.4724 123.674 59.639 123.848 59.839C124.021 60.0257 124.108 60.2524 124.108 60.519C124.108 60.8257 123.994 61.0657 123.768 61.239C123.554 61.4124 123.254 61.499 122.868 61.499C122.561 61.499 122.254 61.4457 121.948 61.339C121.641 61.219 121.334 61.0457 121.028 60.819C120.734 60.579 120.441 60.299 120.148 59.979ZM128.624 59.979L127.364 61.239C127.631 61.5857 127.958 61.919 128.344 62.239C128.744 62.5457 129.204 62.799 129.724 62.999C130.258 63.1857 130.838 63.279 131.464 63.279C132.478 63.279 133.278 63.019 133.864 62.499C134.464 61.9657 134.764 61.2657 134.764 60.399C134.764 59.839 134.631 59.3857 134.364 59.039C134.111 58.6924 133.771 58.399 133.344 58.159C132.918 57.919 132.451 57.699 131.944 57.499C131.571 57.3524 131.231 57.2124 130.924 57.079C130.631 56.9457 130.391 56.799 130.204 56.639C130.031 56.4657 129.944 56.2724 129.944 56.059C129.944 55.8057 130.044 55.6124 130.244 55.479C130.444 55.3457 130.698 55.279 131.004 55.279C131.458 55.279 131.898 55.3924 132.324 55.619C132.751 55.8457 133.118 56.139 133.424 56.499L134.624 55.219C134.371 54.9124 134.064 54.639 133.704 54.399C133.344 54.159 132.938 53.9657 132.484 53.819C132.044 53.6724 131.571 53.599 131.064 53.599C130.504 53.599 129.978 53.6924 129.484 53.879C129.004 54.0524 128.618 54.3257 128.324 54.699C128.044 55.0724 127.904 55.539 127.904 56.099C127.904 56.6457 128.031 57.099 128.284 57.459C128.551 57.819 128.884 58.1124 129.284 58.339C129.698 58.5524 130.111 58.739 130.524 58.899C130.938 59.0457 131.298 59.1924 131.604 59.339C131.911 59.4724 132.151 59.639 132.324 59.839C132.498 60.0257 132.584 60.2524 132.584 60.519C132.584 60.8257 132.471 61.0657 132.244 61.239C132.031 61.4124 131.731 61.499 131.344 61.499C131.038 61.499 130.731 61.4457 130.424 61.339C130.118 61.219 129.811 61.0457 129.504 60.819C129.211 60.579 128.918 60.299 128.624 59.979ZM136.601 50.139C136.601 50.499 136.734 50.8124 137.001 51.079C137.281 51.3324 137.601 51.459 137.961 51.459C138.347 51.459 138.667 51.3324 138.921 51.079C139.187 50.8124 139.321 50.499 139.321 50.139C139.321 49.7657 139.187 49.4524 138.921 49.199C138.667 48.9457 138.347 48.819 137.961 48.819C137.601 48.819 137.281 48.9457 137.001 49.199C136.734 49.4524 136.601 49.7657 136.601 50.139ZM136.901 53.799V62.999H139.021V53.799H136.901ZM141.473 63.619C141.5 64.419 141.7 65.1257 142.073 65.739C142.46 66.3524 143.007 66.8257 143.713 67.159C144.42 67.5057 145.273 67.679 146.273 67.679C147.113 67.679 147.893 67.499 148.613 67.139C149.333 66.7924 149.913 66.259 150.353 65.539C150.807 64.819 151.033 63.9057 151.033 62.799V53.799H148.913V62.799C148.913 63.4924 148.78 64.059 148.513 64.499C148.26 64.939 147.927 65.2657 147.513 65.479C147.1 65.6924 146.667 65.799 146.213 65.799C145.707 65.799 145.26 65.7057 144.873 65.519C144.487 65.3324 144.18 65.0724 143.953 64.739C143.74 64.4057 143.627 64.0324 143.613 63.619H141.473ZM141.293 58.359C141.293 59.359 141.5 60.2124 141.913 60.919C142.327 61.6257 142.873 62.1657 143.553 62.539C144.247 62.9124 144.987 63.099 145.773 63.099C146.547 63.099 147.22 62.9124 147.793 62.539C148.38 62.1524 148.84 61.6057 149.173 60.899C149.52 60.1924 149.693 59.3457 149.693 58.359C149.693 57.359 149.52 56.5057 149.173 55.799C148.84 55.0924 148.38 54.5524 147.793 54.179C147.22 53.7924 146.547 53.599 145.773 53.599C144.987 53.599 144.247 53.7857 143.553 54.159C142.873 54.5324 142.327 55.0724 141.913 55.779C141.5 56.4724 141.293 57.3324 141.293 58.359ZM143.533 58.359C143.533 57.7324 143.66 57.2057 143.913 56.779C144.167 56.3524 144.5 56.0324 144.913 55.819C145.34 55.5924 145.8 55.479 146.293 55.479C146.6 55.479 146.907 55.539 147.213 55.659C147.533 55.779 147.82 55.9657 148.073 56.219C148.327 56.459 148.527 56.759 148.673 57.119C148.833 57.4657 148.913 57.879 148.913 58.359C148.913 58.9724 148.78 59.499 148.513 59.939C148.26 60.3657 147.927 60.6857 147.513 60.899C147.113 61.1124 146.707 61.219 146.293 61.219C145.8 61.219 145.34 61.1124 144.913 60.899C144.5 60.6724 144.167 60.3457 143.913 59.919C143.66 59.4924 143.533 58.9724 143.533 58.359ZM159.632 57.399V62.999H161.852V57.159C161.852 56.0524 161.579 55.1857 161.032 54.559C160.485 53.919 159.692 53.599 158.652 53.599C158.012 53.599 157.459 53.7324 156.992 53.999C156.539 54.2657 156.165 54.6724 155.872 55.219V53.799H153.712V62.999H155.872V57.399C155.872 56.9857 155.959 56.6257 156.132 56.319C156.305 55.999 156.545 55.759 156.852 55.599C157.159 55.4257 157.512 55.339 157.912 55.339C158.499 55.339 158.932 55.5124 159.212 55.859C159.492 56.2057 159.632 56.719 159.632 57.399ZM168.61 63.199C169.677 63.199 170.59 62.9924 171.35 62.579C172.11 62.1657 172.73 61.5457 173.21 60.719L171.35 59.959C171.057 60.4524 170.69 60.819 170.25 61.059C169.81 61.299 169.297 61.419 168.71 61.419C168.15 61.419 167.67 61.299 167.27 61.059C166.884 60.819 166.59 60.4724 166.39 60.019C166.19 59.5524 166.09 58.9857 166.09 58.319C166.104 57.6524 166.21 57.0924 166.41 56.639C166.61 56.1857 166.904 55.839 167.29 55.599C167.677 55.359 168.144 55.239 168.69 55.239C169.144 55.239 169.537 55.339 169.87 55.539C170.217 55.739 170.484 56.019 170.67 56.379C170.87 56.739 170.97 57.1657 170.97 57.659C170.97 57.7524 170.944 57.8724 170.89 58.019C170.85 58.1524 170.81 58.259 170.77 58.339L171.43 57.419H165.19V58.899H173.27C173.284 58.8457 173.29 58.759 173.29 58.639C173.304 58.519 173.31 58.4057 173.31 58.299C173.31 57.3124 173.124 56.4724 172.75 55.779C172.39 55.0724 171.87 54.5324 171.19 54.159C170.51 53.7857 169.684 53.599 168.71 53.599C167.737 53.599 166.89 53.799 166.17 54.199C165.45 54.5857 164.89 55.139 164.49 55.859C164.104 56.579 163.91 57.4257 163.91 58.399C163.91 59.359 164.104 60.199 164.49 60.919C164.877 61.639 165.424 62.199 166.13 62.599C166.85 62.999 167.677 63.199 168.61 63.199ZM182.292 47.399V62.999H184.472V47.399H182.292ZM174.672 58.399C174.672 59.399 174.879 60.259 175.292 60.979C175.706 61.699 176.252 62.2524 176.932 62.639C177.626 63.0124 178.366 63.199 179.152 63.199C179.926 63.199 180.599 63.0057 181.172 62.619C181.759 62.2324 182.219 61.679 182.552 60.959C182.899 60.239 183.072 59.3857 183.072 58.399C183.072 57.399 182.899 56.5457 182.552 55.839C182.219 55.119 181.759 54.5657 181.172 54.179C180.599 53.7924 179.926 53.599 179.152 53.599C178.366 53.599 177.626 53.7924 176.932 54.179C176.252 54.5524 175.706 55.099 175.292 55.819C174.879 56.5257 174.672 57.3857 174.672 58.399ZM176.912 58.399C176.912 57.7857 177.039 57.259 177.292 56.819C177.546 56.379 177.879 56.0457 178.292 55.819C178.719 55.5924 179.179 55.479 179.672 55.479C180.086 55.479 180.492 55.5924 180.892 55.819C181.306 56.0457 181.639 56.379 181.892 56.819C182.159 57.2457 182.292 57.7724 182.292 58.399C182.292 59.0257 182.159 59.559 181.892 59.999C181.639 60.4257 181.306 60.7524 180.892 60.979C180.492 61.2057 180.086 61.319 179.672 61.319C179.179 61.319 178.719 61.2057 178.292 60.979C177.879 60.7524 177.546 60.419 177.292 59.979C177.039 59.539 176.912 59.0124 176.912 58.399ZM191.926 51.179H195.606V62.999H197.986V51.179H201.686V48.999H191.926V51.179ZM200.532 58.399C200.532 59.3324 200.745 60.1657 201.172 60.899C201.612 61.619 202.205 62.1857 202.952 62.599C203.698 62.999 204.545 63.199 205.492 63.199C206.438 63.199 207.278 62.999 208.012 62.599C208.758 62.1857 209.352 61.619 209.792 60.899C210.232 60.1657 210.452 59.3324 210.452 58.399C210.452 57.4524 210.232 56.619 209.792 55.899C209.352 55.179 208.758 54.619 208.012 54.219C207.278 53.8057 206.438 53.599 205.492 53.599C204.545 53.599 203.698 53.8057 202.952 54.219C202.205 54.619 201.612 55.179 201.172 55.899C200.745 56.619 200.532 57.4524 200.532 58.399ZM202.752 58.399C202.752 57.8257 202.872 57.319 203.112 56.879C203.352 56.439 203.678 56.099 204.092 55.859C204.505 55.619 204.972 55.499 205.492 55.499C205.998 55.499 206.458 55.619 206.872 55.859C207.298 56.099 207.632 56.439 207.872 56.879C208.112 57.319 208.232 57.8257 208.232 58.399C208.232 58.9724 208.112 59.479 207.872 59.919C207.632 60.3457 207.298 60.6857 206.872 60.939C206.458 61.179 205.998 61.299 205.492 61.299C204.972 61.299 204.505 61.179 204.092 60.939C203.678 60.6857 203.352 60.3457 203.112 59.919C202.872 59.479 202.752 58.9724 202.752 58.399ZM221.277 54.479L225.537 61.699L229.797 54.479L230.777 62.999H233.217L231.297 48.299L225.537 57.799L219.797 48.299L217.877 62.999H220.317L221.277 54.479ZM239.333 63.199C240.4 63.199 241.313 62.9924 242.073 62.579C242.833 62.1657 243.453 61.5457 243.933 60.719L242.073 59.959C241.78 60.4524 241.413 60.819 240.973 61.059C240.533 61.299 240.02 61.419 239.433 61.419C238.873 61.419 238.393 61.299 237.993 61.059C237.606 60.819 237.313 60.4724 237.113 60.019C236.913 59.5524 236.813 58.9857 236.813 58.319C236.826 57.6524 236.933 57.0924 237.133 56.639C237.333 56.1857 237.626 55.839 238.013 55.599C238.4 55.359 238.866 55.239 239.413 55.239C239.866 55.239 240.26 55.339 240.593 55.539C240.94 55.739 241.206 56.019 241.393 56.379C241.593 56.739 241.693 57.1657 241.693 57.659C241.693 57.7524 241.666 57.8724 241.613 58.019C241.573 58.1524 241.533 58.259 241.493 58.339L242.153 57.419H235.913V58.899H243.993C244.006 58.8457 244.013 58.759 244.013 58.639C244.026 58.519 244.033 58.4057 244.033 58.299C244.033 57.3124 243.846 56.4724 243.473 55.779C243.113 55.0724 242.593 54.5324 241.913 54.159C241.233 53.7857 240.406 53.599 239.433 53.599C238.46 53.599 237.613 53.799 236.893 54.199C236.173 54.5857 235.613 55.139 235.213 55.859C234.826 56.579 234.633 57.4257 234.633 58.399C234.633 59.359 234.826 60.199 235.213 60.919C235.6 61.639 236.146 62.199 236.853 62.599C237.573 62.999 238.4 63.199 239.333 63.199Z" fill="#303030"/>
<path d="M567.964 49.4164L562.31 55.052L558.923 51.6772L564.577 46.0438C561.424 44.5101 557.002 44.5038 554.384 47.1138C551.922 49.5677 551.614 53.4305 552.813 56.4692L540.246 68.9352C540.168 69.0129 540.106 69.1052 540.064 69.2069C540.022 69.3086 540 69.4176 540 69.5277C540 69.6378 540.022 69.7468 540.064 69.8485C540.106 69.9502 540.168 70.0426 540.246 70.1203L543.89 73.753C543.968 73.831 544.06 73.8928 544.162 73.9351C544.264 73.9773 544.373 73.999 544.483 73.999C544.593 73.999 544.702 73.9773 544.804 73.9351C544.905 73.8928 544.998 73.831 545.075 73.753L557.625 61.1699C560.634 62.3 564.457 61.9814 566.879 59.5665C569.493 56.9558 569.488 52.5716 567.964 49.4164Z" fill="#CFCFCF"/>
<path d="M559.289 63.1684L554.318 68.1882L559.545 73.7601C559.615 73.8343 559.698 73.8937 559.79 73.9347C559.883 73.9757 559.983 73.9976 560.084 73.999C560.185 74.0003 560.285 73.9812 560.379 73.9426C560.472 73.9041 560.557 73.847 560.628 73.7747L564.781 69.5595C564.852 69.4871 564.908 69.4011 564.945 69.3065C564.983 69.212 565.001 69.1109 565 69.0091C564.998 68.9073 564.977 68.8068 564.936 68.7135C564.896 68.6202 564.837 68.5359 564.764 68.4657L559.289 63.1684ZM542.234 56.4322C542.234 56.0927 541.957 55.7817 541.719 55.5412L541.701 55.5245L541.595 55.422C541.588 55.4144 541.583 55.4056 541.58 55.396C541.577 55.3864 541.576 55.3762 541.577 55.3662C541.777 55.2527 542.007 55.204 542.236 55.2268C542.324 55.2358 542.645 55.2895 543.094 55.5691C543.328 55.7148 545.352 57.6767 546.134 58.4066C545.997 58.5511 545.921 58.7438 545.923 58.9437C545.925 59.1436 546.004 59.3349 546.144 59.4768L546.658 60.0248L551.202 55.4812L550.631 54.9346C550.49 54.7933 550.3 54.7135 550.102 54.7128C549.903 54.712 549.713 54.7902 549.571 54.9305C547.979 53.2098 547.564 52.4589 547.426 51.9709C547.12 50.8924 547.712 50.0188 548.395 49.461C548.799 49.1389 549.632 48.8977 550.402 48.8336C550.67 48.8176 550.94 48.8316 551.205 48.8754C551.445 48.9102 551.641 48.9549 551.716 48.973C551.978 49.0439 552.232 49.1372 552.478 49.2519L553.308 47.9272C553.052 47.4782 552.74 47.0636 552.381 46.6932C552.265 46.5709 552.145 46.4523 552.022 46.3376C551.483 45.8391 550.084 44.999 548.244 44.999C547.181 44.9979 546.129 45.2068 545.146 45.6139C542.555 46.6834 540.863 48.1413 540.086 48.9151L540.081 48.92C539.559 49.4487 539.076 50.0152 538.636 50.6149C538.265 51.1399 538.306 51.7192 538.333 52.1027C538.333 52.125 538.333 52.1494 538.337 52.1724C538.12 52.014 537.859 51.9287 537.591 51.9284C537.425 51.9272 537.261 51.9595 537.108 52.0233C536.954 52.0871 536.815 52.1812 536.698 52.3L534.138 54.8719C534.049 54.9607 534 55.081 534 55.2065C534 55.3321 534.049 55.4524 534.138 55.5412L538.497 59.9181C538.585 60.0059 538.703 60.0552 538.826 60.0552C538.949 60.0552 539.068 60.0059 539.155 59.9181L541.719 57.3385C541.957 57.0987 542.234 56.771 542.234 56.4322Z" fill="#CFCFCF"/>
<path d="M476 43.999C466.626 43.999 459 51.6253 459 60.999C459 70.3727 466.626 77.999 476 77.999C485.374 77.999 493 70.3727 493 60.999C493 51.6253 485.374 43.999 476 43.999ZM484.847 55.3016L473.863 68.3785C473.742 68.522 473.592 68.638 473.423 68.7185C473.254 68.799 473.069 68.8422 472.882 68.8452H472.86C472.677 68.8451 472.495 68.8065 472.328 68.7319C472.161 68.6573 472.011 68.5483 471.888 68.412L467.18 63.1812C467.061 63.0544 466.968 62.905 466.907 62.7417C466.846 62.5785 466.818 62.4047 466.825 62.2305C466.832 62.0564 466.874 61.8854 466.949 61.7277C467.023 61.57 467.128 61.4287 467.257 61.3121C467.387 61.1955 467.538 61.106 467.703 61.0488C467.868 60.9917 468.042 60.968 468.216 60.9792C468.39 60.9903 468.56 61.0362 468.716 61.114C468.872 61.1918 469.01 61.3 469.124 61.4322L472.826 65.5449L482.845 53.6196C483.07 53.3597 483.388 53.1988 483.73 53.1715C484.073 53.1442 484.412 53.2527 484.675 53.4737C484.938 53.6947 485.104 54.0103 485.136 54.3523C485.168 54.6944 485.065 55.0353 484.847 55.3016Z" fill="#2FCF3F"/>
<path d="M418 51.8561C418 50.6437 417.518 49.4809 416.661 48.6236C415.804 47.7663 414.641 47.2846 413.429 47.2846H412.286V46.1739C412.286 45.5589 411.813 45.0311 411.198 45.0003C411.043 44.9929 410.889 45.0169 410.744 45.0709C410.599 45.1249 410.466 45.2078 410.354 45.3145C410.242 45.4212 410.153 45.5496 410.092 45.6918C410.031 45.834 410 45.9871 410 46.1418V47.2846H394V46.1739C394 45.5589 393.527 45.0311 392.912 45.0003C392.758 44.9929 392.603 45.0169 392.458 45.0709C392.313 45.1249 392.181 45.2078 392.069 45.3145C391.957 45.4212 391.868 45.5496 391.807 45.6918C391.746 45.834 391.714 45.9871 391.714 46.1418V47.2846H390.571C389.359 47.2846 388.196 47.7663 387.339 48.6236C386.482 49.4809 386 50.6437 386 51.8561V52.7132C386 52.789 386.03 52.8617 386.084 52.9153C386.137 52.9688 386.21 52.9989 386.286 52.9989H417.714C417.79 52.9989 417.863 52.9688 417.916 52.9153C417.97 52.8617 418 52.789 418 52.7132V51.8561ZM386 72.4276C386 73.64 386.482 74.8028 387.339 75.6601C388.196 76.5174 389.359 76.999 390.571 76.999H413.429C414.641 76.999 415.804 76.5174 416.661 75.6601C417.518 74.8028 418 73.64 418 72.4276V55.5704C418 55.4946 417.97 55.4219 417.916 55.3684C417.863 55.3148 417.79 55.2847 417.714 55.2847H386.286C386.21 55.2847 386.137 55.3148 386.084 55.3684C386.03 55.4219 386 55.4946 386 55.5704V72.4276Z" fill="#CFCFCF"/>
<path d="M328 43.999C318.626 43.999 311 51.6253 311 60.999C311 70.3727 318.626 77.999 328 77.999C337.374 77.999 345 70.3727 345 60.999C345 51.6253 337.374 43.999 328 43.999ZM335.846 62.3067H329.308V68.8452H326.692V62.3067H320.154V59.6913H326.692V53.1529H329.308V59.6913H335.846V62.3067Z" fill="#CFCFCF"/>
<defs>
<filter id="filter0_bdi_1_939" x="0.437378" y="-7.14502" width="648.713" height="148.955" filterUnits="userSpaceOnUse" color-interpolation-filters="sRGB">
<feFlood flood-opacity="0" result="BackgroundImageFix"/>
<feGaussianBlur in="BackgroundImageFix" stdDeviation="10.7192"/>
<feComposite in2="SourceAlpha" operator="in" result="effect1_backgroundBlur_1_939"/>
<feColorMatrix in="SourceAlpha" type="matrix" values="0 0 0 0 0 0 0 0 0 0 0 0 0 0 0 0 0 0 127 0" result="hardAlpha"/>
<feOffset dy="14"/>
<feGaussianBlur stdDeviation="14"/>
<feComposite in2="hardAlpha" operator="out"/>
<feColorMatrix type="matrix" values="0 0 0 0 0.804167 0 0 0 0 0.804167 0 0 0 0 0.804167 0 0 0 0.25 0"/>
<feBlend mode="normal" in2="effect1_backgroundBlur_1_939" result="effect2_dropShadow_1_939"/>
<feBlend mode="normal" in="SourceGraphic" in2="effect2_dropShadow_1_939" result="shape"/>
<feColorMatrix in="SourceAlpha" type="matrix" values="0 0 0 0 0 0 0 0 0 0 0 0 0 0 0 0 0 0 127 0" result="hardAlpha"/>
<feOffset dx="-2.57262" dy="2.57262"/>
<feComposite in2="hardAlpha" operator="arithmetic" k2="-1" k3="1"/>
<feColorMatrix type="matrix" values="0 0 0 0 1 0 0 0 0 1 0 0 0 0 1 0 0 0 1 0"/>
<feBlend mode="normal" in2="shape" result="effect3_innerShadow_1_939"/>
</filter>
<linearGradient id="paint0_linear_1_939" x1="568.245" y1="49.14" x2="264" y2="-207.091" gradientUnits="userSpaceOnUse">
<stop stop-color="#F4F4F4"/>
<stop offset="0.421875" stop-color="#F4F4F4"/>
<stop offset="1" stop-color="white"/>
</linearGradient>
</defs>
</svg>
