<svg width="534" height="23" viewBox="0 0 534 23" fill="none" xmlns="http://www.w3.org/2000/svg">
<path d="M1.9493 5.30493V15.8049H7.8893V14.2149H3.7193V5.30493H1.9493ZM12.036 15.9549C12.836 15.9549 13.521 15.7999 14.091 15.4899C14.661 15.1799 15.126 14.7149 15.486 14.0949L14.091 13.5249C13.871 13.8949 13.596 14.1699 13.266 14.3499C12.936 14.5299 12.551 14.6199 12.111 14.6199C11.691 14.6199 11.331 14.5299 11.031 14.3499C10.741 14.1699 10.521 13.9099 10.371 13.5699C10.221 13.2199 10.146 12.7949 10.146 12.2949C10.156 11.7949 10.236 11.3749 10.386 11.0349C10.536 10.6949 10.756 10.4349 11.046 10.2549C11.336 10.0749 11.686 9.98493 12.096 9.98493C12.436 9.98493 12.731 10.0599 12.981 10.2099C13.241 10.3599 13.441 10.5699 13.581 10.8399C13.731 11.1099 13.806 11.4299 13.806 11.7999C13.806 11.8699 13.786 11.9599 13.746 12.0699C13.716 12.1699 13.686 12.2499 13.656 12.3099L14.151 11.6199H9.47098V12.7299H15.531C15.541 12.6899 15.546 12.6249 15.546 12.5349C15.556 12.4449 15.561 12.3599 15.561 12.2799C15.561 11.5399 15.421 10.9099 15.141 10.3899C14.871 9.85993 14.481 9.45493 13.971 9.17493C13.461 8.89493 12.841 8.75493 12.111 8.75493C11.381 8.75493 10.746 8.90493 10.206 9.20493C9.66598 9.49493 9.24598 9.90993 8.94598 10.4499C8.65598 10.9899 8.51098 11.6249 8.51098 12.3549C8.51098 13.0749 8.65598 13.7049 8.94598 14.2449C9.23598 14.7849 9.64598 15.2049 10.176 15.5049C10.716 15.8049 11.336 15.9549 12.036 15.9549ZM18.1273 13.6599C18.1273 13.4399 18.1773 13.2549 18.2773 13.1049C18.3873 12.9549 18.5473 12.8399 18.7573 12.7599C18.9673 12.6699 19.2423 12.6249 19.5823 12.6249C19.9723 12.6249 20.3423 12.6749 20.6923 12.7749C21.0423 12.8749 21.3723 13.0349 21.6823 13.2549V12.4299C21.5923 12.3199 21.4373 12.1999 21.2173 12.0699C20.9973 11.9299 20.7173 11.8099 20.3773 11.7099C20.0473 11.6099 19.6523 11.5599 19.1923 11.5599C18.3323 11.5599 17.6673 11.7599 17.1973 12.1599C16.7273 12.5499 16.4923 13.0799 16.4923 13.7499C16.4923 14.2199 16.6023 14.6199 16.8223 14.9499C17.0423 15.2799 17.3373 15.5299 17.7073 15.6999C18.0773 15.8699 18.4773 15.9549 18.9073 15.9549C19.3073 15.9549 19.6973 15.8849 20.0773 15.7449C20.4673 15.5949 20.7873 15.3749 21.0373 15.0849C21.2973 14.7849 21.4273 14.4149 21.4273 13.9749L21.1873 13.0749C21.1873 13.4149 21.1023 13.7149 20.9323 13.9749C20.7723 14.2249 20.5573 14.4149 20.2873 14.5449C20.0273 14.6749 19.7373 14.7399 19.4173 14.7399C19.1673 14.7399 18.9423 14.6999 18.7423 14.6199C18.5523 14.5399 18.4023 14.4199 18.2923 14.2599C18.1823 14.0899 18.1273 13.8899 18.1273 13.6599ZM17.6173 10.7049C17.7173 10.6349 17.8673 10.5499 18.0673 10.4499C18.2773 10.3399 18.5223 10.2499 18.8023 10.1799C19.0923 10.0999 19.3973 10.0599 19.7173 10.0599C19.9273 10.0599 20.1223 10.0799 20.3023 10.1199C20.4823 10.1599 20.6373 10.2249 20.7673 10.3149C20.8973 10.4049 20.9973 10.5199 21.0673 10.6599C21.1473 10.7999 21.1873 10.9799 21.1873 11.1999V15.8049H22.7773V10.8849C22.7773 10.4249 22.6523 10.0399 22.4023 9.72993C22.1523 9.40993 21.8073 9.16493 21.3673 8.99493C20.9373 8.82493 20.4373 8.73993 19.8673 8.73993C19.2273 8.73993 18.6573 8.82993 18.1573 9.00993C17.6673 9.18993 17.2673 9.37493 16.9573 9.56493L17.6173 10.7049ZM29.8559 4.10493V15.8049H31.4909V4.10493H29.8559ZM24.1409 12.3549C24.1409 13.1049 24.2959 13.7499 24.6059 14.2899C24.9159 14.8299 25.3259 15.2449 25.8359 15.5349C26.3559 15.8149 26.9109 15.9549 27.5009 15.9549C28.0809 15.9549 28.5859 15.8099 29.0159 15.5199C29.4559 15.2299 29.8009 14.8149 30.0509 14.2749C30.3109 13.7349 30.4409 13.0949 30.4409 12.3549C30.4409 11.6049 30.3109 10.9649 30.0509 10.4349C29.8009 9.89493 29.4559 9.47993 29.0159 9.18993C28.5859 8.89993 28.0809 8.75493 27.5009 8.75493C26.9109 8.75493 26.3559 8.89993 25.8359 9.18993C25.3259 9.46993 24.9159 9.87993 24.6059 10.4199C24.2959 10.9499 24.1409 11.5949 24.1409 12.3549ZM25.8209 12.3549C25.8209 11.8949 25.9159 11.4999 26.1059 11.1699C26.2959 10.8399 26.5459 10.5899 26.8559 10.4199C27.1759 10.2499 27.5209 10.1649 27.8909 10.1649C28.2009 10.1649 28.5059 10.2499 28.8059 10.4199C29.1159 10.5899 29.3659 10.8399 29.5559 11.1699C29.7559 11.4899 29.8559 11.8849 29.8559 12.3549C29.8559 12.8249 29.7559 13.2249 29.5559 13.5549C29.3659 13.8749 29.1159 14.1199 28.8059 14.2899C28.5059 14.4599 28.2009 14.5449 27.8909 14.5449C27.5209 14.5449 27.1759 14.4599 26.8559 14.2899C26.5459 14.1199 26.2959 13.8699 26.1059 13.5399C25.9159 13.2099 25.8209 12.8149 25.8209 12.3549Z" fill="#303030"/>
<path d="M503.964 9.83993C503.964 10.2799 504.044 10.6699 504.204 11.0099C504.374 11.3399 504.604 11.6199 504.894 11.8499C505.184 12.0799 505.519 12.2549 505.899 12.3749C506.279 12.4949 506.684 12.5549 507.114 12.5549C507.544 12.5549 507.949 12.4949 508.329 12.3749C508.709 12.2549 509.044 12.0799 509.334 11.8499C509.624 11.6199 509.854 11.3399 510.024 11.0099C510.194 10.6699 510.279 10.2799 510.279 9.83993C510.279 9.29993 510.134 8.82993 509.844 8.42993C509.564 8.01993 509.184 7.69993 508.704 7.46993C508.234 7.23993 507.704 7.12493 507.114 7.12493C506.524 7.12493 505.989 7.23993 505.509 7.46993C505.039 7.69993 504.664 8.01993 504.384 8.42993C504.104 8.82993 503.964 9.29993 503.964 9.83993ZM505.644 10.0199C505.644 9.72993 505.704 9.46993 505.824 9.23993C505.954 9.00993 506.129 8.83493 506.349 8.71493C506.579 8.58493 506.834 8.51993 507.114 8.51993C507.404 8.51993 507.659 8.58493 507.879 8.71493C508.099 8.83493 508.269 9.00993 508.389 9.23993C508.519 9.46993 508.584 9.72993 508.584 10.0199C508.584 10.3199 508.519 10.5799 508.389 10.7999C508.259 11.0199 508.079 11.1949 507.849 11.3249C507.629 11.4449 507.384 11.5049 507.114 11.5049C506.844 11.5049 506.599 11.4449 506.379 11.3249C506.159 11.1949 505.979 11.0199 505.839 10.7999C505.709 10.5799 505.644 10.3199 505.644 10.0199ZM503.589 14.9549C503.589 15.3949 503.679 15.7999 503.859 16.1699C504.039 16.5299 504.289 16.8499 504.609 17.1299C504.939 17.3999 505.314 17.6099 505.734 17.7599C506.164 17.9099 506.624 17.9849 507.114 17.9849C507.604 17.9849 508.059 17.9099 508.479 17.7599C508.909 17.6099 509.284 17.3999 509.604 17.1299C509.934 16.8499 510.189 16.5299 510.369 16.1699C510.559 15.7999 510.654 15.3949 510.654 14.9549C510.654 14.4449 510.549 13.9999 510.339 13.6199C510.139 13.2399 509.869 12.9249 509.529 12.6749C509.189 12.4149 508.809 12.2249 508.389 12.1049C507.969 11.9849 507.544 11.9249 507.114 11.9249C506.684 11.9249 506.259 11.9849 505.839 12.1049C505.419 12.2249 505.039 12.4149 504.699 12.6749C504.359 12.9249 504.089 13.2399 503.889 13.6199C503.689 13.9999 503.589 14.4449 503.589 14.9549ZM505.329 14.7149C505.329 14.3849 505.409 14.0849 505.569 13.8149C505.739 13.5449 505.959 13.3349 506.229 13.1849C506.509 13.0249 506.804 12.9449 507.114 12.9449C507.424 12.9449 507.714 13.0249 507.984 13.1849C508.264 13.3349 508.489 13.5449 508.659 13.8149C508.829 14.0849 508.914 14.3849 508.914 14.7149C508.914 15.0949 508.829 15.4199 508.659 15.6899C508.489 15.9499 508.264 16.1499 507.984 16.2899C507.714 16.4299 507.424 16.4999 507.114 16.4999C506.804 16.4999 506.509 16.4299 506.229 16.2899C505.959 16.1499 505.739 15.9499 505.569 15.6899C505.409 15.4199 505.329 15.0949 505.329 14.7149ZM513.791 12.5549C513.791 11.9949 513.846 11.4799 513.956 11.0099C514.066 10.5399 514.221 10.1349 514.421 9.79493C514.631 9.45493 514.881 9.19493 515.171 9.01493C515.461 8.82493 515.781 8.72993 516.131 8.72993C516.501 8.72993 516.826 8.82493 517.106 9.01493C517.396 9.19493 517.641 9.45493 517.841 9.79493C518.051 10.1349 518.211 10.5399 518.321 11.0099C518.431 11.4799 518.486 11.9949 518.486 12.5549C518.486 13.1149 518.431 13.6299 518.321 14.0999C518.211 14.5699 518.051 14.9749 517.841 15.3149C517.641 15.6549 517.396 15.9199 517.106 16.1099C516.826 16.2899 516.501 16.3799 516.131 16.3799C515.781 16.3799 515.461 16.2899 515.171 16.1099C514.881 15.9199 514.631 15.6549 514.421 15.3149C514.221 14.9749 514.066 14.5699 513.956 14.0999C513.846 13.6299 513.791 13.1149 513.791 12.5549ZM512.051 12.5549C512.051 13.6449 512.221 14.5949 512.561 15.4049C512.911 16.2149 513.391 16.8449 514.001 17.2949C514.621 17.7449 515.331 17.9699 516.131 17.9699C516.951 17.9699 517.666 17.7449 518.276 17.2949C518.896 16.8449 519.376 16.2149 519.716 15.4049C520.056 14.5949 520.226 13.6449 520.226 12.5549C520.226 11.4649 520.056 10.5149 519.716 9.70493C519.376 8.89493 518.896 8.26493 518.276 7.81493C517.666 7.36493 516.951 7.13993 516.131 7.13993C515.331 7.13993 514.621 7.36493 514.001 7.81493C513.391 8.26493 512.911 8.89493 512.561 9.70493C512.221 10.5149 512.051 11.4649 512.051 12.5549ZM521.276 9.64493C521.276 10.1149 521.381 10.5449 521.591 10.9349C521.811 11.3149 522.116 11.6199 522.506 11.8499C522.896 12.0799 523.336 12.1949 523.826 12.1949C524.336 12.1949 524.781 12.0799 525.161 11.8499C525.551 11.6199 525.851 11.3149 526.061 10.9349C526.281 10.5449 526.391 10.1149 526.391 9.64493C526.391 9.17493 526.281 8.74993 526.061 8.36993C525.851 7.97993 525.551 7.66993 525.161 7.43993C524.781 7.20993 524.336 7.09493 523.826 7.09493C523.336 7.09493 522.896 7.20993 522.506 7.43993C522.116 7.66993 521.811 7.97993 521.591 8.36993C521.381 8.74993 521.276 9.17493 521.276 9.64493ZM522.656 9.64493C522.656 9.41493 522.706 9.20493 522.806 9.01493C522.906 8.82493 523.041 8.67493 523.211 8.56493C523.391 8.45493 523.596 8.39993 523.826 8.39993C524.076 8.39993 524.286 8.45493 524.456 8.56493C524.626 8.67493 524.761 8.82493 524.861 9.01493C524.961 9.20493 525.011 9.41493 525.011 9.64493C525.011 9.86493 524.961 10.0749 524.861 10.2749C524.761 10.4649 524.626 10.6199 524.456 10.7399C524.286 10.8499 524.076 10.9049 523.826 10.9049C523.596 10.9049 523.391 10.8499 523.211 10.7399C523.041 10.6199 522.906 10.4649 522.806 10.2749C522.706 10.0749 522.656 9.86493 522.656 9.64493ZM527.531 15.4649C527.531 15.9249 527.641 16.3499 527.861 16.7399C528.081 17.1299 528.381 17.4399 528.761 17.6699C529.151 17.8899 529.596 17.9999 530.096 17.9999C530.596 17.9999 531.036 17.8899 531.416 17.6699C531.806 17.4399 532.106 17.1299 532.316 16.7399C532.536 16.3499 532.646 15.9249 532.646 15.4649C532.646 14.9849 532.536 14.5549 532.316 14.1749C532.106 13.7849 531.806 13.4799 531.416 13.2599C531.036 13.0299 530.596 12.9149 530.096 12.9149C529.596 12.9149 529.151 13.0299 528.761 13.2599C528.381 13.4799 528.081 13.7849 527.861 14.1749C527.641 14.5549 527.531 14.9849 527.531 15.4649ZM528.926 15.4499C528.926 15.2299 528.971 15.0249 529.061 14.8349C529.161 14.6449 529.296 14.4949 529.466 14.3849C529.646 14.2649 529.856 14.2049 530.096 14.2049C530.336 14.2049 530.541 14.2649 530.711 14.3849C530.891 14.4949 531.026 14.6449 531.116 14.8349C531.216 15.0249 531.266 15.2299 531.266 15.4499C531.266 15.6799 531.216 15.8899 531.116 16.0799C531.026 16.2699 530.891 16.4249 530.711 16.5449C530.541 16.6549 530.336 16.7099 530.096 16.7099C529.856 16.7099 529.646 16.6549 529.466 16.5449C529.296 16.4249 529.161 16.2699 529.061 16.0799C528.971 15.8799 528.926 15.6699 528.926 15.4499ZM529.796 7.30493L522.521 17.8049H524.126L531.401 7.30493H529.796Z" fill="#303030"/>
<rect x="105" y="4.99902" width="376" height="16" rx="8" fill="#EBEBEB"/>
<rect x="105" y="4.99902" width="325" height="16" rx="8" fill="#49DDE2"/>
</svg>
