<svg width="534" height="23" viewBox="0 0 534 23" fill="none" xmlns="http://www.w3.org/2000/svg">
<path d="M3.2243 10.5549C3.2243 9.83493 3.3793 9.19493 3.6893 8.63493C3.9993 8.06493 4.4243 7.61993 4.9643 7.29993C5.5043 6.97993 6.1193 6.81993 6.8093 6.81993C7.5493 6.81993 8.1893 6.98993 8.7293 7.32993C9.2793 7.66993 9.7093 8.12993 10.0193 8.70993C10.3293 9.28993 10.4843 9.93993 10.4843 10.6599C10.4843 11.3799 10.3293 12.0199 10.0193 12.5799C9.7093 13.1399 9.2843 13.5799 8.7443 13.8999C8.2043 14.2099 7.5843 14.3649 6.8843 14.3649C6.1943 14.3649 5.5693 14.2049 5.0093 13.8849C4.4593 13.5549 4.0243 13.1049 3.7043 12.5349C3.3843 11.9649 3.2243 11.3049 3.2243 10.5549ZM1.3493 10.5549C1.3493 11.3349 1.4843 12.0599 1.7543 12.7299C2.0243 13.3999 2.4043 13.9799 2.8943 14.4699C3.3843 14.9599 3.9643 15.3449 4.6343 15.6249C5.3043 15.8949 6.0293 16.0299 6.8093 16.0299C7.6093 16.0299 8.3393 15.8949 8.9993 15.6249C9.6593 15.3449 10.2293 14.9599 10.7093 14.4699C11.1993 13.9799 11.5793 13.3999 11.8493 12.7299C12.1193 12.0599 12.2543 11.3349 12.2543 10.5549C12.2543 9.76493 12.1193 9.03993 11.8493 8.37993C11.5793 7.71993 11.1993 7.14993 10.7093 6.66993C10.2193 6.17993 9.6443 5.79993 8.9843 5.52993C8.3243 5.25993 7.5993 5.12493 6.8093 5.12493C6.0393 5.12493 5.3193 5.25993 4.6493 5.52993C3.9893 5.79993 3.4093 6.17993 2.9093 6.66993C2.4193 7.14993 2.0343 7.71993 1.7543 8.37993C1.4843 9.03993 1.3493 9.76493 1.3493 10.5549ZM6.3293 11.3049L11.0093 15.8799H13.0943L8.3693 11.3049H6.3293ZM15.7693 13.1049V8.90493H14.1043V13.2849C14.1043 14.1049 14.3093 14.7549 14.7193 15.2349C15.1393 15.7149 15.7343 15.9549 16.5043 15.9549C16.9843 15.9549 17.3943 15.8549 17.7343 15.6549C18.0843 15.4449 18.3693 15.1399 18.5893 14.7399V15.8049H20.2093V8.90493H18.5893V13.1049C18.5893 13.4149 18.5243 13.6899 18.3943 13.9299C18.2643 14.1599 18.0843 14.3399 17.8543 14.4699C17.6243 14.5899 17.3543 14.6499 17.0443 14.6499C16.6143 14.6499 16.2943 14.5149 16.0843 14.2449C15.8743 13.9749 15.7693 13.5949 15.7693 13.1049ZM23.2982 13.6599C23.2982 13.4399 23.3482 13.2549 23.4482 13.1049C23.5582 12.9549 23.7182 12.8399 23.9282 12.7599C24.1382 12.6699 24.4132 12.6249 24.7532 12.6249C25.1432 12.6249 25.5132 12.6749 25.8632 12.7749C26.2132 12.8749 26.5432 13.0349 26.8532 13.2549V12.4299C26.7632 12.3199 26.6082 12.1999 26.3882 12.0699C26.1682 11.9299 25.8882 11.8099 25.5482 11.7099C25.2182 11.6099 24.8232 11.5599 24.3632 11.5599C23.5032 11.5599 22.8382 11.7599 22.3682 12.1599C21.8982 12.5499 21.6632 13.0799 21.6632 13.7499C21.6632 14.2199 21.7732 14.6199 21.9932 14.9499C22.2132 15.2799 22.5082 15.5299 22.8782 15.6999C23.2482 15.8699 23.6482 15.9549 24.0782 15.9549C24.4782 15.9549 24.8682 15.8849 25.2482 15.7449C25.6382 15.5949 25.9582 15.3749 26.2082 15.0849C26.4682 14.7849 26.5982 14.4149 26.5982 13.9749L26.3582 13.0749C26.3582 13.4149 26.2732 13.7149 26.1032 13.9749C25.9432 14.2249 25.7282 14.4149 25.4582 14.5449C25.1982 14.6749 24.9082 14.7399 24.5882 14.7399C24.3382 14.7399 24.1132 14.6999 23.9132 14.6199C23.7232 14.5399 23.5732 14.4199 23.4632 14.2599C23.3532 14.0899 23.2982 13.8899 23.2982 13.6599ZM22.7882 10.7049C22.8882 10.6349 23.0382 10.5499 23.2382 10.4499C23.4482 10.3399 23.6932 10.2499 23.9732 10.1799C24.2632 10.0999 24.5682 10.0599 24.8882 10.0599C25.0982 10.0599 25.2932 10.0799 25.4732 10.1199C25.6532 10.1599 25.8082 10.2249 25.9382 10.3149C26.0682 10.4049 26.1682 10.5199 26.2382 10.6599C26.3182 10.7999 26.3582 10.9799 26.3582 11.1999V15.8049H27.9482V10.8849C27.9482 10.4249 27.8232 10.0399 27.5732 9.72993C27.3232 9.40993 26.9782 9.16493 26.5382 8.99493C26.1082 8.82493 25.6082 8.73993 25.0382 8.73993C24.3982 8.73993 23.8282 8.82993 23.3282 9.00993C22.8382 9.18993 22.4382 9.37493 22.1282 9.56493L22.7882 10.7049ZM29.8368 4.10493V15.8049H31.4568V4.10493H29.8368ZM33.4682 6.15993C33.4682 6.42993 33.5682 6.66493 33.7682 6.86493C33.9782 7.05493 34.2182 7.14993 34.4882 7.14993C34.7782 7.14993 35.0182 7.05493 35.2082 6.86493C35.4082 6.66493 35.5082 6.42993 35.5082 6.15993C35.5082 5.87993 35.4082 5.64493 35.2082 5.45493C35.0182 5.26493 34.7782 5.16993 34.4882 5.16993C34.2182 5.16993 33.9782 5.26493 33.7682 5.45493C33.5682 5.64493 33.4682 5.87993 33.4682 6.15993ZM33.6932 8.90493V15.8049H35.2832V8.90493H33.6932ZM36.9425 8.90493V10.3299H40.9025V8.90493H36.9425ZM40.7225 5.84493L41.4875 4.58493C41.4075 4.48493 41.2925 4.38493 41.1425 4.28493C41.0025 4.18493 40.8325 4.09993 40.6325 4.02993C40.4325 3.95993 40.1975 3.92493 39.9275 3.92493C39.4475 3.92493 39.0425 4.01993 38.7125 4.20993C38.3825 4.38993 38.1275 4.65993 37.9475 5.01993C37.7775 5.36993 37.6925 5.81493 37.6925 6.35493V15.8049H39.2825V6.66993C39.2825 6.37993 39.3125 6.14493 39.3725 5.96493C39.4325 5.78493 39.5125 5.65493 39.6125 5.57493C39.7225 5.49493 39.8525 5.45493 40.0025 5.45493C40.1325 5.45493 40.2575 5.47993 40.3775 5.52993C40.5075 5.57993 40.6225 5.68493 40.7225 5.84493ZM42.0814 6.15993C42.0814 6.42993 42.1814 6.66493 42.3814 6.86493C42.5914 7.05493 42.8314 7.14993 43.1014 7.14993C43.3914 7.14993 43.6314 7.05493 43.8214 6.86493C44.0214 6.66493 44.1214 6.42993 44.1214 6.15993C44.1214 5.87993 44.0214 5.64493 43.8214 5.45493C43.6314 5.26493 43.3914 5.16993 43.1014 5.16993C42.8314 5.16993 42.5914 5.26493 42.3814 5.45493C42.1814 5.64493 42.0814 5.87993 42.0814 6.15993ZM42.3064 8.90493V15.8049H43.8964V8.90493H42.3064ZM47.2058 12.3549C47.2058 11.9249 47.3008 11.5449 47.4908 11.2149C47.6808 10.8849 47.9358 10.6249 48.2558 10.4349C48.5858 10.2449 48.9508 10.1499 49.3508 10.1499C49.6708 10.1499 49.9808 10.1999 50.2808 10.2999C50.5808 10.3999 50.8458 10.5399 51.0758 10.7199C51.3158 10.8899 51.4908 11.0899 51.6008 11.3199V9.53493C51.3608 9.29493 51.0358 9.10493 50.6258 8.96493C50.2158 8.82493 49.7658 8.75493 49.2758 8.75493C48.5658 8.75493 47.9258 8.90993 47.3558 9.21993C46.7958 9.51993 46.3508 9.93993 46.0208 10.4799C45.7008 11.0199 45.5408 11.6449 45.5408 12.3549C45.5408 13.0549 45.7008 13.6799 46.0208 14.2299C46.3508 14.7699 46.7958 15.1949 47.3558 15.5049C47.9258 15.8049 48.5658 15.9549 49.2758 15.9549C49.7658 15.9549 50.2158 15.8849 50.6258 15.7449C51.0358 15.6049 51.3608 15.4149 51.6008 15.1749V13.3899C51.4908 13.6099 51.3208 13.8099 51.0908 13.9899C50.8608 14.1699 50.5958 14.3099 50.2958 14.4099C49.9958 14.5099 49.6808 14.5599 49.3508 14.5599C48.9508 14.5599 48.5858 14.4649 48.2558 14.2749C47.9358 14.0849 47.6808 13.8299 47.4908 13.5099C47.3008 13.1799 47.2058 12.7949 47.2058 12.3549ZM54.4114 13.6599C54.4114 13.4399 54.4614 13.2549 54.5614 13.1049C54.6714 12.9549 54.8314 12.8399 55.0414 12.7599C55.2514 12.6699 55.5264 12.6249 55.8664 12.6249C56.2564 12.6249 56.6264 12.6749 56.9764 12.7749C57.3264 12.8749 57.6564 13.0349 57.9664 13.2549V12.4299C57.8764 12.3199 57.7214 12.1999 57.5014 12.0699C57.2814 11.9299 57.0014 11.8099 56.6614 11.7099C56.3314 11.6099 55.9364 11.5599 55.4764 11.5599C54.6164 11.5599 53.9514 11.7599 53.4814 12.1599C53.0114 12.5499 52.7764 13.0799 52.7764 13.7499C52.7764 14.2199 52.8864 14.6199 53.1064 14.9499C53.3264 15.2799 53.6214 15.5299 53.9914 15.6999C54.3614 15.8699 54.7614 15.9549 55.1914 15.9549C55.5914 15.9549 55.9814 15.8849 56.3614 15.7449C56.7514 15.5949 57.0714 15.3749 57.3214 15.0849C57.5814 14.7849 57.7114 14.4149 57.7114 13.9749L57.4714 13.0749C57.4714 13.4149 57.3864 13.7149 57.2164 13.9749C57.0564 14.2249 56.8414 14.4149 56.5714 14.5449C56.3114 14.6749 56.0214 14.7399 55.7014 14.7399C55.4514 14.7399 55.2264 14.6999 55.0264 14.6199C54.8364 14.5399 54.6864 14.4199 54.5764 14.2599C54.4664 14.0899 54.4114 13.8899 54.4114 13.6599ZM53.9014 10.7049C54.0014 10.6349 54.1514 10.5499 54.3514 10.4499C54.5614 10.3399 54.8064 10.2499 55.0864 10.1799C55.3764 10.0999 55.6814 10.0599 56.0014 10.0599C56.2114 10.0599 56.4064 10.0799 56.5864 10.1199C56.7664 10.1599 56.9214 10.2249 57.0514 10.3149C57.1814 10.4049 57.2814 10.5199 57.3514 10.6599C57.4314 10.7999 57.4714 10.9799 57.4714 11.1999V15.8049H59.0614V10.8849C59.0614 10.4249 58.9364 10.0399 58.6864 9.72993C58.4364 9.40993 58.0914 9.16493 57.6514 8.99493C57.2214 8.82493 56.7214 8.73993 56.1514 8.73993C55.5114 8.73993 54.9414 8.82993 54.4414 9.00993C53.9514 9.18993 53.5514 9.37493 53.2414 9.56493L53.9014 10.7049ZM59.99 8.90493V10.3299H63.905V8.90493H59.99ZM61.145 6.50493V15.8049H62.75V6.50493H61.145ZM64.9623 6.15993C64.9623 6.42993 65.0623 6.66493 65.2623 6.86493C65.4723 7.05493 65.7123 7.14993 65.9823 7.14993C66.2723 7.14993 66.5123 7.05493 66.7023 6.86493C66.9023 6.66493 67.0023 6.42993 67.0023 6.15993C67.0023 5.87993 66.9023 5.64493 66.7023 5.45493C66.5123 5.26493 66.2723 5.16993 65.9823 5.16993C65.7123 5.16993 65.4723 5.26493 65.2623 5.45493C65.0623 5.64493 64.9623 5.87993 64.9623 6.15993ZM65.1873 8.90493V15.8049H66.7773V8.90493H65.1873ZM68.4817 12.3549C68.4817 13.0549 68.6417 13.6799 68.9617 14.2299C69.2917 14.7699 69.7367 15.1949 70.2967 15.5049C70.8567 15.8049 71.4917 15.9549 72.2017 15.9549C72.9117 15.9549 73.5417 15.8049 74.0917 15.5049C74.6517 15.1949 75.0967 14.7699 75.4267 14.2299C75.7567 13.6799 75.9217 13.0549 75.9217 12.3549C75.9217 11.6449 75.7567 11.0199 75.4267 10.4799C75.0967 9.93993 74.6517 9.51993 74.0917 9.21993C73.5417 8.90993 72.9117 8.75493 72.2017 8.75493C71.4917 8.75493 70.8567 8.90993 70.2967 9.21993C69.7367 9.51993 69.2917 9.93993 68.9617 10.4799C68.6417 11.0199 68.4817 11.6449 68.4817 12.3549ZM70.1467 12.3549C70.1467 11.9249 70.2367 11.5449 70.4167 11.2149C70.5967 10.8849 70.8417 10.6299 71.1517 10.4499C71.4617 10.2699 71.8117 10.1799 72.2017 10.1799C72.5817 10.1799 72.9267 10.2699 73.2367 10.4499C73.5567 10.6299 73.8067 10.8849 73.9867 11.2149C74.1667 11.5449 74.2567 11.9249 74.2567 12.3549C74.2567 12.7849 74.1667 13.1649 73.9867 13.4949C73.8067 13.8149 73.5567 14.0699 73.2367 14.2599C72.9267 14.4399 72.5817 14.5299 72.2017 14.5299C71.8117 14.5299 71.4617 14.4399 71.1517 14.2599C70.8417 14.0699 70.5967 13.8149 70.4167 13.4949C70.2367 13.1649 70.1467 12.7849 70.1467 12.3549ZM81.8988 11.6049V15.8049H83.5638V11.4249C83.5638 10.5949 83.3588 9.94493 82.9488 9.47493C82.5388 8.99493 81.9438 8.75493 81.1638 8.75493C80.6838 8.75493 80.2688 8.85493 79.9188 9.05493C79.5788 9.25493 79.2988 9.55993 79.0788 9.96993V8.90493H77.4588V15.8049H79.0788V11.6049C79.0788 11.2949 79.1438 11.0249 79.2738 10.7949C79.4038 10.5549 79.5838 10.3749 79.8138 10.2549C80.0438 10.1249 80.3088 10.0599 80.6088 10.0599C81.0488 10.0599 81.3738 10.1899 81.5838 10.4499C81.7938 10.7099 81.8988 11.0949 81.8988 11.6049Z" fill="#303030"/>
<path d="M503.049 15.7949H511.689V14.2649H509.544L509.289 14.3999H505.644L508.329 10.4699V14.9999L508.224 15.1649V17.8049H510.039V7.30493H508.974L503.049 15.7949ZM520.553 14.3849C520.553 13.6749 520.413 13.0599 520.133 12.5399C519.853 12.0199 519.473 11.6149 518.993 11.3249C518.513 11.0349 517.983 10.8899 517.403 10.8899C517.113 10.8899 516.828 10.9199 516.548 10.9799C516.268 11.0399 515.998 11.1349 515.738 11.2649L516.398 8.86493H520.448V7.30493H515.063L513.638 13.0799C513.998 12.8599 514.328 12.6899 514.628 12.5699C514.938 12.4499 515.238 12.3699 515.528 12.3299C515.828 12.2799 516.128 12.2549 516.428 12.2549C516.838 12.2549 517.213 12.3349 517.553 12.4949C517.893 12.6549 518.163 12.8849 518.363 13.1849C518.563 13.4849 518.663 13.8499 518.663 14.2799C518.663 14.6999 518.573 15.0649 518.393 15.3749C518.223 15.6849 517.973 15.9199 517.643 16.0799C517.313 16.2399 516.908 16.3199 516.428 16.3199C516.098 16.3199 515.768 16.2549 515.438 16.1249C515.108 15.9849 514.798 15.8049 514.508 15.5849C514.228 15.3549 513.983 15.1049 513.773 14.8349L512.738 16.1099C513.008 16.4399 513.323 16.7499 513.683 17.0399C514.043 17.3199 514.468 17.5449 514.958 17.7149C515.448 17.8849 516.013 17.9699 516.653 17.9699C517.163 17.9699 517.648 17.8999 518.108 17.7599C518.578 17.6099 518.998 17.3899 519.368 17.0999C519.738 16.7999 520.028 16.4249 520.238 15.9749C520.448 15.5249 520.553 14.9949 520.553 14.3849ZM521.598 9.64493C521.598 10.1149 521.703 10.5449 521.913 10.9349C522.133 11.3149 522.438 11.6199 522.828 11.8499C523.218 12.0799 523.658 12.1949 524.148 12.1949C524.658 12.1949 525.103 12.0799 525.483 11.8499C525.873 11.6199 526.173 11.3149 526.383 10.9349C526.603 10.5449 526.713 10.1149 526.713 9.64493C526.713 9.17493 526.603 8.74993 526.383 8.36993C526.173 7.97993 525.873 7.66993 525.483 7.43993C525.103 7.20993 524.658 7.09493 524.148 7.09493C523.658 7.09493 523.218 7.20993 522.828 7.43993C522.438 7.66993 522.133 7.97993 521.913 8.36993C521.703 8.74993 521.598 9.17493 521.598 9.64493ZM522.978 9.64493C522.978 9.41493 523.028 9.20493 523.128 9.01493C523.228 8.82493 523.363 8.67493 523.533 8.56493C523.713 8.45493 523.918 8.39993 524.148 8.39993C524.398 8.39993 524.608 8.45493 524.778 8.56493C524.948 8.67493 525.083 8.82493 525.183 9.01493C525.283 9.20493 525.333 9.41493 525.333 9.64493C525.333 9.86493 525.283 10.0749 525.183 10.2749C525.083 10.4649 524.948 10.6199 524.778 10.7399C524.608 10.8499 524.398 10.9049 524.148 10.9049C523.918 10.9049 523.713 10.8499 523.533 10.7399C523.363 10.6199 523.228 10.4649 523.128 10.2749C523.028 10.0749 522.978 9.86493 522.978 9.64493ZM527.853 15.4649C527.853 15.9249 527.963 16.3499 528.183 16.7399C528.403 17.1299 528.703 17.4399 529.083 17.6699C529.473 17.8899 529.918 17.9999 530.418 17.9999C530.918 17.9999 531.358 17.8899 531.738 17.6699C532.128 17.4399 532.428 17.1299 532.638 16.7399C532.858 16.3499 532.968 15.9249 532.968 15.4649C532.968 14.9849 532.858 14.5549 532.638 14.1749C532.428 13.7849 532.128 13.4799 531.738 13.2599C531.358 13.0299 530.918 12.9149 530.418 12.9149C529.918 12.9149 529.473 13.0299 529.083 13.2599C528.703 13.4799 528.403 13.7849 528.183 14.1749C527.963 14.5549 527.853 14.9849 527.853 15.4649ZM529.248 15.4499C529.248 15.2299 529.293 15.0249 529.383 14.8349C529.483 14.6449 529.618 14.4949 529.788 14.3849C529.968 14.2649 530.178 14.2049 530.418 14.2049C530.658 14.2049 530.863 14.2649 531.033 14.3849C531.213 14.4949 531.348 14.6449 531.438 14.8349C531.538 15.0249 531.588 15.2299 531.588 15.4499C531.588 15.6799 531.538 15.8899 531.438 16.0799C531.348 16.2699 531.213 16.4249 531.033 16.5449C530.863 16.6549 530.658 16.7099 530.418 16.7099C530.178 16.7099 529.968 16.6549 529.788 16.5449C529.618 16.4249 529.483 16.2699 529.383 16.0799C529.293 15.8799 529.248 15.6699 529.248 15.4499ZM530.118 7.30493L522.843 17.8049H524.448L531.723 7.30493H530.118Z" fill="#303030"/>
<rect x="105" y="4.99902" width="376" height="16" rx="8" fill="#EBEBEB"/>
<rect x="105" y="4.99902" width="217" height="16" rx="8" fill="#FFB545"/>
</svg>
