<svg width="534" height="23" viewBox="0 0 534 23" fill="none" xmlns="http://www.w3.org/2000/svg">
<path d="M2.6393 12.4299L1.3193 13.3449C1.5493 13.8249 1.8593 14.2699 2.2493 14.6799C2.6393 15.0899 3.0943 15.4199 3.6143 15.6699C4.1443 15.9099 4.7193 16.0299 5.3393 16.0299C5.7893 16.0299 6.2193 15.9549 6.6293 15.8049C7.0493 15.6649 7.4243 15.4649 7.7543 15.2049C8.0843 14.9349 8.3443 14.6049 8.5343 14.2149C8.7243 13.8249 8.8193 13.3849 8.8193 12.8949C8.8193 12.4349 8.7393 12.0349 8.5793 11.6949C8.4293 11.3549 8.2243 11.0599 7.9643 10.8099C7.7043 10.5499 7.4143 10.3349 7.0943 10.1649C6.7843 9.99493 6.4743 9.85493 6.1643 9.74493C5.6043 9.54493 5.1493 9.34993 4.7993 9.15993C4.4493 8.96993 4.1893 8.76993 4.0193 8.55993C3.8593 8.33993 3.7793 8.09493 3.7793 7.82493C3.7793 7.52493 3.8943 7.26493 4.1243 7.04493C4.3543 6.81493 4.7143 6.69993 5.2043 6.69993C5.5543 6.69993 5.8593 6.76993 6.1193 6.90993C6.3893 7.03993 6.6243 7.21993 6.8243 7.44993C7.0243 7.66993 7.1893 7.90993 7.3193 8.16993L8.7593 7.35993C8.5793 6.98993 8.3293 6.63493 8.0093 6.29493C7.6993 5.95493 7.3143 5.67493 6.8543 5.45493C6.3943 5.23493 5.8543 5.12493 5.2343 5.12493C4.6043 5.12493 4.0393 5.24493 3.5393 5.48493C3.0493 5.71493 2.6593 6.04493 2.3693 6.47493C2.0793 6.89493 1.9343 7.38493 1.9343 7.94493C1.9343 8.43493 2.0293 8.85493 2.2193 9.20493C2.4093 9.54493 2.6493 9.83493 2.9393 10.0749C3.2293 10.3049 3.5343 10.4999 3.8543 10.6599C4.1743 10.8099 4.4643 10.9299 4.7243 11.0199C5.1643 11.1799 5.5493 11.3449 5.8793 11.5149C6.2193 11.6749 6.4843 11.8749 6.6743 12.1149C6.8643 12.3449 6.9593 12.6549 6.9593 13.0449C6.9593 13.4549 6.8093 13.7899 6.5093 14.0499C6.2093 14.3099 5.8193 14.4399 5.3393 14.4399C4.9393 14.4399 4.5793 14.3599 4.2593 14.1999C3.9393 14.0299 3.6443 13.7949 3.3743 13.4949C3.1143 13.1849 2.8693 12.8299 2.6393 12.4299ZM12.1658 13.1049V8.90493H10.5008V13.2849C10.5008 14.1049 10.7058 14.7549 11.1158 15.2349C11.5358 15.7149 12.1308 15.9549 12.9008 15.9549C13.3808 15.9549 13.7908 15.8549 14.1308 15.6549C14.4808 15.4449 14.7658 15.1399 14.9858 14.7399V15.8049H16.6058V8.90493H14.9858V13.1049C14.9858 13.4149 14.9208 13.6899 14.7908 13.9299C14.6608 14.1599 14.4808 14.3399 14.2508 14.4699C14.0208 14.5899 13.7508 14.6499 13.4408 14.6499C13.0108 14.6499 12.6908 14.5149 12.4808 14.2449C12.2708 13.9749 12.1658 13.5949 12.1658 13.1049ZM20.2496 19.1049V8.90493H18.6146V19.1049H20.2496ZM25.9646 12.3549C25.9646 11.5849 25.8096 10.9299 25.4996 10.3899C25.1896 9.84993 24.7796 9.43993 24.2696 9.15993C23.7596 8.86993 23.2046 8.72493 22.6046 8.72493C22.0146 8.72493 21.4996 8.87493 21.0596 9.17493C20.6296 9.46493 20.2946 9.87993 20.0546 10.4199C19.8246 10.9599 19.7096 11.6049 19.7096 12.3549C19.7096 13.0949 19.8246 13.7399 20.0546 14.2899C20.2946 14.8299 20.6296 15.2499 21.0596 15.5499C21.4996 15.8399 22.0146 15.9849 22.6046 15.9849C23.2046 15.9849 23.7596 15.8449 24.2696 15.5649C24.7796 15.2749 25.1896 14.8599 25.4996 14.3199C25.8096 13.7699 25.9646 13.1149 25.9646 12.3549ZM24.2846 12.3549C24.2846 12.8149 24.1896 13.2099 23.9996 13.5399C23.8096 13.8599 23.5546 14.1049 23.2346 14.2749C22.9246 14.4349 22.5796 14.5149 22.1996 14.5149C21.8896 14.5149 21.5846 14.4349 21.2846 14.2749C20.9846 14.1049 20.7346 13.8599 20.5346 13.5399C20.3446 13.2199 20.2496 12.8249 20.2496 12.3549C20.2496 11.8849 20.3446 11.4899 20.5346 11.1699C20.7346 10.8499 20.9846 10.6099 21.2846 10.4499C21.5846 10.2799 21.8896 10.1949 22.1996 10.1949C22.5796 10.1949 22.9246 10.2799 23.2346 10.4499C23.5546 10.6099 23.8096 10.8549 23.9996 11.1849C24.1896 11.5049 24.2846 11.8949 24.2846 12.3549ZM29.0827 19.1049V8.90493H27.4477V19.1049H29.0827ZM34.7977 12.3549C34.7977 11.5849 34.6427 10.9299 34.3327 10.3899C34.0227 9.84993 33.6127 9.43993 33.1027 9.15993C32.5927 8.86993 32.0377 8.72493 31.4377 8.72493C30.8477 8.72493 30.3327 8.87493 29.8927 9.17493C29.4627 9.46493 29.1277 9.87993 28.8877 10.4199C28.6577 10.9599 28.5427 11.6049 28.5427 12.3549C28.5427 13.0949 28.6577 13.7399 28.8877 14.2899C29.1277 14.8299 29.4627 15.2499 29.8927 15.5499C30.3327 15.8399 30.8477 15.9849 31.4377 15.9849C32.0377 15.9849 32.5927 15.8449 33.1027 15.5649C33.6127 15.2749 34.0227 14.8599 34.3327 14.3199C34.6427 13.7699 34.7977 13.1149 34.7977 12.3549ZM33.1177 12.3549C33.1177 12.8149 33.0227 13.2099 32.8327 13.5399C32.6427 13.8599 32.3877 14.1049 32.0677 14.2749C31.7577 14.4349 31.4127 14.5149 31.0327 14.5149C30.7227 14.5149 30.4177 14.4349 30.1177 14.2749C29.8177 14.1049 29.5677 13.8599 29.3677 13.5399C29.1777 13.2199 29.0827 12.8249 29.0827 12.3549C29.0827 11.8849 29.1777 11.4899 29.3677 11.1699C29.5677 10.8499 29.8177 10.6099 30.1177 10.4499C30.4177 10.2799 30.7227 10.1949 31.0327 10.1949C31.4127 10.1949 31.7577 10.2799 32.0677 10.4499C32.3877 10.6099 32.6427 10.8549 32.8327 11.1849C33.0227 11.5049 33.1177 11.8949 33.1177 12.3549ZM36.3407 4.10493V15.8049H37.9607V4.10493H36.3407ZM46.1371 8.90493H44.3971L42.2371 14.3199L43.0021 14.3649L40.7971 8.90493H38.9371L41.7121 14.9949L39.9121 19.1049H41.6371L46.1371 8.90493Z" fill="#303030"/>
<path d="M505.254 14.2649C505.254 13.8349 505.344 13.4549 505.524 13.1249C505.714 12.7849 505.969 12.5249 506.289 12.3449C506.609 12.1549 506.974 12.0599 507.384 12.0599C507.784 12.0599 508.144 12.1549 508.464 12.3449C508.784 12.5249 509.034 12.7849 509.214 13.1249C509.404 13.4549 509.499 13.8349 509.499 14.2649C509.499 14.6949 509.404 15.0749 509.214 15.4049C509.034 15.7249 508.784 15.9799 508.464 16.1699C508.144 16.3499 507.784 16.4399 507.384 16.4399C506.974 16.4399 506.609 16.3499 506.289 16.1699C505.969 15.9799 505.714 15.7249 505.524 15.4049C505.344 15.0749 505.254 14.6949 505.254 14.2649ZM507.744 7.31993L504.414 11.7899C504.154 12.1299 503.939 12.5049 503.769 12.9149C503.609 13.3249 503.529 13.7749 503.529 14.2649C503.529 15.0349 503.699 15.6999 504.039 16.2599C504.389 16.8199 504.854 17.2499 505.434 17.5499C506.014 17.8399 506.664 17.9849 507.384 17.9849C508.104 17.9849 508.754 17.8399 509.334 17.5499C509.914 17.2499 510.374 16.8199 510.714 16.2599C511.054 15.6999 511.224 15.0349 511.224 14.2649C511.224 13.7649 511.139 13.3049 510.969 12.8849C510.799 12.4649 510.564 12.1049 510.264 11.8049C509.974 11.4949 509.639 11.2599 509.259 11.0999C508.879 10.9399 508.484 10.8599 508.074 10.8599C507.714 10.8599 507.404 10.8999 507.144 10.9799C506.884 11.0599 506.639 11.2299 506.409 11.4899L506.664 11.4449L509.994 7.31993H507.744ZM514.319 12.5549C514.319 11.9949 514.374 11.4799 514.484 11.0099C514.594 10.5399 514.749 10.1349 514.949 9.79493C515.159 9.45493 515.409 9.19493 515.699 9.01493C515.989 8.82493 516.309 8.72993 516.659 8.72993C517.029 8.72993 517.354 8.82493 517.634 9.01493C517.924 9.19493 518.169 9.45493 518.369 9.79493C518.579 10.1349 518.739 10.5399 518.849 11.0099C518.959 11.4799 519.014 11.9949 519.014 12.5549C519.014 13.1149 518.959 13.6299 518.849 14.0999C518.739 14.5699 518.579 14.9749 518.369 15.3149C518.169 15.6549 517.924 15.9199 517.634 16.1099C517.354 16.2899 517.029 16.3799 516.659 16.3799C516.309 16.3799 515.989 16.2899 515.699 16.1099C515.409 15.9199 515.159 15.6549 514.949 15.3149C514.749 14.9749 514.594 14.5699 514.484 14.0999C514.374 13.6299 514.319 13.1149 514.319 12.5549ZM512.579 12.5549C512.579 13.6449 512.749 14.5949 513.089 15.4049C513.439 16.2149 513.919 16.8449 514.529 17.2949C515.149 17.7449 515.859 17.9699 516.659 17.9699C517.479 17.9699 518.194 17.7449 518.804 17.2949C519.424 16.8449 519.904 16.2149 520.244 15.4049C520.584 14.5949 520.754 13.6449 520.754 12.5549C520.754 11.4649 520.584 10.5149 520.244 9.70493C519.904 8.89493 519.424 8.26493 518.804 7.81493C518.194 7.36493 517.479 7.13993 516.659 7.13993C515.859 7.13993 515.149 7.36493 514.529 7.81493C513.919 8.26493 513.439 8.89493 513.089 9.70493C512.749 10.5149 512.579 11.4649 512.579 12.5549ZM521.804 9.64493C521.804 10.1149 521.909 10.5449 522.119 10.9349C522.339 11.3149 522.644 11.6199 523.034 11.8499C523.424 12.0799 523.864 12.1949 524.354 12.1949C524.864 12.1949 525.309 12.0799 525.689 11.8499C526.079 11.6199 526.379 11.3149 526.589 10.9349C526.809 10.5449 526.919 10.1149 526.919 9.64493C526.919 9.17493 526.809 8.74993 526.589 8.36993C526.379 7.97993 526.079 7.66993 525.689 7.43993C525.309 7.20993 524.864 7.09493 524.354 7.09493C523.864 7.09493 523.424 7.20993 523.034 7.43993C522.644 7.66993 522.339 7.97993 522.119 8.36993C521.909 8.74993 521.804 9.17493 521.804 9.64493ZM523.184 9.64493C523.184 9.41493 523.234 9.20493 523.334 9.01493C523.434 8.82493 523.569 8.67493 523.739 8.56493C523.919 8.45493 524.124 8.39993 524.354 8.39993C524.604 8.39993 524.814 8.45493 524.984 8.56493C525.154 8.67493 525.289 8.82493 525.389 9.01493C525.489 9.20493 525.539 9.41493 525.539 9.64493C525.539 9.86493 525.489 10.0749 525.389 10.2749C525.289 10.4649 525.154 10.6199 524.984 10.7399C524.814 10.8499 524.604 10.9049 524.354 10.9049C524.124 10.9049 523.919 10.8499 523.739 10.7399C523.569 10.6199 523.434 10.4649 523.334 10.2749C523.234 10.0749 523.184 9.86493 523.184 9.64493ZM528.059 15.4649C528.059 15.9249 528.169 16.3499 528.389 16.7399C528.609 17.1299 528.909 17.4399 529.289 17.6699C529.679 17.8899 530.124 17.9999 530.624 17.9999C531.124 17.9999 531.564 17.8899 531.944 17.6699C532.334 17.4399 532.634 17.1299 532.844 16.7399C533.064 16.3499 533.174 15.9249 533.174 15.4649C533.174 14.9849 533.064 14.5549 532.844 14.1749C532.634 13.7849 532.334 13.4799 531.944 13.2599C531.564 13.0299 531.124 12.9149 530.624 12.9149C530.124 12.9149 529.679 13.0299 529.289 13.2599C528.909 13.4799 528.609 13.7849 528.389 14.1749C528.169 14.5549 528.059 14.9849 528.059 15.4649ZM529.454 15.4499C529.454 15.2299 529.499 15.0249 529.589 14.8349C529.689 14.6449 529.824 14.4949 529.994 14.3849C530.174 14.2649 530.384 14.2049 530.624 14.2049C530.864 14.2049 531.069 14.2649 531.239 14.3849C531.419 14.4949 531.554 14.6449 531.644 14.8349C531.744 15.0249 531.794 15.2299 531.794 15.4499C531.794 15.6799 531.744 15.8899 531.644 16.0799C531.554 16.2699 531.419 16.4249 531.239 16.5449C531.069 16.6549 530.864 16.7099 530.624 16.7099C530.384 16.7099 530.174 16.6549 529.994 16.5449C529.824 16.4249 529.689 16.2699 529.589 16.0799C529.499 15.8799 529.454 15.6699 529.454 15.4499ZM530.324 7.30493L523.049 17.8049H524.654L531.929 7.30493H530.324Z" fill="#303030"/>
<rect x="105" y="4.99902" width="376" height="16" rx="8" fill="#EBEBEB"/>
<rect x="105" y="4.99902" width="235" height="16" rx="8" fill="#FF6F89"/>
</svg>
