<svg width="557" height="436" viewBox="0 0 557 436" fill="none" xmlns="http://www.w3.org/2000/svg">
<g filter="url(#filter0_bdi_1_1085)">
<rect x="8.66602" y="167.213" width="445.52" height="231.466" rx="25.7262" transform="rotate(-21.456 8.66602 167.213)" fill="url(#paint0_linear_1_1085)" fill-opacity="0.93" shape-rendering="crispEdges"/>
</g>
<path d="M86.5688 176.296L154.025 349.532M245.612 114.468L313.068 287.704M167.314 144.906L234.77 318.142M325.541 83.3954L392.997 256.631M125.717 161.077L193.173 334.313M285.577 98.9315L353.033 272.167M206.462 129.687L273.918 302.923M365.506 67.8592L432.962 241.095M109.057 331.693L460.582 195.038M80.2047 257.598L431.73 120.943M94.8329 295.168L446.358 158.512M65.5751 220.029L417.1 83.3739" stroke="url(#paint1_linear_1_1085)" stroke-width="0.857539"/>
<path d="M66.7533 214.872C67.0347 215.609 67.4469 216.192 67.9901 216.621C68.5399 217.035 69.1443 217.288 69.8033 217.379C70.4581 217.46 71.106 217.378 71.747 217.133C72.281 216.929 72.7299 216.678 73.0935 216.38C73.4571 216.082 73.7596 215.753 74.001 215.391C74.2531 215.026 74.449 214.657 74.5886 214.286L75.5735 216.865C75.2528 217.404 74.8588 217.879 74.3915 218.29C73.9349 218.696 73.2953 219.057 72.4728 219.371C71.6182 219.697 70.7694 219.862 69.9263 219.866C69.0939 219.865 68.3054 219.707 67.5608 219.392C66.8269 219.072 66.1759 218.617 65.6076 218.026C65.046 217.421 64.6 216.685 64.2697 215.82C63.9394 214.955 63.7839 214.115 63.8032 213.3C63.8291 212.47 64.0091 211.691 64.3434 210.964C64.6884 210.232 65.171 209.589 65.7914 209.034C66.4224 208.475 67.1652 208.032 68.0198 207.706C68.8423 207.392 69.5593 207.235 70.1709 207.234C70.7932 207.229 71.4033 207.32 72.0013 207.508L72.9861 210.088C72.6343 209.904 72.2427 209.76 71.8112 209.655C71.3903 209.546 70.9451 209.502 70.4755 209.522C70.0059 209.543 69.504 209.655 68.9699 209.859C68.329 210.103 67.7933 210.479 67.3627 210.986C66.928 211.483 66.6437 212.068 66.5099 212.744C66.3867 213.415 66.4678 214.124 66.7533 214.872ZM76.5128 213.349C76.2192 212.58 76.1386 211.84 76.2709 211.128C76.4139 210.413 76.7286 209.779 77.2152 209.226C77.7124 208.669 78.3509 208.242 79.1307 207.944C79.9104 207.646 80.6659 207.541 81.3971 207.629C82.139 207.713 82.7963 207.977 83.369 208.419C83.9524 208.857 84.3909 209.461 84.6845 210.23C84.9741 210.988 85.0494 211.73 84.9105 212.457C84.7782 213.168 84.4634 213.802 83.9662 214.359C83.4797 214.912 82.8465 215.337 82.0667 215.635C81.2869 215.933 80.5261 216.04 79.7842 215.956C79.053 215.868 78.3957 215.604 77.8123 215.166C77.2355 214.713 76.8024 214.108 76.5128 213.349ZM78.6279 212.542C78.7869 212.958 79.013 213.294 79.3063 213.55C79.6061 213.79 79.9403 213.944 80.3087 214.011C80.673 214.068 81.0368 214.027 81.4 213.888C81.7632 213.75 82.0617 213.538 82.2955 213.253C82.5253 212.957 82.6665 212.622 82.7192 212.247C82.7784 211.857 82.7285 211.454 82.5695 211.037C82.4105 210.62 82.179 210.287 81.8751 210.035C81.5818 209.78 81.253 209.624 80.8887 209.568C80.5243 209.511 80.1606 209.552 79.7974 209.69C79.4342 209.829 79.1357 210.041 78.9018 210.326C78.668 210.611 78.5214 210.949 78.4622 211.338C78.4136 211.724 78.4688 212.125 78.6279 212.542ZM91.0951 206.865C90.9075 206.373 90.6686 206.036 90.3785 205.853C90.0883 205.67 89.7296 205.66 89.3023 205.823C89.0139 205.933 88.782 206.095 88.6066 206.309C88.4272 206.512 88.3215 206.748 88.2896 207.018C88.2578 207.287 88.301 207.576 88.4192 207.886L90.1319 212.372L88.0489 213.168L85.2352 205.797L87.3182 205.002L87.7464 206.124C87.8117 205.621 87.9851 205.194 88.2668 204.842C88.555 204.475 88.9608 204.191 89.4842 203.991C90.3601 203.657 91.1076 203.659 91.7265 203.998C92.3414 204.327 92.818 204.934 93.1565 205.821L94.9548 210.531L92.8078 211.351L91.0951 206.865ZM93.6408 202.588L98.1913 200.851L98.858 202.598L94.3075 204.335L93.6408 202.588ZM93.9279 199.541L95.9307 198.777L99.7232 208.711L97.7203 209.476L93.9279 199.541ZM103.11 204.793C103.191 205.007 103.316 205.173 103.484 205.293C103.648 205.401 103.837 205.464 104.051 205.48C104.272 205.481 104.495 205.439 104.719 205.354C105.039 205.231 105.303 205.057 105.511 204.831C105.714 204.594 105.849 204.322 105.915 204.016C105.978 203.698 105.942 203.363 105.807 203.011L106.43 203.874C106.61 204.344 106.627 204.79 106.483 205.213C106.349 205.631 106.104 206 105.748 206.319C105.404 206.634 105.007 206.878 104.558 207.049C104.099 207.224 103.637 207.296 103.172 207.266C102.708 207.235 102.288 207.096 101.911 206.848C101.542 206.585 101.261 206.202 101.07 205.7C100.796 204.985 100.831 204.323 101.174 203.714C101.517 203.106 102.148 202.627 103.067 202.276C103.537 202.097 103.966 201.988 104.356 201.949C104.755 201.907 105.105 201.908 105.403 201.953C105.702 201.998 105.929 202.064 106.085 202.152L106.452 203.113C106.082 203.01 105.695 202.974 105.291 203.006C104.898 203.033 104.504 203.123 104.108 203.274C103.788 203.396 103.543 203.539 103.372 203.701C103.198 203.854 103.091 204.023 103.052 204.209C103.009 204.385 103.028 204.579 103.11 204.793ZM101.165 202.103L99.8573 200.986C100.164 200.636 100.561 200.265 101.047 199.871C101.529 199.467 102.112 199.134 102.796 198.873C103.426 198.632 104.021 198.509 104.582 198.503C105.143 198.497 105.629 198.617 106.042 198.864C106.45 199.1 106.75 199.469 106.941 199.971L108.935 205.194L106.933 205.959L105.104 201.168C105.026 200.965 104.929 200.806 104.812 200.692C104.691 200.567 104.542 200.483 104.367 200.44C104.202 200.392 104.02 200.382 103.822 200.409C103.625 200.435 103.413 200.491 103.189 200.577C102.847 200.708 102.536 200.869 102.255 201.062C101.973 201.255 101.741 201.448 101.557 201.641C101.374 201.833 101.243 201.987 101.165 202.103ZM111.43 200.02C111.593 200.447 111.832 200.784 112.147 201.031C112.461 201.278 112.813 201.431 113.203 201.491C113.604 201.546 114.001 201.498 114.397 201.347C114.717 201.225 115.009 201.058 115.271 200.848C115.529 200.627 115.743 200.386 115.913 200.126C116.089 199.85 116.197 199.571 116.235 199.287L117.049 201.418C116.882 201.751 116.617 202.066 116.253 202.364C115.896 202.647 115.446 202.893 114.901 203.1C114.121 203.398 113.355 203.507 112.602 203.427C111.86 203.343 111.198 203.082 110.614 202.644C110.038 202.191 109.604 201.585 109.315 200.827C109.021 200.058 108.941 199.318 109.073 198.606C109.216 197.891 109.536 197.255 110.033 196.698C110.541 196.137 111.185 195.707 111.965 195.409C112.51 195.202 113.011 195.089 113.47 195.073C113.936 195.043 114.34 195.09 114.682 195.217L115.495 197.348C115.277 197.162 115.008 197.032 114.686 196.959C114.371 196.871 114.045 196.836 113.71 196.855C113.374 196.873 113.056 196.939 112.757 197.053C112.362 197.204 112.036 197.439 111.778 197.757C111.527 198.061 111.366 198.41 111.296 198.804C111.226 199.198 111.271 199.603 111.43 200.02ZM115.747 194.149L120.298 192.412L120.965 194.158L116.414 195.896L115.747 194.149ZM116.035 191.102L118.037 190.338L121.83 200.272L119.827 201.036L116.035 191.102ZM129.715 190.836C129.997 191.573 130.409 192.156 130.952 192.585C131.502 193 132.106 193.252 132.765 193.343C133.42 193.424 134.068 193.342 134.709 193.097C135.243 192.893 135.692 192.642 136.055 192.344C136.419 192.046 136.722 191.717 136.963 191.355C137.215 190.99 137.411 190.621 137.551 190.25L138.535 192.83C138.215 193.368 137.821 193.843 137.353 194.254C136.897 194.661 136.257 195.021 135.435 195.335C134.58 195.661 133.731 195.826 132.888 195.83C132.056 195.829 131.267 195.671 130.523 195.356C129.789 195.037 129.138 194.581 128.57 193.991C128.008 193.385 127.562 192.65 127.232 191.784C126.901 190.919 126.746 190.079 126.765 189.264C126.791 188.434 126.971 187.655 127.305 186.928C127.65 186.197 128.133 185.553 128.753 184.998C129.384 184.439 130.127 183.997 130.982 183.67C131.804 183.356 132.521 183.199 133.133 183.198C133.755 183.193 134.365 183.284 134.963 183.472L135.948 186.052C135.596 185.868 135.205 185.724 134.773 185.619C134.352 185.511 133.907 185.466 133.437 185.487C132.968 185.507 132.466 185.619 131.932 185.823C131.291 186.067 130.755 186.443 130.325 186.95C129.89 187.447 129.606 188.032 129.472 188.708C129.349 189.379 129.43 190.088 129.715 190.836ZM140.6 184.662L143.413 192.032L141.378 192.809L138.565 185.439L140.6 184.662ZM143.588 185.999C143.401 185.924 143.22 185.883 143.046 185.876C142.878 185.854 142.688 185.884 142.474 185.965C142.218 186.063 142.025 186.216 141.897 186.425C141.768 186.633 141.705 186.883 141.706 187.176C141.715 187.455 141.786 187.77 141.921 188.123L141.124 187.766C140.9 187.178 140.814 186.618 140.867 186.083C140.916 185.538 141.071 185.063 141.332 184.657C141.589 184.241 141.91 183.959 142.295 183.813C142.562 183.711 142.831 183.663 143.103 183.669C143.385 183.672 143.638 183.74 143.861 183.876L143.588 185.999ZM151.326 189.195C150.525 189.501 149.764 189.608 149.043 189.516C148.323 189.424 147.689 189.158 147.142 188.718C146.601 188.264 146.182 187.646 145.884 186.867C145.582 186.076 145.484 185.337 145.588 184.648C145.699 183.945 145.994 183.324 146.474 182.786C146.95 182.237 147.594 181.808 148.406 181.498C149.218 181.188 149.964 181.075 150.644 181.158C151.331 181.226 151.932 181.486 152.447 181.938C152.958 182.379 153.365 182.995 153.666 183.786C153.703 183.882 153.737 183.985 153.767 184.096C153.807 184.203 153.835 184.29 153.849 184.359L147.247 186.879L146.758 185.597L151.549 183.768L151.269 184.719C151.287 184.639 151.292 184.539 151.283 184.42C151.281 184.286 151.266 184.182 151.237 184.107C151.099 183.744 150.911 183.461 150.674 183.257C150.448 183.05 150.184 182.918 149.881 182.862C149.578 182.807 149.261 182.842 148.93 182.968C148.524 183.123 148.217 183.345 148.009 183.632C147.807 183.905 147.699 184.246 147.684 184.656C147.675 185.051 147.764 185.507 147.949 186.023C148.136 186.515 148.365 186.905 148.634 187.194C148.914 187.478 149.233 187.657 149.591 187.728C149.948 187.8 150.33 187.758 150.736 187.603C151.195 187.427 151.553 187.193 151.808 186.9C152.07 186.592 152.24 186.221 152.319 185.787L154.344 185.656C154.224 186.498 153.912 187.217 153.405 187.814C152.905 188.396 152.212 188.857 151.326 189.195ZM157.675 183.962C157.757 184.176 157.882 184.343 158.05 184.462C158.213 184.571 158.403 184.633 158.617 184.649C158.838 184.651 159.06 184.609 159.284 184.523C159.605 184.401 159.869 184.227 160.076 184.001C160.28 183.764 160.415 183.492 160.481 183.185C160.543 182.868 160.507 182.533 160.373 182.18L160.996 183.044C161.176 183.514 161.193 183.96 161.048 184.382C160.914 184.801 160.669 185.169 160.314 185.489C159.969 185.804 159.573 186.047 159.124 186.218C158.665 186.394 158.203 186.466 157.738 186.435C157.273 186.405 156.853 186.265 156.477 186.017C156.107 185.754 155.827 185.372 155.635 184.87C155.362 184.154 155.397 183.492 155.74 182.884C156.083 182.276 156.714 181.796 157.632 181.445C158.102 181.266 158.532 181.157 158.921 181.119C159.321 181.076 159.67 181.077 159.969 181.123C160.268 181.168 160.495 181.234 160.651 181.321L161.018 182.283C160.648 182.179 160.261 182.143 159.857 182.175C159.463 182.203 159.069 182.292 158.674 182.443C158.354 182.565 158.108 182.708 157.938 182.871C157.763 183.023 157.657 183.192 157.618 183.379C157.574 183.554 157.594 183.749 157.675 183.962ZM155.73 181.272L154.423 180.156C154.73 179.806 155.127 179.434 155.613 179.041C156.095 178.636 156.678 178.304 157.361 178.043C157.992 177.802 158.587 177.679 159.148 177.673C159.708 177.667 160.195 177.787 160.607 178.033C161.015 178.269 161.315 178.638 161.507 179.14L163.501 184.364L161.498 185.128L159.669 180.337C159.592 180.134 159.495 179.976 159.377 179.861C159.256 179.736 159.108 179.652 158.932 179.609C158.767 179.562 158.586 179.552 158.388 179.578C158.19 179.605 157.979 179.661 157.755 179.747C157.413 179.877 157.101 180.039 156.82 180.232C156.539 180.425 156.307 180.618 156.123 180.81C155.939 181.002 155.809 181.156 155.73 181.272ZM162.073 176.464L166.624 174.727L167.29 176.473L162.74 178.211L162.073 176.464ZM162.36 173.417L164.363 172.653L168.155 182.587L166.153 183.351L162.36 173.417ZM174.481 180.356C173.68 180.662 172.919 180.768 172.198 180.676C171.478 180.584 170.844 180.318 170.297 179.879C169.756 179.424 169.337 178.807 169.039 178.027C168.737 177.237 168.639 176.497 168.743 175.809C168.854 175.106 169.149 174.485 169.629 173.947C170.105 173.398 170.749 172.969 171.561 172.659C172.373 172.349 173.119 172.235 173.799 172.318C174.486 172.386 175.087 172.647 175.602 173.098C176.113 173.54 176.52 174.156 176.822 174.946C176.858 175.042 176.892 175.146 176.922 175.257C176.962 175.363 176.99 175.451 177.004 175.519L170.402 178.039L169.913 176.757L174.704 174.928L174.424 175.88C174.442 175.799 174.447 175.699 174.438 175.58C174.436 175.447 174.421 175.342 174.392 175.268C174.254 174.904 174.066 174.621 173.829 174.418C173.603 174.21 173.339 174.079 173.036 174.023C172.733 173.967 172.416 174.003 172.085 174.129C171.679 174.284 171.372 174.505 171.164 174.793C170.962 175.066 170.854 175.407 170.839 175.816C170.83 176.211 170.919 176.667 171.104 177.184C171.291 177.675 171.52 178.065 171.789 178.354C172.069 178.639 172.388 178.817 172.746 178.889C173.103 178.96 173.485 178.918 173.891 178.763C174.351 178.588 174.708 178.354 174.963 178.06C175.225 177.752 175.395 177.381 175.474 176.947L177.499 176.817C177.38 177.658 177.067 178.377 176.56 178.974C176.061 179.557 175.367 180.017 174.481 180.356ZM181.02 163.357L183.103 162.561L187.874 175.059L185.791 175.855L181.02 163.357ZM178.327 174.481C178.013 173.659 177.914 172.901 178.029 172.209C178.14 171.506 178.411 170.9 178.841 170.393C179.272 169.886 179.791 169.517 180.4 169.284C181.02 169.048 181.624 168.994 182.212 169.125C182.811 169.251 183.354 169.552 183.841 170.027C184.335 170.487 184.735 171.117 185.041 171.918C185.343 172.709 185.465 173.446 185.407 174.128C185.36 174.807 185.156 175.393 184.793 175.887C184.442 176.376 183.956 176.739 183.336 176.975C182.728 177.208 182.094 177.278 181.435 177.187C180.776 177.096 180.171 176.825 179.619 176.375C179.068 175.924 178.637 175.293 178.327 174.481ZM180.474 173.662C180.642 174.1 180.877 174.444 181.181 174.695C181.485 174.947 181.824 175.098 182.199 175.151C182.575 175.204 182.938 175.163 183.291 175.028C183.601 174.91 183.869 174.716 184.096 174.445C184.33 174.16 184.477 173.823 184.536 173.433C184.606 173.039 184.555 172.618 184.384 172.169C184.213 171.721 183.97 171.373 183.655 171.126C183.351 170.875 183.019 170.726 182.659 170.68C182.305 170.619 181.973 170.648 181.664 170.766C181.311 170.901 181.013 171.113 180.768 171.402C180.524 171.691 180.372 172.03 180.312 172.42C180.253 172.81 180.307 173.224 180.474 173.662Z" fill="#353E6C"/>
<path d="M368.037 96.0104L370.46 94.2777L373.898 103.283L376.125 102.432L371.77 91.0241L367.248 93.9434L368.037 96.0104ZM386.25 94.4181C385.957 93.649 385.546 93.0532 385.017 92.6307C384.495 92.1935 383.921 91.9233 383.294 91.8199C382.667 91.7165 382.049 91.7811 381.44 92.0135C381.109 92.1399 380.796 92.2964 380.5 92.4828C380.21 92.6545 379.955 92.8681 379.735 93.1236L379.527 90.5594L383.933 88.8773L383.175 86.8905L377.07 89.221L377.942 96.1212C378.245 95.7608 378.547 95.4619 378.848 95.2246C379.155 94.9725 379.467 94.7619 379.781 94.5928C380.092 94.4129 380.397 94.2659 380.696 94.1518C381.102 93.9968 381.505 93.9289 381.903 93.9479C382.309 93.9522 382.666 94.0545 382.975 94.2547C383.295 94.4509 383.532 94.752 383.687 95.1579C383.846 95.5745 383.89 95.9616 383.818 96.3194C383.743 96.6664 383.563 96.98 383.278 97.26C383.004 97.536 382.627 97.7657 382.146 97.9492C381.836 98.0675 381.488 98.1331 381.101 98.1461C380.71 98.1484 380.314 98.1039 379.912 98.0126C379.521 97.9172 379.141 97.787 378.772 97.6219L378.377 99.8102C378.805 100.002 379.273 100.154 379.781 100.266C380.285 100.367 380.834 100.396 381.429 100.352C382.035 100.305 382.68 100.15 383.364 99.8892C383.909 99.6812 384.409 99.4046 384.864 99.0593C385.32 98.714 385.697 98.307 385.995 97.8381C386.294 97.3693 386.474 96.8477 386.536 96.2732C386.598 95.6987 386.503 95.0803 386.25 94.4181ZM385.796 88.8455C385.991 89.3583 386.296 89.7867 386.709 90.1309C387.128 90.4603 387.606 90.6696 388.142 90.7588C388.677 90.8479 389.218 90.7885 389.762 90.5806C390.318 90.3685 390.76 90.0528 391.09 89.6333C391.43 89.2097 391.641 88.7374 391.724 88.2163C391.802 87.6846 391.744 87.1623 391.548 86.6496C391.344 86.1155 391.038 85.6817 390.629 85.3482C390.22 85.0147 389.75 84.8088 389.218 84.7303C388.693 84.637 388.153 84.6964 387.597 84.9085C387.052 85.1164 386.61 85.4322 386.27 85.8558C385.926 86.2686 385.707 86.7376 385.614 87.2628C385.531 87.7839 385.592 88.3114 385.796 88.8455ZM387.526 88.1849C387.44 87.9606 387.411 87.7393 387.438 87.521C387.465 87.3027 387.543 87.1075 387.673 86.9355C387.799 86.7527 387.98 86.6165 388.215 86.5268C388.45 86.4371 388.67 86.4204 388.875 86.4767C389.087 86.5183 389.275 86.6115 389.441 86.7564C389.606 86.9013 389.732 87.0859 389.817 87.3102C389.899 87.5239 389.928 87.7452 389.906 87.9741C389.879 88.1924 389.8 88.3876 389.67 88.5597C389.551 88.7277 389.374 88.8565 389.139 88.9462C388.904 89.036 388.68 89.06 388.468 89.0184C388.257 88.9769 388.068 88.8836 387.903 88.7387C387.733 88.5832 387.608 88.3986 387.526 88.1849ZM395.398 92.1191C395.598 92.6425 395.902 93.0709 396.311 93.4044C396.731 93.7338 397.208 93.9431 397.744 94.0323C398.28 94.1215 398.82 94.0621 399.365 93.8541C399.92 93.6421 400.363 93.3263 400.692 92.9068C401.032 92.4833 401.244 92.0109 401.326 91.4899C401.409 90.9688 401.35 90.4466 401.15 89.9231C400.951 89.3997 400.646 88.9713 400.238 88.6378C399.825 88.2936 399.352 88.0823 398.821 88.0038C398.295 87.9105 397.755 87.9699 397.2 88.182C396.655 88.39 396.212 88.7057 395.872 89.1293C395.528 89.5422 395.312 90.0165 395.222 90.5523C395.14 91.0734 395.198 91.5957 395.398 92.1191ZM397.129 91.4585C397.043 91.2341 397.014 91.0128 397.04 90.7945C397.067 90.5762 397.146 90.3811 397.276 90.209C397.406 90.0369 397.589 89.906 397.824 89.8163C398.059 89.7266 398.277 89.7046 398.478 89.7502C398.689 89.7918 398.878 89.885 399.043 90.0299C399.209 90.1748 399.334 90.3594 399.42 90.5838C399.502 90.7974 399.531 91.0187 399.508 91.2477C399.481 91.466 399.403 91.6612 399.273 91.8332C399.153 92.0012 398.976 92.1301 398.741 92.2198C398.506 92.3095 398.283 92.3336 398.071 92.292C397.859 92.2504 397.671 92.1572 397.505 92.0123C397.336 91.8567 397.21 91.6721 397.129 91.4585ZM394.377 82.6141L390.487 96.9497L392.586 96.1484L396.476 81.8128L394.377 82.6141Z" fill="#45B751"/>
<path d="M411.283 77.3636L420.619 82.5998L408.231 87.6236L411.283 77.3636Z" fill="#45B751"/>
<path d="M160.951 242.996C124.311 237.98 93.3347 258.049 82.4267 268.711L104.599 325.596L456.653 190.911L442.326 154.152C429.47 143.985 396.96 131.543 369.775 163.107C335.794 202.561 305.456 203.02 278.045 193.874C256.116 186.557 238.498 203.79 232.43 213.321C223.87 225.303 197.592 248.012 160.951 242.996Z" fill="url(#paint2_linear_1_1085)"/>
<path d="M82.4227 268.701C93.3035 258.059 124.206 238.029 160.767 243.048C197.328 248.067 223.542 225.401 232.079 213.44C238.131 203.926 255.706 186.725 277.588 194.036C304.942 203.176 335.213 202.727 369.108 163.344C396.224 131.837 428.665 144.269 441.496 154.424" stroke="#24B8D2" stroke-width="1.71508" stroke-linecap="round" stroke-linejoin="round"/>
<path d="M225.64 226.756C108.912 135.82 98.4446 300.692 95.6963 301.753L103.165 321.093C109.205 336.735 126.781 344.518 142.422 338.478L436.985 224.731C452.627 218.691 460.41 201.115 454.37 185.474L432.946 129.992C421.379 201.967 395.965 197.22 384.704 185.85C360.172 163.499 306.863 133.806 289.887 193.839C272.911 253.872 239.982 240.797 225.64 226.756Z" fill="url(#paint3_linear_1_1085)"/>
<path d="M96.0229 301.541C98.7646 300.482 109.136 135.822 225.644 226.695C239.96 240.725 272.822 253.798 289.734 193.848C306.646 133.897 359.849 163.577 384.336 185.911C395.577 197.272 420.936 202.024 432.446 130.144" stroke="#7F7CFF" stroke-width="1.71508" stroke-linecap="round" stroke-linejoin="round"/>
<defs>
<filter id="filter0_bdi_1_1085" x="-5.15192" y="-9.56934" width="561.249" height="445.472" filterUnits="userSpaceOnUse" color-interpolation-filters="sRGB">
<feFlood flood-opacity="0" result="BackgroundImageFix"/>
<feGaussianBlur in="BackgroundImageFix" stdDeviation="10.7192"/>
<feComposite in2="SourceAlpha" operator="in" result="effect1_backgroundBlur_1_1085"/>
<feColorMatrix in="SourceAlpha" type="matrix" values="0 0 0 0 0 0 0 0 0 0 0 0 0 0 0 0 0 0 127 0" result="hardAlpha"/>
<feOffset dx="19.7234" dy="24.8686"/>
<feGaussianBlur stdDeviation="18.0083"/>
<feComposite in2="hardAlpha" operator="out"/>
<feColorMatrix type="matrix" values="0 0 0 0 0.633333 0 0 0 0 0.633333 0 0 0 0 0.633333 0 0 0 0.25 0"/>
<feBlend mode="multiply" in2="effect1_backgroundBlur_1_1085" result="effect2_dropShadow_1_1085"/>
<feBlend mode="normal" in="SourceGraphic" in2="effect2_dropShadow_1_1085" result="shape"/>
<feColorMatrix in="SourceAlpha" type="matrix" values="0 0 0 0 0 0 0 0 0 0 0 0 0 0 0 0 0 0 127 0" result="hardAlpha"/>
<feOffset dx="-2.57262" dy="2.57262"/>
<feComposite in2="hardAlpha" operator="arithmetic" k2="-1" k3="1"/>
<feColorMatrix type="matrix" values="0 0 0 0 1 0 0 0 0 1 0 0 0 0 1 0 0 0 1 0"/>
<feBlend mode="normal" in2="shape" result="effect3_innerShadow_1_1085"/>
</filter>
<linearGradient id="paint0_linear_1_1085" x1="414.875" y1="251.62" x2="41.4809" y2="169.936" gradientUnits="userSpaceOnUse">
<stop stop-color="#F4F4F4"/>
<stop offset="0.421875" stop-color="#F4F4F4"/>
<stop offset="1" stop-color="white"/>
</linearGradient>
<linearGradient id="paint1_linear_1_1085" x1="228.035" y1="119.794" x2="298.011" y2="294.995" gradientUnits="userSpaceOnUse">
<stop stop-color="#DADADA"/>
<stop offset="1" stop-color="white" stop-opacity="0"/>
</linearGradient>
<linearGradient id="paint2_linear_1_1085" x1="255.682" y1="194.256" x2="280.224" y2="258.407" gradientUnits="userSpaceOnUse">
<stop stop-color="#65D2E5"/>
<stop offset="1" stop-color="white" stop-opacity="0"/>
</linearGradient>
<linearGradient id="paint3_linear_1_1085" x1="244.603" y1="164.81" x2="289.704" y2="281.605" gradientUnits="userSpaceOnUse">
<stop stop-color="#6865E5"/>
<stop offset="1" stop-color="white" stop-opacity="0"/>
</linearGradient>
</defs>
</svg>
