<svg width="459" height="460" viewBox="0 0 459 460" fill="none" xmlns="http://www.w3.org/2000/svg">
<g filter="url(#filter0_bdi_1_1101)">
<rect x="6.36328" y="115.784" width="313.536" height="314.392" rx="34.3016" transform="rotate(-21.456 6.36328 115.784)" fill="url(#paint0_linear_1_1101)" fill-opacity="0.93" shape-rendering="crispEdges"/>
</g>
<path d="M308.658 182.533C329.869 236.063 303.67 296.654 250.14 317.865C196.61 339.077 136.019 312.878 114.808 259.348C93.5959 205.818 119.795 145.227 173.325 124.016C226.855 102.804 287.446 129.003 308.658 182.533ZM143.885 247.826C158.733 285.297 201.147 303.636 238.618 288.788C276.089 273.94 294.428 231.526 279.58 194.055C264.732 156.584 222.319 138.245 184.847 153.093C147.376 167.941 129.037 210.354 143.885 247.826Z" fill="white"/>
<path d="M326.105 206.392C327.81 221.095 326.603 235.989 322.552 250.226C318.501 264.462 311.686 277.761 302.495 289.363C293.305 300.966 281.919 310.644 268.988 317.846C256.057 325.048 241.834 329.633 227.131 331.338L220.638 275.358C227.99 274.506 235.101 272.213 241.567 268.612C248.032 265.011 253.725 260.172 258.32 254.371C262.915 248.57 266.323 241.92 268.348 234.802C270.374 227.684 270.978 220.237 270.125 212.885L326.105 206.392Z" fill="url(#paint1_linear_1_1101)"/>
<path d="M255.668 324.162C241.908 329.615 227.208 332.304 212.409 332.076C197.609 331.847 182.999 328.706 169.414 322.832C155.828 316.957 143.532 308.465 133.229 297.838C124.919 289.268 118.035 279.444 112.822 268.744C110.748 264.487 112.933 259.486 117.336 257.741L153.783 243.298C158.186 241.554 163.115 243.753 165.507 247.841C167.787 251.737 170.532 255.353 173.688 258.608C178.84 263.922 184.988 268.168 191.78 271.105C198.573 274.042 205.878 275.613 213.278 275.727C220.678 275.841 228.027 274.497 234.908 271.77L255.668 324.162Z" fill="url(#paint2_linear_1_1101)"/>
<path d="M175.782 122.567C174.037 118.164 176.185 113.147 180.708 111.742C194.905 107.332 209.863 105.765 224.719 107.165C242.428 108.834 259.49 114.67 274.511 124.197C289.531 133.723 302.084 146.669 311.143 161.976C320.201 177.284 325.509 194.518 326.63 212.269L270.387 215.824C269.826 206.948 267.173 198.331 262.644 190.677C258.114 183.024 251.838 176.551 244.327 171.788C236.817 167.024 228.286 164.106 219.432 163.272C213.434 162.707 207.403 163.108 201.565 164.445C196.949 165.502 191.969 163.417 190.225 159.014L175.782 122.567Z" fill="url(#paint3_linear_1_1101)"/>
<path d="M184.846 214.883C185.328 215.28 185.818 215.597 186.314 215.834C186.823 216.065 187.325 216.199 187.82 216.236C188.327 216.267 188.815 216.189 189.283 216.004C189.778 215.808 190.139 215.526 190.364 215.158C190.585 214.776 190.61 214.371 190.441 213.943C190.297 213.582 190.09 213.332 189.818 213.192C189.54 213.039 189.154 212.944 188.66 212.907C188.166 212.871 187.527 212.861 186.744 212.877C186.362 212.889 185.908 212.876 185.382 212.837C184.869 212.792 184.352 212.68 183.831 212.499C183.306 212.305 182.82 212.017 182.375 211.637C181.925 211.242 181.562 210.697 181.286 210.002C180.957 209.172 180.888 208.372 181.077 207.6C181.28 206.823 181.689 206.135 182.303 205.536C182.925 204.918 183.69 204.428 184.6 204.068C185.537 203.697 186.407 203.53 187.211 203.567C188.029 203.599 188.758 203.759 189.398 204.047C190.039 204.335 190.575 204.672 191.006 205.059L188.99 207.529C188.657 207.274 188.309 207.079 187.946 206.945C187.591 206.791 187.226 206.711 186.852 206.705C186.486 206.679 186.123 206.738 185.762 206.881C185.28 207.072 184.954 207.325 184.785 207.64C184.61 207.941 184.584 208.246 184.706 208.554C184.833 208.875 185.065 209.108 185.401 209.253C185.751 209.393 186.193 209.474 186.727 209.494C187.275 209.509 187.922 209.501 188.667 209.468C189.236 209.459 189.786 209.497 190.314 209.582C190.838 209.653 191.329 209.799 191.788 210.019C192.26 210.235 192.68 210.533 193.048 210.913C193.415 211.294 193.716 211.779 193.949 212.367C194.23 213.076 194.335 213.77 194.263 214.449C194.199 215.109 193.994 215.724 193.648 216.295C193.314 216.86 192.871 217.361 192.316 217.797C191.78 218.242 191.184 218.594 190.529 218.854C189.619 219.214 188.706 219.39 187.789 219.382C186.881 219.355 186.028 219.175 185.23 218.841C184.432 218.507 183.74 218.069 183.154 217.527L184.846 214.883ZM199.203 211.563C199.298 211.803 199.44 211.987 199.63 212.113C199.814 212.226 200.025 212.289 200.262 212.304C200.495 212.304 200.731 212.257 200.972 212.162C201.32 212.024 201.612 211.823 201.848 211.559C202.084 211.295 202.237 210.979 202.308 210.611C202.379 210.242 202.329 209.844 202.16 209.416L202.958 210.492C203.191 211.081 203.229 211.646 203.073 212.188C202.911 212.717 202.618 213.189 202.194 213.605C201.765 214.007 201.257 214.324 200.668 214.558C200.079 214.791 199.488 214.901 198.895 214.889C198.31 214.857 197.776 214.682 197.294 214.362C196.824 214.037 196.465 213.561 196.216 212.932C195.866 212.049 195.905 211.229 196.332 210.471C196.754 209.7 197.54 209.087 198.691 208.631C199.253 208.408 199.776 208.263 200.26 208.195C200.757 208.122 201.198 208.102 201.583 208.135C201.967 208.168 202.274 208.24 202.504 208.351L203.037 209.695C202.62 209.581 202.174 209.549 201.698 209.599C201.23 209.629 200.762 209.737 200.294 209.923C199.933 210.066 199.661 210.22 199.479 210.385C199.297 210.55 199.184 210.734 199.14 210.937C199.092 211.127 199.112 211.335 199.203 211.563ZM196.466 208.584L194.64 206.962C195.061 206.501 195.594 206.011 196.24 205.492C196.886 204.973 197.643 204.542 198.513 204.197C199.329 203.874 200.106 203.705 200.843 203.691C201.576 203.664 202.217 203.797 202.766 204.09C203.316 204.384 203.718 204.851 203.972 205.493L206.549 211.995L203.639 213.148L201.333 207.329C201.243 207.101 201.126 206.923 200.982 206.794C200.846 206.647 200.68 206.542 200.486 206.48C200.291 206.418 200.069 206.405 199.82 206.442C199.585 206.473 199.327 206.544 199.046 206.656C198.631 206.82 198.242 207.029 197.878 207.281C197.527 207.529 197.231 207.778 196.989 208.028C196.743 208.265 196.568 208.45 196.466 208.584ZM203.117 195.245L206.167 194.036L212.369 209.689L209.319 210.897L203.117 195.245ZM220.005 206.895C218.935 207.319 217.928 207.494 216.985 207.418C216.05 207.325 215.225 207.001 214.511 206.448C213.797 205.896 213.246 205.131 212.859 204.154C212.467 203.164 212.335 202.226 212.463 201.339C212.592 200.452 212.967 199.661 213.589 198.966C214.225 198.265 215.078 197.703 216.148 197.279C217.218 196.854 218.195 196.684 219.08 196.767C219.959 196.837 220.73 197.142 221.394 197.684C222.057 198.226 222.585 198.992 222.977 199.982C223.036 200.129 223.094 200.277 223.152 200.424C223.205 200.558 223.237 200.677 223.247 200.781L214.819 204.121L214.151 202.435L219.85 200.177L219.494 201.386C219.523 201.266 219.532 201.131 219.519 200.981C219.514 200.813 219.493 200.682 219.456 200.588C219.297 200.187 219.086 199.868 218.822 199.632C218.558 199.396 218.261 199.251 217.929 199.196C217.598 199.142 217.252 199.186 216.891 199.329C216.436 199.51 216.094 199.761 215.866 200.084C215.638 200.406 215.526 200.807 215.53 201.285C215.542 201.745 215.663 202.285 215.893 202.906C216.116 203.467 216.387 203.917 216.707 204.255C217.026 204.593 217.389 204.805 217.795 204.892C218.195 204.965 218.63 204.909 219.098 204.724C219.633 204.512 220.048 204.231 220.343 203.882C220.652 203.528 220.84 203.105 220.909 202.613L223.88 202.202C223.759 203.302 223.374 204.244 222.725 205.028C222.089 205.806 221.182 206.429 220.005 206.895Z" fill="#303030"/>
<path d="M195.081 229.343L196.21 228.896C196.133 230.226 196.223 231.567 196.479 232.916C196.735 234.266 197.118 235.583 197.627 236.867C198.132 238.141 198.753 239.358 199.491 240.517C200.229 241.676 201.083 242.719 202.054 243.646L200.926 244.093C199.874 243.198 198.96 242.179 198.182 241.036C197.414 239.889 196.777 238.678 196.272 237.404C195.763 236.12 195.396 234.797 195.17 233.435C194.954 232.07 194.924 230.706 195.081 229.343ZM198.562 230.75L198.085 229.546L205.46 226.624L204.593 239.157L203.253 239.688L204.026 228.585L198.562 230.75ZM216.732 230.341C216.971 230.943 217.084 231.508 217.073 232.035C217.061 232.562 216.944 233.044 216.722 233.48C216.5 233.916 216.198 234.297 215.817 234.622C215.435 234.948 214.988 235.212 214.476 235.415C213.834 235.669 213.232 235.791 212.671 235.782C212.12 235.768 211.608 235.663 211.136 235.467C210.67 235.257 210.242 234.997 209.852 234.687L210.643 233.52C210.923 233.758 211.247 233.96 211.615 234.128C211.99 234.281 212.386 234.374 212.805 234.405C213.22 234.427 213.618 234.362 213.999 234.211C214.501 234.012 214.888 233.743 215.159 233.403C215.431 233.063 215.585 232.677 215.623 232.244C215.67 231.807 215.599 231.348 215.408 230.866C215.217 230.385 214.945 230.005 214.591 229.727C214.247 229.445 213.855 229.276 213.414 229.218C212.983 229.157 212.542 229.215 212.091 229.394C211.76 229.526 211.465 229.677 211.208 229.849C210.957 230.006 210.719 230.211 210.494 230.462C210.275 230.7 210.034 231.016 209.772 231.41L208.932 225.248L213.899 223.279L214.346 224.408L210.373 225.983L210.769 229.047C210.968 228.818 211.186 228.621 211.423 228.457C211.666 228.28 211.918 228.139 212.179 228.036C212.781 227.797 213.378 227.735 213.969 227.849C214.57 227.959 215.111 228.227 215.592 228.651C216.074 229.076 216.454 229.639 216.732 230.341ZM216.461 224.876C216.282 224.425 216.217 223.981 216.264 223.544C216.322 223.103 216.489 222.706 216.767 222.352C217.041 221.988 217.413 221.713 217.885 221.526C218.367 221.335 218.827 221.28 219.265 221.362C219.71 221.43 220.099 221.606 220.433 221.892C220.777 222.174 221.038 222.54 221.217 222.992C221.392 223.433 221.453 223.879 221.399 224.33C221.352 224.767 221.191 225.167 220.917 225.531C220.65 225.881 220.275 226.151 219.793 226.342C219.322 226.529 218.864 226.589 218.419 226.521C217.97 226.443 217.574 226.264 217.23 225.982C216.892 225.686 216.636 225.318 216.461 224.876ZM217.53 224.453C217.629 224.704 217.773 224.92 217.961 225.101C218.158 225.278 218.379 225.394 218.621 225.448C218.873 225.499 219.135 225.471 219.406 225.364C219.687 225.253 219.897 225.094 220.036 224.888C220.175 224.682 220.251 224.449 220.263 224.188C220.286 223.924 220.248 223.666 220.149 223.415C220.045 223.154 219.897 222.94 219.703 222.773C219.515 222.592 219.3 222.474 219.058 222.42C218.815 222.365 218.554 222.393 218.273 222.504C218.002 222.612 217.792 222.77 217.643 222.98C217.504 223.186 217.423 223.421 217.4 223.686C217.383 223.936 217.426 224.192 217.53 224.453ZM224.34 228.72C224.161 228.268 224.096 227.824 224.143 227.387C224.201 226.947 224.368 226.549 224.646 226.195C224.92 225.832 225.292 225.556 225.764 225.369C226.246 225.179 226.706 225.124 227.144 225.205C227.589 225.273 227.978 225.45 228.312 225.735C228.656 226.017 228.917 226.384 229.096 226.835C229.271 227.277 229.332 227.723 229.278 228.174C229.231 228.61 229.07 229.011 228.796 229.374C228.529 229.724 228.154 229.995 227.673 230.186C227.201 230.372 226.743 230.432 226.298 230.365C225.849 230.287 225.453 230.107 225.109 229.826C224.772 229.53 224.515 229.161 224.34 228.72ZM225.409 228.296C225.508 228.547 225.652 228.763 225.84 228.944C226.038 229.121 226.258 229.237 226.5 229.292C226.752 229.343 227.014 229.315 227.285 229.207C227.566 229.096 227.776 228.937 227.915 228.731C228.054 228.525 228.13 228.292 228.142 228.032C228.165 227.767 228.127 227.509 228.028 227.259C227.924 226.998 227.776 226.784 227.582 226.617C227.394 226.436 227.179 226.318 226.937 226.263C226.694 226.208 226.433 226.236 226.152 226.348C225.881 226.455 225.671 226.614 225.522 226.824C225.383 227.03 225.302 227.265 225.279 227.529C225.262 227.78 225.306 228.035 225.409 228.296ZM223.513 219.47L224.642 219.022L222.044 232.242L220.915 232.689L223.513 219.47ZM238.806 229.082L237.677 229.53C237.76 228.185 237.668 226.84 237.402 225.494C237.146 224.145 236.765 222.833 236.26 221.559C235.751 220.274 235.128 219.053 234.39 217.894C233.662 216.731 232.81 215.693 231.833 214.78L232.961 214.333C234.009 215.218 234.916 216.234 235.684 217.381C236.462 218.524 237.106 219.737 237.615 221.022C238.12 222.296 238.48 223.616 238.696 224.982C238.922 226.343 238.959 227.71 238.806 229.082Z" fill="#404040"/>
<path d="M63.8991 140.94L63.2018 139.114L68.7297 137.003C69.088 137.846 69.2944 138.691 69.3489 139.539C69.4141 140.383 69.3132 141.193 69.0461 141.968C68.7856 142.728 68.3607 143.41 67.7715 144.015C67.1822 144.619 66.4282 145.097 65.5096 145.447C64.6443 145.778 63.7881 145.939 62.941 145.932C62.1045 145.921 61.314 145.758 60.5694 145.442C59.8355 145.123 59.1803 144.657 58.6039 144.045C58.0382 143.429 57.5902 142.688 57.2599 141.823C56.9296 140.957 56.7774 140.11 56.8033 139.28C56.8357 138.435 57.0265 137.653 57.3755 136.932C57.7246 136.211 58.2146 135.571 58.8457 135.012C59.4767 134.453 60.2248 134.008 61.0901 133.678C61.8592 133.384 62.5889 133.228 63.2794 133.209C63.9805 133.187 64.6394 133.278 65.2562 133.483C65.8796 133.673 66.4622 133.965 67.0038 134.358L65.4833 136.242C65.018 135.856 64.4772 135.61 63.861 135.502C63.2514 135.38 62.5887 135.456 61.873 135.729C61.2 135.986 60.645 136.375 60.2078 136.897C59.7665 137.408 59.4883 138.01 59.3733 138.703C59.269 139.391 59.3657 140.125 59.6633 140.905C59.9569 141.674 60.3761 142.291 60.9209 142.756C61.4615 143.211 62.0654 143.494 62.7325 143.607C63.4103 143.715 64.0964 143.637 64.7907 143.372C65.25 143.197 65.6389 142.981 65.9572 142.725C66.2714 142.458 66.5139 142.163 66.6847 141.841C66.8661 141.515 66.9925 141.173 67.064 140.815C67.1355 140.457 67.1541 140.089 67.1197 139.711L63.8991 140.94ZM68.3254 129.704L70.4084 128.909L75.1795 141.407L73.0965 142.202L68.3254 129.704ZM75.7244 136.977C75.4308 136.208 75.3502 135.467 75.4825 134.756C75.6254 134.04 75.9402 133.406 76.4267 132.853C76.924 132.296 77.5625 131.869 78.3422 131.571C79.122 131.274 79.8775 131.169 80.6087 131.257C81.3506 131.341 82.0079 131.604 82.5806 132.046C83.164 132.484 83.6025 133.088 83.8961 133.857C84.1856 134.616 84.2609 135.358 84.122 136.084C83.9897 136.795 83.675 137.43 83.1778 137.987C82.6912 138.539 82.0581 138.965 81.2783 139.262C80.4985 139.56 79.7377 139.667 78.9958 139.583C78.2646 139.495 77.6073 139.232 77.0239 138.794C76.4471 138.341 76.0139 137.735 75.7244 136.977ZM77.8394 136.169C77.9985 136.586 78.2246 136.922 78.5179 137.177C78.8177 137.417 79.1519 137.571 79.5203 137.639C79.8846 137.695 80.2484 137.655 80.6116 137.516C80.9747 137.377 81.2733 137.165 81.5071 136.88C81.7369 136.584 81.8781 136.249 81.9308 135.874C81.99 135.484 81.9401 135.081 81.7811 134.665C81.622 134.248 81.3906 133.914 81.0866 133.663C80.7934 133.408 80.4646 133.252 80.1003 133.195C79.7359 133.138 79.3722 133.179 79.009 133.318C78.6458 133.457 78.3473 133.668 78.1134 133.953C77.8796 134.239 77.733 134.576 77.6738 134.966C77.6252 135.351 77.6804 135.753 77.8394 136.169ZM84.5243 123.52L89.2954 136.018L87.2125 136.813L82.4414 124.316L84.5243 123.52ZM93.9452 130.021C94.2552 130.833 94.3547 131.59 94.2437 132.293C94.1328 132.997 93.862 133.602 93.4314 134.109C93.0115 134.612 92.4918 134.982 91.8722 135.218C91.2633 135.451 90.6594 135.504 90.0605 135.377C89.4722 135.247 88.9291 134.946 88.4312 134.476C87.9332 134.005 87.5334 133.374 87.2316 132.584C86.9258 131.783 86.8037 131.046 86.8653 130.374C86.9228 129.691 87.1274 129.105 87.4792 128.616C87.8416 128.122 88.3273 127.76 88.9361 127.527C89.5557 127.291 90.1896 127.22 90.8379 127.315C91.4969 127.406 92.102 127.677 92.6534 128.127C93.2006 128.567 93.6312 129.198 93.9452 130.021ZM91.7982 130.84C91.631 130.403 91.3954 130.058 91.0915 129.807C90.7876 129.556 90.4481 129.404 90.0731 129.351C89.7087 129.294 89.345 129.335 88.9818 129.474C88.672 129.592 88.4002 129.794 88.1663 130.079C87.9391 130.349 87.7905 130.681 87.7206 131.075C87.6613 131.465 87.7173 131.884 87.8886 132.333C88.0598 132.782 88.2974 133.131 88.6014 133.383C88.916 133.63 89.2501 133.784 89.6038 133.844C89.964 133.89 90.2991 133.854 90.6088 133.736C90.972 133.597 91.2705 133.386 91.5044 133.101C91.7489 132.811 91.9008 132.472 91.9601 132.082C92.0193 131.692 91.9654 131.278 91.7982 130.84ZM97.8993 130.108C97.9809 130.322 98.1056 130.489 98.2736 130.608C98.4375 130.717 98.6266 130.779 98.8408 130.795C99.0616 130.797 99.2842 130.755 99.5085 130.669C99.829 130.547 100.093 130.373 100.3 130.147C100.504 129.91 100.639 129.638 100.705 129.331C100.767 129.014 100.731 128.679 100.597 128.326L101.22 129.19C101.4 129.66 101.417 130.106 101.272 130.528C101.138 130.947 100.893 131.315 100.538 131.635C100.193 131.95 99.7965 132.193 99.3479 132.364C98.8886 132.54 98.4266 132.612 97.9621 132.581C97.4975 132.551 97.0772 132.411 96.701 132.163C96.3314 131.9 96.0508 131.518 95.8591 131.016C95.5859 130.3 95.6208 129.638 95.9638 129.03C96.3069 128.422 96.9377 127.942 97.8563 127.591C98.3263 127.412 98.7559 127.303 99.1451 127.265C99.545 127.222 99.8943 127.223 100.193 127.269C100.492 127.314 100.719 127.38 100.875 127.467L101.242 128.429C100.872 128.325 100.485 128.289 100.081 128.321C99.6875 128.349 99.2933 128.438 98.898 128.589C98.5776 128.711 98.3322 128.854 98.1618 129.017C97.9874 129.169 97.8807 129.338 97.8417 129.525C97.7985 129.7 97.8177 129.895 97.8993 130.108ZM95.9543 127.418L94.6469 126.302C94.954 125.952 95.3506 125.58 95.8368 125.187C96.3188 124.782 96.9017 124.45 97.5853 124.189C98.2155 123.948 98.811 123.825 99.3717 123.819C99.9324 123.813 100.419 123.933 100.831 124.179C101.239 124.415 101.539 124.784 101.731 125.286L103.725 130.51L101.722 131.274L99.8933 126.483C99.8158 126.28 99.7185 126.122 99.6014 126.007C99.4802 125.882 99.3319 125.798 99.1563 125.755C98.9914 125.708 98.81 125.698 98.6121 125.724C98.4142 125.751 98.2031 125.807 97.9788 125.893C97.637 126.023 97.3254 126.185 97.0442 126.378C96.763 126.571 96.5306 126.764 96.347 126.956C96.1635 127.148 96.0326 127.302 95.9543 127.418ZM101.285 117.122L103.368 116.327L108.139 128.825L106.056 129.62L101.285 117.122ZM115.524 121.691C115.918 122.018 116.313 122.283 116.709 122.487C117.116 122.687 117.523 122.807 117.93 122.847C118.337 122.888 118.738 122.833 119.133 122.682C119.593 122.506 119.922 122.246 120.12 121.901C120.319 121.556 120.341 121.18 120.186 120.774C120.051 120.422 119.853 120.174 119.589 120.029C119.337 119.881 119.004 119.794 118.59 119.768C118.183 119.728 117.692 119.707 117.116 119.707C116.813 119.712 116.454 119.702 116.04 119.677C115.633 119.636 115.226 119.547 114.818 119.409C114.406 119.26 114.028 119.038 113.682 118.741C113.332 118.434 113.055 118.014 112.852 117.479C112.607 116.839 112.557 116.227 112.702 115.646C112.854 115.049 113.161 114.522 113.622 114.064C114.091 113.592 114.672 113.223 115.366 112.958C116.082 112.685 116.743 112.573 117.35 112.623C117.963 112.658 118.512 112.798 118.996 113.041C119.487 113.27 119.904 113.545 120.248 113.867L118.832 115.545C118.581 115.335 118.307 115.164 118.012 115.032C117.724 114.885 117.421 114.799 117.105 114.772C116.785 114.736 116.454 114.782 116.112 114.913C115.664 115.084 115.368 115.319 115.225 115.619C115.079 115.907 115.058 116.19 115.164 116.468C115.27 116.746 115.455 116.957 115.718 117.101C115.977 117.235 116.33 117.326 116.777 117.376C117.221 117.415 117.762 117.422 118.402 117.399C118.814 117.388 119.222 117.416 119.627 117.482C120.042 117.543 120.436 117.662 120.809 117.838C121.189 117.999 121.525 118.238 121.817 118.555C122.116 118.857 122.357 119.248 122.54 119.729C122.748 120.273 122.827 120.8 122.777 121.309C122.726 121.818 122.571 122.293 122.311 122.735C122.048 123.166 121.709 123.546 121.296 123.875C120.898 124.211 120.443 124.477 119.93 124.672C119.246 124.933 118.556 125.05 117.86 125.022C117.171 124.979 116.522 124.817 115.912 124.535C115.303 124.254 114.776 123.898 114.33 123.469L115.524 121.691ZM122.057 115.067L126.607 113.33L127.274 115.076L122.723 116.813L122.057 115.067ZM122.344 112.02L124.347 111.255L128.139 121.19L126.136 121.954L122.344 112.02ZM131.526 117.272C131.607 117.485 131.732 117.652 131.9 117.771C132.064 117.88 132.253 117.942 132.467 117.959C132.688 117.96 132.91 117.918 133.135 117.832C133.455 117.71 133.719 117.536 133.927 117.31C134.13 117.073 134.265 116.801 134.331 116.494C134.394 116.177 134.358 115.842 134.223 115.489L134.846 116.353C135.026 116.823 135.043 117.269 134.898 117.691C134.764 118.11 134.52 118.478 134.164 118.798C133.819 119.113 133.423 119.356 132.974 119.527C132.515 119.703 132.053 119.775 131.588 119.744C131.124 119.714 130.703 119.574 130.327 119.326C129.958 119.063 129.677 118.681 129.485 118.179C129.212 117.463 129.247 116.801 129.59 116.193C129.933 115.585 130.564 115.105 131.483 114.755C131.953 114.575 132.382 114.466 132.771 114.428C133.171 114.385 133.521 114.387 133.819 114.432C134.118 114.477 134.345 114.543 134.501 114.63L134.868 115.592C134.498 115.488 134.111 115.452 133.707 115.484C133.314 115.512 132.92 115.601 132.524 115.752C132.204 115.874 131.958 116.017 131.788 116.18C131.614 116.332 131.507 116.502 131.468 116.688C131.425 116.863 131.444 117.058 131.526 117.272ZM129.581 114.581L128.273 113.465C128.58 113.115 128.977 112.743 129.463 112.35C129.945 111.945 130.528 111.613 131.212 111.352C131.842 111.111 132.437 110.988 132.998 110.982C133.559 110.976 134.045 111.096 134.457 111.343C134.866 111.578 135.166 111.947 135.357 112.449L137.351 117.673L135.348 118.437L133.52 113.647C133.442 113.444 133.345 113.285 133.228 113.171C133.106 113.045 132.958 112.961 132.783 112.918C132.618 112.871 132.436 112.861 132.238 112.887C132.04 112.914 131.829 112.97 131.605 113.056C131.263 113.186 130.952 113.348 130.67 113.541C130.389 113.734 130.157 113.927 129.973 114.119C129.79 114.312 129.659 114.466 129.581 114.581ZM135.923 109.773L140.474 108.036L141.141 109.783L136.59 111.52L135.923 109.773ZM136.21 106.726L138.213 105.962L142.006 115.896L140.003 116.661L136.21 106.726ZM140.794 104.646C140.664 104.304 140.681 103.98 140.845 103.672C141.005 103.354 141.256 103.13 141.597 102.999C141.939 102.869 142.271 102.871 142.591 103.005C142.918 103.125 143.147 103.356 143.278 103.698C143.404 104.029 143.387 104.354 143.227 104.672C143.078 104.986 142.832 105.208 142.491 105.339C142.149 105.469 141.812 105.469 141.481 105.339C141.149 105.208 140.921 104.977 140.794 104.646ZM142.107 107.413L144.126 106.642L146.94 114.012L144.921 114.783L142.107 107.413ZM148.939 110.33C149.359 110.5 149.737 110.625 150.074 110.705C150.406 110.774 150.706 110.806 150.974 110.802C151.252 110.794 151.498 110.749 151.712 110.667C151.989 110.561 152.18 110.421 152.285 110.246C152.386 110.061 152.395 109.861 152.314 109.648C152.24 109.455 152.115 109.32 151.938 109.24C151.767 109.146 151.544 109.091 151.269 109.074C150.993 109.057 150.651 109.059 150.243 109.08C149.852 109.082 149.464 109.059 149.078 109.01C148.688 108.951 148.332 108.818 148.008 108.611C147.691 108.39 147.444 108.049 147.269 107.59C147.102 107.152 147.079 106.739 147.2 106.35C147.316 105.95 147.544 105.6 147.882 105.3C148.227 104.985 148.645 104.733 149.136 104.546C149.553 104.387 149.963 104.291 150.367 104.259C150.771 104.228 151.162 104.243 151.541 104.307C151.917 104.359 152.266 104.458 152.591 104.604L152.167 106.234C151.79 106.048 151.38 105.935 150.937 105.896C150.504 105.853 150.112 105.899 149.759 106.034C149.524 106.123 149.356 106.243 149.253 106.392C149.158 106.526 149.145 106.684 149.214 106.866C149.275 107.026 149.394 107.146 149.571 107.225C149.755 107.289 149.988 107.323 150.271 107.325C150.564 107.324 150.897 107.331 151.27 107.347C151.723 107.346 152.151 107.378 152.556 107.444C152.967 107.495 153.327 107.621 153.636 107.821C153.945 108.022 154.185 108.346 154.356 108.795C154.638 109.532 154.617 110.2 154.296 110.8C153.97 111.39 153.385 111.846 152.541 112.168C152.018 112.368 151.511 112.482 151.02 112.51C150.54 112.534 150.08 112.501 149.642 112.412C149.211 112.307 148.805 112.174 148.425 112.013L148.939 110.33ZM153.226 103.168L157.777 101.431L158.443 103.177L153.893 104.914L153.226 103.168ZM153.513 100.121L155.516 99.3564L159.309 109.291L157.306 110.055L153.513 100.121ZM158.097 98.0407C157.967 97.6988 157.983 97.3742 158.148 97.0668C158.308 96.7487 158.559 96.5244 158.9 96.3939C159.242 96.2634 159.573 96.2654 159.894 96.4001C160.221 96.5199 160.45 96.7507 160.581 97.0926C160.707 97.4237 160.69 97.7483 160.53 98.0664C160.381 98.3805 160.135 98.6027 159.793 98.7332C159.452 98.8637 159.115 98.8637 158.784 98.7332C158.452 98.6026 158.224 98.3718 158.097 98.0407ZM159.41 100.807L161.429 100.036L164.243 107.407L162.224 108.178L159.41 100.807ZM167.01 102.128C167.173 102.556 167.412 102.893 167.726 103.14C168.041 103.387 168.393 103.54 168.783 103.599C169.183 103.655 169.581 103.607 169.976 103.456C170.297 103.333 170.588 103.167 170.851 102.957C171.109 102.736 171.323 102.495 171.493 102.234C171.669 101.959 171.777 101.679 171.815 101.395L172.629 103.526C172.462 103.859 172.197 104.175 171.833 104.473C171.476 104.756 171.025 105.001 170.481 105.209C169.701 105.507 168.935 105.616 168.182 105.536C167.44 105.452 166.778 105.191 166.194 104.753C165.617 104.3 165.184 103.694 164.895 102.936C164.601 102.167 164.52 101.426 164.653 100.715C164.796 99.9995 165.116 99.3633 165.613 98.8063C166.121 98.2453 166.765 97.8159 167.545 97.5182C168.089 97.3103 168.591 97.1982 169.05 97.1821C169.516 97.1513 169.919 97.1991 170.261 97.3255L171.075 99.4566C170.857 99.2705 170.587 99.141 170.266 99.0679C169.951 98.9801 169.625 98.9452 169.289 98.9633C168.954 98.9813 168.636 99.0474 168.337 99.1616C167.942 99.3125 167.615 99.5473 167.358 99.866C167.107 100.17 166.946 100.519 166.876 100.913C166.806 101.307 166.851 101.712 167.01 102.128Z" fill="#353E6C"/>
<defs>
<filter id="filter0_bdi_1_1101" x="-4.91446" y="-10.1812" width="463.665" height="469.293" filterUnits="userSpaceOnUse" color-interpolation-filters="sRGB">
<feFlood flood-opacity="0" result="BackgroundImageFix"/>
<feGaussianBlur in="BackgroundImageFix" stdDeviation="10.7192"/>
<feComposite in2="SourceAlpha" operator="in" result="effect1_backgroundBlur_1_1101"/>
<feColorMatrix in="SourceAlpha" type="matrix" values="0 0 0 0 0 0 0 0 0 0 0 0 0 0 0 0 0 0 127 0" result="hardAlpha"/>
<feOffset dx="19.7234" dy="24.8686"/>
<feGaussianBlur stdDeviation="18.0083"/>
<feComposite in2="hardAlpha" operator="out"/>
<feColorMatrix type="matrix" values="0 0 0 0 0.633333 0 0 0 0 0.633333 0 0 0 0 0.633333 0 0 0 0.25 0"/>
<feBlend mode="multiply" in2="effect1_backgroundBlur_1_1101" result="effect2_dropShadow_1_1101"/>
<feBlend mode="normal" in="SourceGraphic" in2="effect2_dropShadow_1_1101" result="shape"/>
<feColorMatrix in="SourceAlpha" type="matrix" values="0 0 0 0 0 0 0 0 0 0 0 0 0 0 0 0 0 0 127 0" result="hardAlpha"/>
<feOffset dx="-2.57262" dy="2.57262"/>
<feComposite in2="hardAlpha" operator="arithmetic" k2="-1" k3="1"/>
<feColorMatrix type="matrix" values="0 0 0 0 1 0 0 0 0 1 0 0 0 0 1 0 0 0 1 0"/>
<feBlend mode="normal" in2="shape" result="effect3_innerShadow_1_1101"/>
</filter>
<linearGradient id="paint0_linear_1_1101" x1="292.234" y1="230.43" x2="20.3739" y2="199.616" gradientUnits="userSpaceOnUse">
<stop stop-color="#F4F4F4"/>
<stop offset="0.421875" stop-color="#F4F4F4"/>
<stop offset="1" stop-color="white"/>
</linearGradient>
<linearGradient id="paint1_linear_1_1101" x1="67.8399" y1="156.116" x2="360.45" y2="282.641" gradientUnits="userSpaceOnUse">
<stop stop-color="#FFF6B7"/>
<stop offset="1" stop-color="#F6416C"/>
</linearGradient>
<linearGradient id="paint2_linear_1_1101" x1="67.8419" y1="156.116" x2="360.452" y2="282.641" gradientUnits="userSpaceOnUse">
<stop stop-color="#FFE985"/>
<stop offset="1" stop-color="#FA742B"/>
</linearGradient>
<linearGradient id="paint3_linear_1_1101" x1="67.8394" y1="156.116" x2="360.45" y2="282.641" gradientUnits="userSpaceOnUse">
<stop stop-color="#CE9FFC"/>
<stop offset="1" stop-color="#7367F0"/>
</linearGradient>
</defs>
</svg>
