<svg width="198" height="40" viewBox="0 0 198 40" fill="none" xmlns="http://www.w3.org/2000/svg">
<path d="M18.4972 5.52129C19.0145 3.92912 21.267 3.92912 21.7843 5.52129L24.0821 12.5932C24.3135 13.3053 24.977 13.7873 25.7257 13.7873L33.1616 13.7873C34.8357 13.7873 35.5317 15.9296 34.1774 16.9136L28.1616 21.2843C27.5559 21.7244 27.3025 22.5044 27.5338 23.2164L29.8316 30.2884C30.349 31.8805 28.5267 33.2045 27.1723 32.2205L21.1565 27.8498C20.5508 27.4097 19.7307 27.4097 19.125 27.8498L13.1092 32.2205C11.7548 33.2045 9.93254 31.8805 10.4499 30.2884L12.7477 23.2164C12.979 22.5044 12.7256 21.7244 12.1199 21.2843L6.10415 16.9136C4.74977 15.9296 5.44583 13.7873 7.11993 13.7873L14.5558 13.7873C15.3045 13.7873 15.968 13.3053 16.1994 12.5932L18.4972 5.52129Z" fill="#FFB545"/>
<path d="M58.0639 5.52129C58.5812 3.92912 60.8337 3.92912 61.351 5.52129L63.6488 12.5932C63.8802 13.3053 64.5437 13.7873 65.2924 13.7873L72.7283 13.7873C74.4024 13.7873 75.0984 15.9296 73.744 16.9136L67.7283 21.2843C67.1226 21.7244 66.8692 22.5044 67.1005 23.2164L69.3983 30.2884C69.9156 31.8805 68.0933 33.2045 66.739 32.2205L60.7232 27.8498C60.1175 27.4097 59.2973 27.4097 58.6917 27.8498L52.6759 32.2205C51.3215 33.2045 49.4992 31.8805 50.0166 30.2884L52.3144 23.2164C52.5457 22.5044 52.2923 21.7244 51.6866 21.2843L45.6708 16.9136C44.3164 15.9296 45.0125 13.7873 46.6866 13.7873L54.1225 13.7873C54.8712 13.7873 55.5347 13.3053 55.7661 12.5932L58.0639 5.52129Z" fill="#FFB545"/>
<path d="M97.6305 5.52129C98.1478 3.92912 100.4 3.92912 100.918 5.52129L103.215 12.5932C103.447 13.3053 104.11 13.7873 104.859 13.7873L112.295 13.7873C113.969 13.7873 114.665 15.9296 113.311 16.9136L107.295 21.2843C106.689 21.7244 106.436 22.5044 106.667 23.2164L108.965 30.2884C109.482 31.8805 107.66 33.2045 106.306 32.2205L100.29 27.8498C99.6842 27.4097 98.864 27.4097 98.2583 27.8498L92.2426 32.2205C90.8882 33.2045 89.0659 31.8805 89.5832 30.2884L91.881 23.2164C92.1124 22.5044 91.8589 21.7244 91.2532 21.2843L85.2375 16.9136C83.8831 15.9296 84.5792 13.7873 86.2533 13.7873L93.6891 13.7873C94.4378 13.7873 95.1013 13.3053 95.3327 12.5932L97.6305 5.52129Z" fill="#FFB545"/>
<path d="M137.197 5.52129C137.715 3.92912 139.967 3.92912 140.484 5.52129L142.782 12.5932C143.014 13.3053 143.677 13.7873 144.426 13.7873L151.862 13.7873C153.536 13.7873 154.232 15.9296 152.877 16.9136L146.862 21.2843C146.256 21.7244 146.002 22.5044 146.234 23.2164L148.532 30.2884C149.049 31.8805 147.227 33.2045 145.872 32.2205L139.857 27.8498C139.251 27.4097 138.431 27.4097 137.825 27.8498L131.809 32.2205C130.455 33.2045 128.633 31.8805 129.15 30.2884L131.448 23.2164C131.679 22.5044 131.426 21.7244 130.82 21.2843L124.804 16.9136C123.45 15.9296 124.146 13.7873 125.82 13.7873L133.256 13.7873C134.004 13.7873 134.668 13.3053 134.899 12.5932L137.197 5.52129Z" fill="#FFB545"/>
<path d="M176.764 5.52129C177.281 3.92912 179.534 3.92912 180.051 5.52129L182.349 12.5932C182.58 13.3053 183.244 13.7873 183.992 13.7873L191.428 13.7873C193.102 13.7873 193.798 15.9296 192.444 16.9136L186.428 21.2843C185.823 21.7244 185.569 22.5044 185.8 23.2164L188.098 30.2884C188.616 31.8805 186.793 33.2045 185.439 32.2205L179.423 27.8498C178.818 27.4097 177.997 27.4097 177.392 27.8498L171.376 32.2205C170.022 33.2045 168.199 31.8805 168.717 30.2884L171.014 23.2164C171.246 22.5044 170.992 21.7244 170.387 21.2843L164.371 16.9136C163.016 15.9296 163.712 13.7873 165.387 13.7873L172.822 13.7873C173.571 13.7873 174.235 13.3053 174.466 12.5932L176.764 5.52129Z" fill="#FFB545"/>
</svg>
