<svg width="160" height="35" viewBox="0 0 160 35" fill="none" xmlns="http://www.w3.org/2000/svg">
<path d="M79.9766 9.88412C79.9046 10.8021 79.8506 11.6841 79.8146 12.5301C79.7966 13.3761 79.7876 14.0241 79.7876 14.4741C79.7876 14.8701 79.7966 15.2481 79.8146 15.6081C79.8326 15.9681 79.8506 16.2741 79.8686 16.5261H79.2476C78.9596 15.0141 78.5906 13.8171 78.1406 12.9351C77.7086 12.0531 77.1866 11.4321 76.5746 11.0721C75.9626 10.6941 75.2426 10.5051 74.4146 10.5051H73.7936V25.9221C73.7936 26.6421 73.8656 27.1821 74.0096 27.5421C74.1716 27.9021 74.4596 28.1451 74.8736 28.2711C75.2876 28.3791 75.8906 28.4421 76.6826 28.4601V29.0001C76.1246 28.9821 75.3776 28.9641 74.4416 28.9461C73.5236 28.9281 72.5606 28.9191 71.5526 28.9191C70.5626 28.9191 69.6266 28.9281 68.7446 28.9461C67.8626 28.9641 67.1516 28.9821 66.6116 29.0001V28.4601C67.4216 28.4421 68.0336 28.3791 68.4476 28.2711C68.8616 28.1451 69.1406 27.9021 69.2846 27.5421C69.4286 27.1821 69.5006 26.6421 69.5006 25.9221V10.5051H68.9066C68.0786 10.5051 67.3586 10.6941 66.7466 11.0721C66.1346 11.4321 65.6126 12.0531 65.1806 12.9351C64.7486 13.7991 64.3706 14.9961 64.0466 16.5261H63.4256C63.4616 16.2741 63.4796 15.9681 63.4796 15.6081C63.4976 15.2481 63.5066 14.8701 63.5066 14.4741C63.5066 14.0241 63.4886 13.3761 63.4526 12.5301C63.4346 11.6841 63.3896 10.8021 63.3176 9.88412C64.1456 9.90212 65.0456 9.92012 66.0176 9.93812C67.0076 9.95612 67.9976 9.96512 68.9876 9.96512C69.9776 9.96512 70.8686 9.96512 71.6606 9.96512C72.4706 9.96512 73.3616 9.96512 74.3336 9.96512C75.3236 9.96512 76.3136 9.95612 77.3036 9.93812C78.2936 9.92012 79.1846 9.90212 79.9766 9.88412ZM84.3662 29.1891C83.5562 29.1891 82.8812 29.0361 82.3412 28.7301C81.8012 28.4241 81.4052 28.0191 81.1532 27.5151C80.9012 26.9931 80.7752 26.4261 80.7752 25.8141C80.7752 25.0401 80.9462 24.4101 81.2882 23.9241C81.6482 23.4381 82.1072 23.0421 82.6652 22.7361C83.2232 22.4301 83.8082 22.1781 84.4202 21.9801C85.0502 21.7821 85.6442 21.5931 86.2022 21.4131C86.7782 21.2151 87.2372 20.9901 87.5792 20.7381C87.9392 20.4681 88.1192 20.1261 88.1192 19.7121V17.6061C88.1192 17.1381 88.0382 16.7241 87.8762 16.3641C87.7322 15.9861 87.4982 15.6981 87.1742 15.5001C86.8682 15.3021 86.4632 15.2031 85.9592 15.2031C85.5992 15.2031 85.2392 15.2571 84.8792 15.3651C84.5192 15.4551 84.2222 15.6171 83.9882 15.8511C84.4922 16.0311 84.8792 16.3101 85.1492 16.6881C85.4372 17.0481 85.5812 17.4621 85.5812 17.9301C85.5812 18.5421 85.3652 19.0281 84.9332 19.3881C84.5192 19.7481 84.0242 19.9281 83.4482 19.9281C82.8002 19.9281 82.3052 19.7301 81.9632 19.3341C81.6392 18.9201 81.4772 18.4251 81.4772 17.8491C81.4772 17.3271 81.6032 16.8951 81.8552 16.5531C82.1252 16.2111 82.4942 15.8871 82.9622 15.5811C83.4662 15.2931 84.0692 15.0681 84.7712 14.9061C85.4912 14.7441 86.2652 14.6631 87.0932 14.6631C87.9212 14.6631 88.6682 14.7531 89.3342 14.9331C90.0002 15.0951 90.5582 15.4011 91.0082 15.8511C91.4222 16.2651 91.6922 16.7781 91.8182 17.3901C91.9442 17.9841 92.0072 18.7401 92.0072 19.6581V27.0021C92.0072 27.4521 92.0522 27.7671 92.1422 27.9471C92.2322 28.1091 92.3852 28.1901 92.6012 28.1901C92.7632 28.1901 92.9162 28.1451 93.0602 28.0551C93.2222 27.9651 93.3932 27.8571 93.5732 27.7311L93.8432 28.1901C93.4652 28.5141 93.0242 28.7661 92.5202 28.9461C92.0342 29.1081 91.4852 29.1891 90.8732 29.1891C90.2072 29.1891 89.6762 29.0991 89.2802 28.9191C88.8842 28.7211 88.5962 28.4601 88.4162 28.1361C88.2542 27.8121 88.1732 27.4341 88.1732 27.0021C87.7412 27.6861 87.2192 28.2261 86.6072 28.6221C85.9952 29.0001 85.2482 29.1891 84.3662 29.1891ZM86.2832 27.4611C86.6432 27.4611 86.9672 27.3801 87.2552 27.2181C87.5612 27.0381 87.8492 26.7501 88.1192 26.3541V20.8191C87.9572 21.0891 87.7322 21.3321 87.4442 21.5481C87.1562 21.7641 86.8502 21.9891 86.5262 22.2231C86.2022 22.4391 85.8872 22.6821 85.5812 22.9521C85.2932 23.2221 85.0592 23.5551 84.8792 23.9511C84.6992 24.3471 84.6092 24.8241 84.6092 25.3821C84.6092 26.0841 84.7622 26.6061 85.0682 26.9481C85.3742 27.2901 85.7792 27.4611 86.2832 27.4611ZM103.903 14.6631C104.479 14.6631 104.947 14.7891 105.307 15.0411C105.667 15.2751 105.928 15.5811 106.09 15.9591C106.27 16.3371 106.36 16.7331 106.36 17.1471C106.36 17.8131 106.162 18.3621 105.766 18.7941C105.388 19.2081 104.884 19.4151 104.254 19.4151C103.624 19.4151 103.129 19.2621 102.769 18.9561C102.427 18.6321 102.256 18.2091 102.256 17.6871C102.256 17.1831 102.364 16.7691 102.58 16.4451C102.814 16.1031 103.102 15.8151 103.444 15.5811C103.192 15.5091 102.94 15.5181 102.688 15.6081C102.346 15.6621 102.022 15.8061 101.716 16.0401C101.41 16.2561 101.149 16.5351 100.933 16.8771C100.717 17.2011 100.546 17.5611 100.42 17.9571C100.294 18.3351 100.231 18.7041 100.231 19.0641V26.2191C100.231 27.0831 100.438 27.6681 100.852 27.9741C101.284 28.2801 101.923 28.4331 102.769 28.4331V29.0001C102.355 28.9821 101.752 28.9641 100.96 28.9461C100.168 28.9101 99.3398 28.8921 98.4758 28.8921C97.7558 28.8921 97.0268 28.9101 96.2888 28.9461C95.5508 28.9641 94.9928 28.9821 94.6148 29.0001V28.4331C95.2448 28.4331 95.6858 28.2981 95.9378 28.0281C96.2078 27.7581 96.3428 27.2451 96.3428 26.4891V17.9841C96.3428 17.1741 96.2168 16.5801 95.9648 16.2021C95.7308 15.8061 95.2808 15.6081 94.6148 15.6081V15.0411C95.1908 15.0951 95.7488 15.1221 96.2888 15.1221C97.0448 15.1221 97.7468 15.0951 98.3948 15.0411C99.0608 14.9691 99.6728 14.8701 100.231 14.7441V17.2551C100.447 16.7691 100.735 16.3281 101.095 15.9321C101.455 15.5361 101.869 15.2301 102.337 15.0141C102.805 14.7801 103.327 14.6631 103.903 14.6631ZM112.456 34.0761C111.34 34.0761 110.341 33.9771 109.459 33.7791C108.595 33.5991 107.911 33.3111 107.407 32.9151C106.921 32.5371 106.678 32.0691 106.678 31.5111C106.678 30.9531 106.93 30.4491 107.434 29.9991C107.938 29.5671 108.685 29.2251 109.675 28.9731L109.918 29.4051C109.576 29.6751 109.324 29.9631 109.162 30.2691C109.018 30.5931 108.946 30.9261 108.946 31.2681C108.946 32.0241 109.288 32.6001 109.972 32.9961C110.674 33.4101 111.619 33.6171 112.807 33.6171C113.617 33.6171 114.337 33.5091 114.967 33.2931C115.615 33.0771 116.119 32.7531 116.479 32.3211C116.857 31.8891 117.046 31.3581 117.046 30.7281C117.046 30.1881 116.848 29.7291 116.452 29.3511C116.056 28.9911 115.264 28.8111 114.076 28.8111H112.402C111.664 28.8111 111.016 28.7301 110.458 28.5681C109.918 28.4061 109.495 28.1541 109.189 27.8121C108.883 27.4521 108.73 27.0021 108.73 26.4621C108.73 25.7061 109.027 25.0401 109.621 24.4641C110.215 23.8881 111.097 23.3481 112.267 22.8441L112.537 23.0601C112.195 23.2761 111.871 23.5101 111.565 23.7621C111.277 23.9961 111.133 24.3021 111.133 24.6801C111.133 25.2561 111.493 25.5441 112.213 25.5441H115.156C116.146 25.5441 117.028 25.6611 117.802 25.8951C118.594 26.1291 119.215 26.5161 119.665 27.0561C120.133 27.5781 120.367 28.2621 120.367 29.1081C120.367 29.9901 120.079 30.8091 119.503 31.5651C118.945 32.3211 118.081 32.9241 116.911 33.3741C115.741 33.8421 114.256 34.0761 112.456 34.0761ZM112.726 23.2491C111.7 23.2491 110.782 23.0961 109.972 22.7901C109.162 22.4841 108.523 22.0161 108.055 21.3861C107.587 20.7561 107.353 19.9461 107.353 18.9561C107.353 17.9661 107.587 17.1561 108.055 16.5261C108.523 15.8781 109.162 15.4101 109.972 15.1221C110.782 14.8161 111.7 14.6631 112.726 14.6631C113.752 14.6631 114.67 14.8161 115.48 15.1221C116.29 15.4101 116.929 15.8781 117.397 16.5261C117.865 17.1561 118.099 17.9661 118.099 18.9561C118.099 19.9461 117.865 20.7561 117.397 21.3861C116.929 22.0161 116.29 22.4841 115.48 22.7901C114.67 23.0961 113.752 23.2491 112.726 23.2491ZM112.726 22.7631C113.212 22.7631 113.59 22.4931 113.86 21.9531C114.13 21.3951 114.265 20.3961 114.265 18.9561C114.265 17.5161 114.13 16.5261 113.86 15.9861C113.59 15.4281 113.212 15.1491 112.726 15.1491C112.258 15.1491 111.88 15.4281 111.592 15.9861C111.322 16.5261 111.187 17.5161 111.187 18.9561C111.187 20.3961 111.322 21.3951 111.592 21.9531C111.88 22.4931 112.258 22.7631 112.726 22.7631ZM116.938 16.9851L116.398 16.7961C116.668 16.0941 117.1 15.5091 117.694 15.0411C118.306 14.5731 118.963 14.3391 119.665 14.3391C120.241 14.3391 120.673 14.5011 120.961 14.8251C121.267 15.1311 121.42 15.5361 121.42 16.0401C121.42 16.5801 121.276 16.9851 120.988 17.2551C120.7 17.5071 120.376 17.6331 120.016 17.6331C119.71 17.6331 119.422 17.5251 119.152 17.3091C118.9 17.0931 118.756 16.7691 118.72 16.3371C118.684 15.8871 118.837 15.3111 119.179 14.6091L119.368 14.7711C118.684 15.0231 118.171 15.3201 117.829 15.6621C117.487 15.9861 117.19 16.4271 116.938 16.9851ZM128.686 14.6631C130.27 14.6631 131.512 15.1311 132.412 16.0671C133.312 17.0031 133.762 18.5331 133.762 20.6571H124.879L124.825 20.1441H130.36C130.378 19.2621 130.324 18.4521 130.198 17.7141C130.072 16.9581 129.874 16.3551 129.604 15.9051C129.334 15.4551 128.974 15.2301 128.524 15.2301C127.894 15.2301 127.354 15.6261 126.904 16.4181C126.472 17.2101 126.211 18.5241 126.121 20.3601L126.202 20.5221C126.184 20.7381 126.166 20.9631 126.148 21.1971C126.148 21.4311 126.148 21.6741 126.148 21.9261C126.148 23.1681 126.319 24.1761 126.661 24.9501C127.021 25.7241 127.471 26.2911 128.011 26.6511C128.551 26.9931 129.1 27.1641 129.658 27.1641C130.036 27.1641 130.423 27.1101 130.819 27.0021C131.233 26.8761 131.647 26.6601 132.061 26.3541C132.475 26.0301 132.862 25.5801 133.222 25.0041L133.708 25.1661C133.492 25.8501 133.15 26.5161 132.682 27.1641C132.214 27.8121 131.62 28.3431 130.9 28.7571C130.18 29.1711 129.316 29.3781 128.308 29.3781C127.084 29.3781 126.004 29.1171 125.068 28.5951C124.132 28.0731 123.394 27.2811 122.854 26.2191C122.332 25.1571 122.071 23.8071 122.071 22.1691C122.071 20.4951 122.35 19.1001 122.908 17.9841C123.484 16.8681 124.267 16.0401 125.257 15.5001C126.265 14.9421 127.408 14.6631 128.686 14.6631ZM140.807 10.6131V15.0411H143.993V15.5811H140.807V26.4891C140.807 27.0291 140.906 27.4161 141.104 27.6501C141.302 27.8661 141.599 27.9741 141.995 27.9741C142.319 27.9741 142.643 27.8571 142.967 27.6231C143.291 27.3711 143.579 26.9481 143.831 26.3541L144.29 26.5971C144.002 27.4071 143.561 28.0731 142.967 28.5951C142.391 29.1171 141.599 29.3781 140.591 29.3781C139.997 29.3781 139.475 29.2971 139.025 29.1351C138.575 28.9911 138.197 28.7661 137.891 28.4601C137.495 28.0641 137.234 27.5781 137.108 27.0021C136.982 26.4081 136.919 25.6431 136.919 24.7071V15.5811H134.651V15.0411H136.919V11.4771C137.675 11.4771 138.368 11.4141 138.998 11.2881C139.646 11.1441 140.249 10.9191 140.807 10.6131Z" fill="#263238"/>
<rect x="30.6426" y="4.00012" width="28" height="28" rx="5" fill="#FFB6D3"/>
<circle cx="44.6426" cy="18.0001" r="5" fill="#FF5196"/>
<path d="M44.6426 11.6001V10.0001M44.6426 26.0001V24.4001M51.0426 18.0001H52.6426M36.6426 18.0001H38.2426M44.6426 12.2401C43.5034 12.2401 42.3898 12.5779 41.4425 13.2109C40.4953 13.8438 39.757 14.7434 39.3211 15.7959C38.8851 16.8484 38.771 18.0065 38.9933 19.1238C39.2155 20.2412 39.7641 21.2675 40.5697 22.0731C41.3752 22.8786 42.4016 23.4272 43.5189 23.6494C44.6362 23.8717 45.7944 23.7576 46.8469 23.3217C47.8994 22.8857 48.799 22.1474 49.4319 21.2002C50.0648 20.253 50.4026 19.1393 50.4026 18.0001C50.4026 16.4725 49.7958 15.0074 48.7155 13.9272C47.6353 12.847 46.1703 12.2401 44.6426 12.2401Z" stroke="white" stroke-width="2" stroke-linecap="square" stroke-linejoin="round"/>
</svg>
