<svg width="160" height="49" viewBox="0 0 160 49" fill="none" xmlns="http://www.w3.org/2000/svg">
<path d="M29.2006 13.1561C29.1073 12.9321 28.9813 12.6475 28.8226 12.3021C28.6733 11.9568 28.51 11.5835 28.3326 11.1821C28.1553 10.7808 27.964 10.3701 27.7586 9.95012C27.5626 9.52079 27.376 9.11946 27.1986 8.74612C27.0213 8.36346 26.8533 8.02279 26.6946 7.72412C26.5453 7.42545 26.424 7.19679 26.3306 7.03812C26.228 8.13945 26.144 9.33412 26.0786 10.6221C26.0133 11.9008 25.9573 13.1935 25.9106 14.5001H24.5806C24.618 13.6601 24.66 12.8155 24.7066 11.9661C24.7533 11.1075 24.8046 10.2675 24.8606 9.44612C24.926 8.61546 24.9913 7.80812 25.0566 7.02412C25.1313 6.24012 25.2106 5.49812 25.2946 4.79812H26.4846C26.7366 5.20879 27.0073 5.69412 27.2966 6.25412C27.586 6.81412 27.8753 7.40212 28.1646 8.01812C28.454 8.62479 28.734 9.23612 29.0046 9.85212C29.2753 10.4588 29.5226 11.0141 29.7466 11.5181C29.9706 11.0141 30.218 10.4588 30.4886 9.85212C30.7593 9.23612 31.0393 8.62479 31.3286 8.01812C31.618 7.40212 31.9073 6.81412 32.1966 6.25412C32.486 5.69412 32.7566 5.20879 33.0086 4.79812H34.1986C34.516 7.92479 34.754 11.1588 34.9126 14.5001H33.5826C33.536 13.1935 33.48 11.9008 33.4146 10.6221C33.3493 9.33412 33.2653 8.13945 33.1626 7.03812C33.0693 7.19679 32.9433 7.42545 32.7846 7.72412C32.6353 8.02279 32.472 8.36346 32.2946 8.74612C32.1173 9.11946 31.926 9.52079 31.7206 9.95012C31.5246 10.3701 31.338 10.7808 31.1606 11.1821C30.9833 11.5835 30.8153 11.9568 30.6566 12.3021C30.5073 12.6475 30.386 12.9321 30.2926 13.1561H29.2006ZM43.384 10.8601C43.384 11.4388 43.3 11.9615 43.132 12.4281C42.964 12.8948 42.726 13.2961 42.418 13.6321C42.1193 13.9681 41.76 14.2295 41.34 14.4161C40.92 14.5935 40.4626 14.6821 39.968 14.6821C39.4733 14.6821 39.016 14.5935 38.596 14.4161C38.176 14.2295 37.812 13.9681 37.504 13.6321C37.2053 13.2961 36.972 12.8948 36.804 12.4281C36.636 11.9615 36.552 11.4388 36.552 10.8601C36.552 10.2908 36.636 9.77279 36.804 9.30612C36.972 8.83012 37.2053 8.42412 37.504 8.08812C37.812 7.75212 38.176 7.49546 38.596 7.31812C39.016 7.13145 39.4733 7.03812 39.968 7.03812C40.4626 7.03812 40.92 7.13145 41.34 7.31812C41.76 7.49546 42.1193 7.75212 42.418 8.08812C42.726 8.42412 42.964 8.83012 43.132 9.30612C43.3 9.77279 43.384 10.2908 43.384 10.8601ZM42.026 10.8601C42.026 10.0388 41.8393 9.39012 41.466 8.91412C41.102 8.42879 40.6026 8.18612 39.968 8.18612C39.3333 8.18612 38.8293 8.42879 38.456 8.91412C38.092 9.39012 37.91 10.0388 37.91 10.8601C37.91 11.6815 38.092 12.3348 38.456 12.8201C38.8293 13.2961 39.3333 13.5341 39.968 13.5341C40.6026 13.5341 41.102 13.2961 41.466 12.8201C41.8393 12.3348 42.026 11.6815 42.026 10.8601ZM49.9198 8.76012C49.7611 8.62946 49.5324 8.50346 49.2338 8.38212C48.9351 8.26079 48.6084 8.20012 48.2538 8.20012C47.8804 8.20012 47.5584 8.27012 47.2878 8.41012C47.0264 8.54079 46.8118 8.72746 46.6438 8.97012C46.4758 9.20346 46.3544 9.48346 46.2798 9.81012C46.2051 10.1368 46.1678 10.4868 46.1678 10.8601C46.1678 11.7095 46.3778 12.3675 46.7978 12.8341C47.2178 13.2915 47.7778 13.5201 48.4778 13.5201C48.8324 13.5201 49.1264 13.5061 49.3598 13.4781C49.6024 13.4408 49.7891 13.4035 49.9198 13.3661V8.76012ZM49.9198 3.86012L51.2218 3.63612V14.2901C50.9231 14.3741 50.5404 14.4581 50.0738 14.5421C49.6071 14.6261 49.0704 14.6681 48.4638 14.6681C47.9038 14.6681 47.3998 14.5795 46.9518 14.4021C46.5038 14.2248 46.1211 13.9728 45.8038 13.6461C45.4864 13.3195 45.2391 12.9228 45.0618 12.4561C44.8938 11.9801 44.8098 11.4481 44.8098 10.8601C44.8098 10.3001 44.8798 9.78679 45.0198 9.32012C45.1691 8.85346 45.3838 8.45212 45.6638 8.11612C45.9438 7.78012 46.2844 7.51879 46.6858 7.33212C47.0964 7.14546 47.5631 7.05212 48.0858 7.05212C48.5058 7.05212 48.8744 7.10812 49.1918 7.22012C49.5184 7.33212 49.7611 7.43946 49.9198 7.54212V3.86012ZM53.0539 10.8741C53.0539 10.2301 53.1472 9.67012 53.3339 9.19412C53.5206 8.70879 53.7679 8.30746 54.0759 7.99012C54.3839 7.67279 54.7386 7.43479 55.1399 7.27612C55.5412 7.11745 55.9519 7.03812 56.3719 7.03812C57.3519 7.03812 58.1032 7.34612 58.6259 7.96212C59.1486 8.56879 59.4099 9.49746 59.4099 10.7481C59.4099 10.8041 59.4099 10.8788 59.4099 10.9721C59.4099 11.0561 59.4052 11.1355 59.3959 11.2101H54.4119C54.4679 11.9661 54.6872 12.5401 55.0699 12.9321C55.4526 13.3241 56.0499 13.5201 56.8619 13.5201C57.3192 13.5201 57.7019 13.4828 58.0099 13.4081C58.3272 13.3241 58.5652 13.2448 58.7239 13.1701L58.9059 14.2621C58.7472 14.3461 58.4672 14.4348 58.0659 14.5281C57.6739 14.6215 57.2259 14.6681 56.7219 14.6681C56.0872 14.6681 55.5366 14.5748 55.0699 14.3881C54.6126 14.1921 54.2346 13.9261 53.9359 13.5901C53.6372 13.2541 53.4132 12.8575 53.2639 12.4001C53.1239 11.9335 53.0539 11.4248 53.0539 10.8741ZM58.0519 10.1601C58.0612 9.57212 57.9119 9.09146 57.6039 8.71812C57.3052 8.33546 56.8899 8.14412 56.3579 8.14412C56.0592 8.14412 55.7932 8.20479 55.5599 8.32612C55.3359 8.43812 55.1446 8.58746 54.9859 8.77412C54.8272 8.96079 54.7012 9.17546 54.6079 9.41812C54.5239 9.66079 54.4679 9.90812 54.4399 10.1601H58.0519ZM63.9682 7.06612C64.0802 7.06612 64.2062 7.07546 64.3462 7.09412C64.4956 7.10346 64.6402 7.12212 64.7802 7.15012C64.9202 7.16879 65.0462 7.19212 65.1582 7.22012C65.2796 7.23879 65.3682 7.25746 65.4242 7.27612L65.2002 8.41012C65.0976 8.37279 64.9249 8.33079 64.6822 8.28412C64.4489 8.22812 64.1456 8.20012 63.7722 8.20012C63.5296 8.20012 63.2869 8.22812 63.0442 8.28412C62.8109 8.33079 62.6569 8.36346 62.5822 8.38212V14.5001H61.2802V7.52812C61.5882 7.41612 61.9709 7.31345 62.4282 7.22012C62.8856 7.11746 63.3989 7.06612 63.9682 7.06612ZM66.6806 7.43012C66.9793 7.35546 67.3759 7.27612 67.8706 7.19212C68.3653 7.10812 68.9346 7.06612 69.5786 7.06612C70.1573 7.06612 70.6379 7.15012 71.0206 7.31812C71.4033 7.47679 71.7066 7.70546 71.9306 8.00412C72.1639 8.29346 72.3273 8.64346 72.4206 9.05412C72.5139 9.46479 72.5606 9.91746 72.5606 10.4121V14.5001H71.2586V10.6921C71.2586 10.2441 71.2259 9.86146 71.1606 9.54412C71.1046 9.22679 71.0066 8.97012 70.8666 8.77412C70.7266 8.57812 70.5399 8.43812 70.3066 8.35412C70.0733 8.26079 69.7839 8.21412 69.4386 8.21412C69.2986 8.21412 69.1539 8.21879 69.0046 8.22812C68.8553 8.23746 68.7106 8.25146 68.5706 8.27012C68.4399 8.27945 68.3186 8.29345 68.2066 8.31212C68.1039 8.33079 68.0293 8.34479 67.9826 8.35412V14.5001H66.6806V7.43012Z" fill="#263238"/>
<path d="M32.5226 40.9201C29.1426 40.9201 26.5626 39.9801 24.7826 38.1001C23.0226 36.2201 22.1426 33.5501 22.1426 30.0901C22.1426 28.3701 22.4126 26.8401 22.9526 25.5001C23.4926 24.1401 24.2326 23.0001 25.1726 22.0801C26.1126 21.1401 27.2326 20.4301 28.5326 19.9501C29.8326 19.4701 31.2426 19.2301 32.7626 19.2301C33.6426 19.2301 34.4426 19.3001 35.1626 19.4401C35.8826 19.5601 36.5126 19.7101 37.0526 19.8901C37.5926 20.0501 38.0426 20.2201 38.4026 20.4001C38.7626 20.5801 39.0226 20.7201 39.1826 20.8201L37.8326 24.6001C37.1926 24.2601 36.4426 23.9701 35.5826 23.7301C34.7426 23.4901 33.7826 23.3701 32.7026 23.3701C31.9826 23.3701 31.2726 23.4901 30.5726 23.7301C29.8926 23.9701 29.2826 24.3601 28.7426 24.9001C28.2226 25.4201 27.8026 26.1001 27.4826 26.9401C27.1626 27.7801 27.0026 28.8001 27.0026 30.0001C27.0026 30.9601 27.1026 31.8601 27.3026 32.7001C27.5226 33.5201 27.8626 34.2301 28.3226 34.8301C28.8026 35.4301 29.4226 35.9101 30.1826 36.2701C30.9426 36.6101 31.8626 36.7801 32.9426 36.7801C33.6226 36.7801 34.2326 36.7401 34.7726 36.6601C35.3126 36.5801 35.7926 36.4901 36.2126 36.3901C36.6326 36.2701 37.0026 36.1401 37.3226 36.0001C37.6426 35.8601 37.9326 35.7301 38.1926 35.6101L39.4826 39.3601C38.8226 39.7601 37.8926 40.1201 36.6926 40.4401C35.4926 40.7601 34.1026 40.9201 32.5226 40.9201ZM51.7058 28.6801C51.3058 28.5801 50.8358 28.4801 50.2958 28.3801C49.7558 28.2601 49.1758 28.2001 48.5558 28.2001C48.2758 28.2001 47.9358 28.2301 47.5358 28.2901C47.1558 28.3301 46.8658 28.3801 46.6658 28.4401V40.5001H42.1958V25.5601C42.9958 25.2801 43.9358 25.0201 45.0158 24.7801C46.1158 24.5201 47.3358 24.3901 48.6758 24.3901C48.9158 24.3901 49.2058 24.4101 49.5458 24.4501C49.8858 24.4701 50.2258 24.5101 50.5658 24.5701C50.9058 24.6101 51.2458 24.6701 51.5858 24.7501C51.9258 24.8101 52.2158 24.8901 52.4558 24.9901L51.7058 28.6801ZM69.7995 24.7201C68.8995 27.7601 67.9595 30.6101 66.9795 33.2701C65.9995 35.9301 64.9295 38.5101 63.7695 41.0101C63.3495 41.9101 62.9295 42.6701 62.5095 43.2901C62.0895 43.9301 61.6295 44.4501 61.1295 44.8501C60.6295 45.2701 60.0595 45.5701 59.4195 45.7501C58.7995 45.9501 58.0695 46.0501 57.2295 46.0501C56.5295 46.0501 55.8795 45.9801 55.2795 45.8401C54.6995 45.7201 54.2195 45.5801 53.8395 45.4201L54.6195 41.8501C55.0795 42.0101 55.4895 42.1201 55.8495 42.1801C56.2095 42.2401 56.5895 42.2701 56.9895 42.2701C57.7895 42.2701 58.3995 42.0501 58.8195 41.6101C59.2595 41.1901 59.6295 40.6001 59.9295 39.8401C58.9095 37.8401 57.8895 35.6001 56.8695 33.1201C55.8495 30.6201 54.8895 27.8201 53.9895 24.7201H58.7295C58.9295 25.5001 59.1595 26.3501 59.4195 27.2701C59.6995 28.1701 59.9895 29.0901 60.2895 30.0301C60.5895 30.9501 60.8895 31.8501 61.1895 32.7301C61.5095 33.6101 61.8095 34.4101 62.0895 35.1301C62.3495 34.4101 62.6195 33.6101 62.8995 32.7301C63.1795 31.8501 63.4495 30.9501 63.7095 30.0301C63.9895 29.0901 64.2495 28.1701 64.4895 27.2701C64.7495 26.3501 64.9795 25.5001 65.1795 24.7201H69.7995ZM82.3058 32.7301C82.3058 31.3501 81.9958 30.2501 81.3758 29.4301C80.7558 28.5901 79.8358 28.1701 78.6158 28.1701C78.2158 28.1701 77.8458 28.1901 77.5058 28.2301C77.1658 28.2501 76.8858 28.2801 76.6658 28.3201V36.3901C76.9458 36.5701 77.3058 36.7201 77.7458 36.8401C78.2058 36.9601 78.6658 37.0201 79.1258 37.0201C81.2458 37.0201 82.3058 35.5901 82.3058 32.7301ZM86.8658 32.6101C86.8658 33.8301 86.7158 34.9401 86.4158 35.9401C86.1158 36.9401 85.6758 37.8001 85.0958 38.5201C84.5158 39.2401 83.7958 39.8001 82.9358 40.2001C82.0758 40.6001 81.0858 40.8001 79.9658 40.8001C79.3458 40.8001 78.7658 40.7401 78.2258 40.6201C77.6858 40.5001 77.1658 40.3301 76.6658 40.1101V46.0501H72.1958V25.2601C72.5958 25.1401 73.0558 25.0301 73.5758 24.9301C74.0958 24.8101 74.6358 24.7101 75.1958 24.6301C75.7758 24.5501 76.3558 24.4901 76.9358 24.4501C77.5358 24.3901 78.1058 24.3601 78.6458 24.3601C79.9458 24.3601 81.1058 24.5601 82.1258 24.9601C83.1458 25.3401 84.0058 25.8901 84.7058 26.6101C85.4058 27.3101 85.9358 28.1701 86.2958 29.1901C86.6758 30.2101 86.8658 31.3501 86.8658 32.6101ZM90.1512 20.7901L94.6212 20.0701V24.7201H99.9912V28.4401H94.6212V33.9901C94.6212 34.9301 94.7812 35.6801 95.1012 36.2401C95.4412 36.8001 96.1112 37.0801 97.1112 37.0801C97.5912 37.0801 98.0812 37.0401 98.5812 36.9601C99.1012 36.8601 99.5712 36.7301 99.9912 36.5701L100.621 40.0501C100.081 40.2701 99.4812 40.4601 98.8212 40.6201C98.1612 40.7801 97.3512 40.8601 96.3912 40.8601C95.1712 40.8601 94.1612 40.7001 93.3612 40.3801C92.5612 40.0401 91.9212 39.5801 91.4412 39.0001C90.9612 38.4001 90.6212 37.6801 90.4212 36.8401C90.2412 36.0001 90.1512 35.0701 90.1512 34.0501V20.7901ZM117.805 32.5801C117.805 33.8201 117.625 34.9601 117.265 36.0001C116.905 37.0201 116.385 37.9001 115.705 38.6401C115.025 39.3601 114.205 39.9201 113.245 40.3201C112.305 40.7201 111.245 40.9201 110.065 40.9201C108.905 40.9201 107.845 40.7201 106.885 40.3201C105.945 39.9201 105.135 39.3601 104.455 38.6401C103.775 37.9001 103.245 37.0201 102.865 36.0001C102.485 34.9601 102.295 33.8201 102.295 32.5801C102.295 31.3401 102.485 30.2101 102.865 29.1901C103.265 28.1701 103.805 27.3001 104.485 26.5801C105.185 25.8601 106.005 25.3001 106.945 24.9001C107.905 24.5001 108.945 24.3001 110.065 24.3001C111.205 24.3001 112.245 24.5001 113.185 24.9001C114.145 25.3001 114.965 25.8601 115.645 26.5801C116.325 27.3001 116.855 28.1701 117.235 29.1901C117.615 30.2101 117.805 31.3401 117.805 32.5801ZM113.245 32.5801C113.245 31.2001 112.965 30.1201 112.405 29.3401C111.865 28.5401 111.085 28.1401 110.065 28.1401C109.045 28.1401 108.255 28.5401 107.695 29.3401C107.135 30.1201 106.855 31.2001 106.855 32.5801C106.855 33.9601 107.135 35.0601 107.695 35.8801C108.255 36.6801 109.045 37.0801 110.065 37.0801C111.085 37.0801 111.865 36.6801 112.405 35.8801C112.965 35.0601 113.245 33.9601 113.245 32.5801Z" fill="#263238"/>
<path d="M134.643 43.5001V30.5566L124.643 21.5001V43.5001H134.643Z" fill="#27CAEA"/>
<path d="M146.594 43.1863V30.4274L136.938 21.5001V43.1863H146.594Z" fill="#FFB04E"/>
</svg>
