<svg width="160" height="37" viewBox="0 0 160 37" fill="none" xmlns="http://www.w3.org/2000/svg">
<path d="M34.6427 22.7436V0.00012207H48.1729V22.7325H34.6427V22.7436ZM46.5336 17.4524L46.8817 14.9401L45.624 14.8179L45.2423 16.7521C44.4563 17.1411 43.4907 17.3301 42.3341 17.3301C40.7622 17.3301 39.5158 16.841 38.6063 15.8517C37.6856 14.8623 37.2365 13.5618 37.2365 11.9388C37.2365 10.3603 37.6856 9.05974 38.5726 8.03706C39.4597 7.01438 40.6275 6.50304 42.0759 6.50304C42.817 6.50304 43.4458 6.59196 43.951 6.7587C44.4563 6.92545 44.9167 7.14777 45.3546 7.43679L45.7251 9.34875L47.0052 9.22648L46.6346 6.71424C46.0957 6.25848 45.4556 5.89165 44.7146 5.60263C43.9735 5.32473 43.0528 5.18022 41.9636 5.18022C40.6724 5.18022 39.5607 5.49147 38.6288 6.12509C37.6968 6.75871 36.967 7.59241 36.4505 8.62621C35.934 9.67112 35.6757 10.7938 35.6757 11.9944C35.6757 13.8952 36.2708 15.4848 37.461 16.7521C38.6512 18.0193 40.2007 18.6529 42.1208 18.6529C44.0072 18.6529 45.4781 18.2527 46.5336 17.4524Z" fill="#263238"/>
<path d="M52.7655 22.7436V0.00012207H58.5818V22.7325H52.7655V22.7436ZM53.3831 18.4528H57.9755V17.3079H56.3923V4.6133H53.3606V5.75826H54.9663V17.3079H53.3831V18.4528Z" fill="#263238"/>
<path d="M63.174 22.7436V0.00012207H73.3918V22.7325H63.174V22.7436ZM65.0266 10.1825L64.701 12.2501L65.88 12.3946L66.2281 10.8494C66.7333 10.6049 67.306 10.4826 67.9797 10.4826C68.7881 10.4826 69.3384 10.6827 69.6191 11.0829C69.8998 11.483 70.0345 12.0055 70.0345 12.6502V13.4506C69.7875 13.4284 69.5292 13.4061 69.2485 13.395C68.9678 13.3839 68.6983 13.3728 68.4289 13.3728C67.4183 13.3728 66.4526 13.5506 65.5544 13.9064C64.6561 14.2621 64.207 15.0068 64.207 16.1296C64.207 17.0856 64.5101 17.7414 65.1277 18.0971C65.7453 18.4639 66.3516 18.6418 66.9467 18.6418C67.6765 18.6418 68.3053 18.4528 68.8218 18.0749C69.3383 17.6969 69.7426 17.2745 70.0345 16.7854V16.8299C70.057 18.0415 70.6072 18.6418 71.6851 18.6418C72.1005 18.6418 72.4935 18.5418 72.864 18.3417L72.8416 17.419C72.6619 17.4968 72.4598 17.5413 72.2353 17.5413C71.7188 17.5413 71.4605 17.2189 71.4605 16.5742V12.3167C71.4605 10.3159 70.3826 9.31541 68.2267 9.31541C67.6316 9.31541 67.0702 9.3821 66.5425 9.5155C66.0035 9.66001 65.4982 9.88233 65.0266 10.1825ZM70.0233 15.0958C69.9671 15.8294 69.664 16.4186 69.1138 16.841C68.5636 17.2745 67.9797 17.4857 67.3509 17.4857C66.9579 17.4857 66.5762 17.3746 66.2169 17.1634C65.8463 16.9522 65.6667 16.552 65.6667 15.9739C65.6667 15.2736 65.9474 14.829 66.4863 14.6178C67.0365 14.4066 67.6428 14.3065 68.3278 14.3065C68.6309 14.3065 68.9229 14.3176 69.2036 14.351C69.4843 14.3732 69.765 14.3955 70.012 14.4066V15.0958H70.0233Z" fill="#263238"/>
<path d="M77.9962 22.7436V0.00012207H87.2821V22.7325H77.9962V22.7436ZM86.3052 15.8628C86.3052 15.1514 86.1143 14.6289 85.7325 14.2843C85.3508 13.9397 84.8904 13.7063 84.329 13.5729C83.7676 13.4395 83.2174 13.3283 82.6672 13.2394C82.117 13.1505 81.6454 13.0059 81.2637 12.817C80.8819 12.628 80.691 12.2945 80.691 11.8165C80.691 11.3608 80.8707 11.0273 81.2412 10.805C81.6117 10.5826 82.0721 10.4826 82.6447 10.4826C83.3072 10.4826 83.9248 10.6271 84.4975 10.9272L84.722 12.3723L85.901 12.2278L85.6764 10.138C85.2947 9.90456 84.8343 9.71558 84.2841 9.55996C83.7339 9.40433 83.15 9.31541 82.5212 9.31541C81.6903 9.31541 80.9268 9.51549 80.2194 9.90456C79.5121 10.2936 79.164 10.9606 79.164 11.9166C79.164 12.6169 79.3548 13.1282 79.7366 13.4506C80.1184 13.7841 80.59 14.0064 81.1626 14.1398C81.7353 14.2732 82.2967 14.3843 82.8581 14.4844C83.4195 14.5733 83.8911 14.7289 84.2729 14.929C84.6546 15.1291 84.8455 15.4737 84.8455 15.9739C84.8455 16.4853 84.5985 16.8632 84.1044 17.1078C83.6104 17.3523 83.049 17.4746 82.409 17.4746C81.6903 17.4746 81.0166 17.3301 80.3991 17.03L80.4552 15.8406L79.3212 15.7183L79.0404 17.7525C79.4334 18.0082 79.9499 18.2194 80.5787 18.3861C81.2075 18.5529 81.8363 18.6418 82.4763 18.6418C83.5655 18.6418 84.475 18.3973 85.2048 17.897C85.9347 17.419 86.3052 16.7298 86.3052 15.8628Z" fill="#263238"/>
<path d="M91.8732 22.7436V0.00012207H101.159V22.7325H91.8732V22.7436ZM100.182 15.8628C100.182 15.1514 99.9912 14.6289 99.6095 14.2843C99.2277 13.9397 98.7673 13.7063 98.2059 13.5729C97.6445 13.4395 97.0943 13.3283 96.5441 13.2394C95.994 13.1505 95.5224 13.0059 95.1406 12.817C94.7588 12.628 94.5679 12.2945 94.5679 11.8165C94.5679 11.3608 94.7476 11.0273 95.1181 10.805C95.4887 10.5826 95.949 10.4826 96.5217 10.4826C97.1841 10.4826 97.8017 10.6271 98.3744 10.9272L98.599 12.3723L99.7779 12.2278L99.5533 10.138C99.1716 9.90456 98.7112 9.71558 98.161 9.55996C97.6108 9.40433 97.027 9.31541 96.3982 9.31541C95.5673 9.31541 94.8038 9.51549 94.0964 9.90456C93.389 10.2936 93.0409 10.9606 93.0409 11.9166C93.0409 12.6169 93.2318 13.1282 93.6136 13.4506C93.9953 13.7841 94.4669 14.0064 95.0396 14.1398C95.6122 14.2732 96.1736 14.3843 96.735 14.4844C97.2964 14.5733 97.768 14.7289 98.1498 14.929C98.5316 15.1291 98.7224 15.4737 98.7224 15.9739C98.7224 16.4853 98.4755 16.8632 97.9814 17.1078C97.4874 17.3523 96.9259 17.4746 96.2859 17.4746C95.5673 17.4746 94.8935 17.3301 94.276 17.03L94.3322 15.8406L93.1981 15.7183L92.9174 17.7525C93.3104 18.0082 93.8269 18.2194 94.4557 18.3861C95.0845 18.5529 95.7133 18.6418 96.3533 18.6418C97.4424 18.6418 98.3519 18.3973 99.0818 17.897C99.8116 17.419 100.182 16.7298 100.182 15.8628Z" fill="#263238"/>
<path d="M105.752 22.7436V0.00012207H111.872V22.7325H105.752V22.7436ZM106.65 18.4528H111.243V17.3079H109.66V9.50438H106.617V10.6493H108.245V17.3079H106.662V18.4528H106.65ZM108.088 5.35808V7.19223H109.637V5.35808H108.088Z" fill="#263238"/>
<path d="M116.463 22.7436V0.00012207H126.243V22.7325H116.463V22.7436ZM125.367 15.4404L124.143 15.1736C123.874 16.6854 123.054 17.4413 121.707 17.4413C120.808 17.4413 120.123 17.1411 119.652 16.5409C119.18 15.9406 118.945 15.0958 118.945 14.0286C118.945 13.0615 119.158 12.2389 119.573 11.5497C119.989 10.8605 120.685 10.5271 121.651 10.5271C122.392 10.5271 123.043 10.6938 123.582 11.0273L123.93 12.5391L125.109 12.3946L124.761 10.238C124.3 9.89344 123.818 9.64889 123.312 9.5155C122.807 9.3821 122.257 9.31541 121.662 9.31541C120.258 9.31541 119.192 9.80451 118.495 10.7827C117.788 11.7609 117.44 12.8726 117.44 14.1064C117.44 15.5404 117.81 16.6631 118.563 17.4524C119.304 18.2527 120.303 18.6529 121.549 18.6529C122.796 18.6529 123.717 18.3083 124.3 17.6302C124.884 16.941 125.244 16.2185 125.367 15.4404Z" fill="#263238"/>
<path d="M40.4933 35.1603C40.2351 35.6272 39.8533 35.994 39.3592 36.2497C38.854 36.5053 38.2588 36.6387 37.5627 36.6387H35.5528V30.3693H37.5627C38.2588 30.3693 38.8652 30.4915 39.3592 30.7472C39.8533 31.0029 40.2351 31.3586 40.4933 31.8366C40.7516 32.3146 40.8751 32.8593 40.8751 33.504C40.8751 34.1376 40.7516 34.6934 40.4933 35.1603ZM39.3817 35.2826C39.8196 34.8602 40.0329 34.271 40.0329 33.504C40.0329 32.737 39.8196 32.1478 39.3817 31.7254C38.9438 31.303 38.315 31.0918 37.4841 31.0918H36.35V35.9162H37.4841C38.315 35.9162 38.9438 35.705 39.3817 35.2826Z" fill="#FF5196"/>
<path d="M45.0405 31.0251V33.1705H47.4434V33.793H45.0405V35.9829H47.7129V36.6387H44.2208V30.3693H47.7129V31.0251H45.0405Z" fill="#FF5196"/>
<path d="M54.8097 35.8384C54.6638 36.0941 54.4504 36.3053 54.1585 36.4609C53.8665 36.6166 53.5072 36.7055 53.0693 36.7055C52.6539 36.7055 52.2721 36.6277 51.9465 36.4832C51.6209 36.3275 51.3626 36.1274 51.1605 35.8607C50.9696 35.5939 50.8573 35.2937 50.8236 34.9603H51.6995C51.7219 35.1381 51.7781 35.316 51.8791 35.4827C51.9802 35.6495 52.1374 35.794 52.3282 35.9051C52.5191 36.0163 52.7549 36.0719 53.0356 36.0719C53.3949 36.0719 53.6757 35.9829 53.8666 35.7828C54.0574 35.5828 54.1585 35.3493 54.1585 35.0492C54.1585 34.7935 54.0911 34.5823 53.9564 34.4267C53.8216 34.2711 53.6532 34.1377 53.4623 34.0487C53.2714 33.9598 52.9907 33.8598 52.6539 33.7486C52.2497 33.6152 51.9353 33.4929 51.6883 33.3818C51.4412 33.2706 51.2391 33.0928 51.0707 32.8593C50.9022 32.6259 50.8124 32.3257 50.8124 31.9478C50.8124 31.6254 50.891 31.3364 51.0482 31.0807C51.2054 30.8362 51.43 30.6361 51.7331 30.5027C52.0251 30.3693 52.3844 30.3026 52.7774 30.3026C53.395 30.3026 53.9002 30.4471 54.2595 30.7473C54.6301 31.0474 54.8322 31.4253 54.8995 31.8922H54.0237C53.9788 31.6477 53.8441 31.4253 53.642 31.2364C53.4286 31.0474 53.1479 30.9473 52.7886 30.9473C52.463 30.9473 52.1935 31.0363 52.0026 31.203C51.8005 31.3698 51.7107 31.6143 51.7107 31.9144C51.7107 32.159 51.7781 32.3591 51.9016 32.5036C52.0363 32.6592 52.1935 32.7704 52.3844 32.8593C52.5753 32.9482 52.8447 33.0372 53.1704 33.1483C53.5746 33.2817 53.9002 33.404 54.1585 33.5263C54.4055 33.6486 54.6188 33.8264 54.7873 34.0599C54.9557 34.2933 55.0455 34.6157 55.0455 35.0158C55.0231 35.3049 54.9557 35.5828 54.8097 35.8384Z" fill="#FF5196"/>
<path d="M59.1889 30.3693V36.6387H58.3693V30.3693H59.1889Z" fill="#FF5196"/>
<path d="M67.4743 30.8473C67.9796 31.2141 68.3164 31.7032 68.4849 32.3257H67.6203C67.4743 31.9478 67.2161 31.6365 66.868 31.4142C66.5199 31.1808 66.1045 31.0696 65.6216 31.0696C65.195 31.0696 64.8019 31.1697 64.4651 31.3698C64.1282 31.5698 63.8588 31.8478 63.6567 32.2146C63.4658 32.5814 63.3647 33.0149 63.3647 33.5152C63.3647 34.0265 63.4658 34.4712 63.6567 34.838C63.8476 35.2048 64.1282 35.4938 64.4763 35.6939C64.8244 35.894 65.2286 35.9941 65.689 35.9941C66.082 35.9941 66.4301 35.9051 66.7557 35.7495C67.0813 35.5828 67.3396 35.3382 67.5529 35.027C67.7662 34.7157 67.8785 34.3378 67.9234 33.9153H65.4307V33.3151H68.6084V34.0599C68.5522 34.5601 68.395 35.0047 68.1368 35.416C67.8785 35.8273 67.5305 36.1386 67.0926 36.372C66.6547 36.6054 66.1606 36.7277 65.5992 36.7277C64.9928 36.7277 64.4539 36.5943 63.9823 36.3275C63.5107 36.0608 63.1514 35.6828 62.8931 35.1937C62.6349 34.7157 62.5001 34.1599 62.5001 33.5374C62.5001 32.9149 62.6349 32.3591 62.8931 31.8811C63.1514 31.4031 63.5219 31.014 63.9823 30.7473C64.4426 30.4805 64.9816 30.336 65.5879 30.336C66.3515 30.3137 66.969 30.4916 67.4743 30.8473Z" fill="#FF5196"/>
<path d="M76.8962 36.6387H76.0765L72.7866 31.681V36.6387H71.9669V30.3693H72.7866L76.0765 35.327V30.3693H76.8962V36.6387Z" fill="#FF5196"/>
<path d="M88.7084 35.8387C88.5624 36.0943 88.349 36.3055 88.0571 36.4612C87.7652 36.6168 87.4059 36.7057 86.968 36.7057C86.5525 36.7057 86.1708 36.6279 85.8451 36.4834C85.5195 36.3278 85.2612 36.1277 85.0591 35.8609C84.8683 35.5941 84.756 35.294 84.7223 34.9605H85.5981C85.6205 35.1384 85.6767 35.3162 85.7778 35.483C85.8788 35.6497 86.036 35.7942 86.2269 35.9054C86.4177 36.0165 86.6535 36.0721 86.9343 36.0721C87.2936 36.0721 87.5743 35.9832 87.7651 35.7831C87.956 35.583 88.0571 35.3496 88.0571 35.0494C88.0571 34.7938 87.9897 34.5826 87.855 34.4269C87.7203 34.2713 87.5518 34.1379 87.3609 34.049C87.1701 33.96 86.8894 33.86 86.5525 33.7488C86.1483 33.6155 85.8339 33.4932 85.5868 33.382C85.3398 33.2709 85.1377 33.093 84.9693 32.8596C84.8009 32.6261 84.7111 32.326 84.7111 31.948C84.7111 31.6257 84.7896 31.3367 84.9468 31.081C85.104 30.8364 85.3286 30.6363 85.6318 30.5029C85.9237 30.3696 86.283 30.3029 86.676 30.3029C87.2936 30.3029 87.7989 30.4474 88.1582 30.7475C88.5287 31.0476 88.7308 31.4256 88.7982 31.8925H87.9224C87.8774 31.6479 87.7427 31.4256 87.5406 31.2366C87.3272 31.0476 87.0466 30.9476 86.6873 30.9476C86.3616 30.9476 86.0921 31.0365 85.9013 31.2033C85.6992 31.37 85.6093 31.6146 85.6093 31.9147C85.6093 32.1592 85.6767 32.3593 85.8002 32.5038C85.9349 32.6595 86.0921 32.7706 86.283 32.8596C86.4739 32.9485 86.7434 33.0374 87.069 33.1486C87.4732 33.282 87.7988 33.4042 88.0571 33.5265C88.3041 33.6488 88.5175 33.8267 88.6859 34.0601C88.8543 34.2935 88.9441 34.6159 88.9441 35.0161C88.9217 35.3051 88.8543 35.583 88.7084 35.8387Z" fill="#FF5196"/>
<path d="M96.1517 30.3693V31.0251H94.3664V36.6387H93.5355V31.0251H91.7501V30.3693H96.1517Z" fill="#FF5196"/>
<path d="M99.9711 30.3693V34.1265C99.9711 34.7379 100.106 35.1936 100.387 35.4938C100.667 35.7828 101.038 35.9384 101.532 35.9384C102.015 35.9384 102.385 35.7939 102.655 35.4938C102.924 35.1936 103.059 34.749 103.059 34.1376V30.3804H103.879V34.1376C103.879 34.9936 103.665 35.6383 103.239 36.0607C102.812 36.4942 102.239 36.7054 101.521 36.7054C100.813 36.7054 100.241 36.4942 99.814 36.0607C99.3873 35.6272 99.174 34.9936 99.174 34.1376V30.3804H99.9711V30.3693Z" fill="#FF5196"/>
<path d="M112.333 35.1603C112.075 35.6272 111.693 35.994 111.199 36.2497C110.694 36.5053 110.099 36.6387 109.403 36.6387H107.393V30.3693H109.403C110.099 30.3693 110.705 30.4915 111.199 30.7472C111.693 31.0029 112.075 31.3586 112.333 31.8366C112.591 32.3146 112.715 32.8593 112.715 33.504C112.715 34.1376 112.591 34.6934 112.333 35.1603ZM111.233 35.2826C111.671 34.8602 111.884 34.271 111.884 33.504C111.884 32.737 111.671 32.1478 111.233 31.7254C110.795 31.303 110.166 31.0918 109.335 31.0918H108.201V35.9162H109.335C110.155 35.9162 110.795 35.705 111.233 35.2826Z" fill="#FF5196"/>
<path d="M116.89 30.3693V36.6387H116.07V30.3693H116.89Z" fill="#FF5196"/>
<path d="M124.931 30.7029C125.403 30.9808 125.773 31.3588 126.043 31.8479C126.312 32.337 126.447 32.8928 126.447 33.5042C126.447 34.1156 126.312 34.6714 126.043 35.1605C125.773 35.6496 125.403 36.0275 124.931 36.3054C124.46 36.5833 123.932 36.7167 123.348 36.7167C122.764 36.7167 122.225 36.5833 121.754 36.3054C121.282 36.0275 120.9 35.6496 120.631 35.1605C120.361 34.6714 120.227 34.1156 120.227 33.5042C120.227 32.8928 120.361 32.337 120.631 31.8479C120.9 31.3588 121.271 30.9808 121.754 30.7029C122.237 30.425 122.764 30.2916 123.348 30.2916C123.932 30.2916 124.46 30.425 124.931 30.7029ZM122.169 31.3477C121.821 31.5477 121.552 31.8256 121.361 32.2036C121.17 32.5704 121.069 33.004 121.069 33.5042C121.069 33.9933 121.17 34.4268 121.361 34.8048C121.552 35.1827 121.821 35.4606 122.169 35.6607C122.517 35.8608 122.899 35.9608 123.337 35.9608C123.764 35.9608 124.157 35.8608 124.505 35.6607C124.853 35.4606 125.122 35.1716 125.313 34.8048C125.504 34.4379 125.605 34.0044 125.605 33.5153C125.605 33.0151 125.504 32.5815 125.313 32.2147C125.122 31.8479 124.853 31.5589 124.505 31.3588C124.157 31.1587 123.775 31.0586 123.337 31.0586C122.91 31.0475 122.517 31.1476 122.169 31.3477Z" fill="#FF5196"/>
</svg>
