<svg width="160" height="63" viewBox="0 0 160 63" fill="none" xmlns="http://www.w3.org/2000/svg">
<path d="M52.5699 14.5001L23.6427 28.5001V35.5001H135.643V0.500122L87.4308 22.5001L52.5699 14.5001Z" fill="url(#paint0_linear_1_806)"/>
<path d="M22.6427 28.5001L52.0864 14.2545L87.5699 22.1142L136.643 0.500122" stroke="#4C56CC" stroke-linecap="round"/>
<path d="M43.0372 51.7296C43.0372 53.63 43.5704 55.0314 44.6368 55.9337C45.7101 56.8361 47.0499 57.2872 48.6564 57.2872C50.256 57.2872 51.589 56.8361 52.6554 55.9337C53.7218 55.0314 54.255 53.63 54.255 51.7296V42.0704H51.5377V51.8834C51.5377 53.0524 51.2745 53.8898 50.7482 54.3956C50.2218 54.8947 49.528 55.1442 48.6666 55.1442C47.7985 55.1442 47.1012 54.8947 46.5748 54.3956C46.0553 53.8898 45.7955 53.0524 45.7955 51.8834V42.0704H43.0372V51.7296ZM56.9723 61.2965H59.6486V55.8722C59.9357 56.2823 60.3424 56.6071 60.8688 56.8463C61.402 57.0856 62.0172 57.2052 62.7145 57.2052C64.0475 57.2052 65.1207 56.7164 65.9342 55.7389C66.7477 54.7545 67.1544 53.4625 67.1544 51.8629V51.5348C67.1544 49.9283 66.7443 48.6398 65.924 47.6691C65.1036 46.6915 64.0167 46.2028 62.6632 46.2028C61.9659 46.2028 61.3405 46.3463 60.7867 46.6334C60.233 46.9137 59.8331 47.2657 59.587 47.6896H59.5358L59.4742 46.4181H56.9723V61.2965ZM59.6486 53.5958V49.7916C59.8263 49.3815 60.1134 49.0226 60.5099 48.715C60.9132 48.4005 61.4054 48.2433 61.9865 48.2433C62.8204 48.2433 63.4357 48.5338 63.8322 49.1149C64.2286 49.6891 64.4269 50.4615 64.4269 51.4323V51.9655C64.4269 52.9362 64.2286 53.7155 63.8322 54.3033C63.4357 54.8844 62.8239 55.1749 61.9967 55.1749C61.4293 55.1749 60.9371 55.0177 60.5201 54.7032C60.11 54.382 59.8195 54.0128 59.6486 53.5958ZM73.6964 52.8473C73.6964 54.276 74.2159 55.3732 75.255 56.1388C76.3009 56.9044 77.6613 57.2872 79.3361 57.2872C81.0177 57.2872 82.361 56.8976 83.3658 56.1183C84.3776 55.3322 84.8834 54.2623 84.8834 52.9088C84.8834 51.6168 84.4904 50.6188 83.7042 49.9147C82.9181 49.2037 81.756 48.6295 80.2179 48.192C78.7687 47.7887 77.8219 47.4332 77.3776 47.1256C76.9332 46.818 76.7111 46.3839 76.7111 45.8234C76.7111 45.2355 76.9161 44.7706 77.3263 44.4288C77.7365 44.087 78.3756 43.9161 79.2438 43.9161C80.1119 43.9161 80.7648 44.1246 81.2023 44.5416C81.6466 44.9518 81.8688 45.5021 81.8688 46.1925V46.4181H84.5861V46.1412C84.5861 44.8287 84.0973 43.776 83.1198 42.983C82.149 42.1832 80.8536 41.7833 79.2335 41.7833C77.6066 41.7833 76.318 42.173 75.3678 42.9523C74.4176 43.7247 73.9425 44.7433 73.9425 46.0079C73.9493 47.2111 74.3287 48.151 75.0807 48.8278C75.8395 49.5045 77.0016 50.0651 78.567 50.5094C80.0094 50.9127 80.963 51.2887 81.4279 51.6373C81.8927 51.986 82.1251 52.4679 82.1251 53.0831C82.1251 53.712 81.8824 54.2179 81.3971 54.6007C80.9186 54.9835 80.2281 55.1749 79.3258 55.1749C78.4235 55.1749 77.7194 54.9767 77.2135 54.5802C76.7076 54.1837 76.4547 53.589 76.4547 52.796V52.5397H73.6964V52.8473ZM86.8932 57.0001H89.5695V49.8531C89.7677 49.3746 90.0514 48.9952 90.4205 48.715C90.7897 48.4347 91.2272 48.2946 91.733 48.2946C92.3141 48.2946 92.7687 48.4518 93.0968 48.7662C93.4249 49.0807 93.589 49.6071 93.589 50.3453V57.0001H96.255V50.1813C96.255 48.7662 95.9337 47.7511 95.2911 47.1359C94.6554 46.5138 93.8351 46.2028 92.8302 46.2028C92.0782 46.2028 91.4288 46.3497 90.882 46.6437C90.3351 46.9376 89.8976 47.3204 89.5695 47.7921V41.4039H86.8932V57.0001ZM98.2648 51.8629C98.2648 53.5035 98.7535 54.8195 99.7311 55.8107C100.715 56.8019 102.007 57.2975 103.607 57.2975C105.207 57.2975 106.495 56.8019 107.473 55.8107C108.45 54.8195 108.939 53.5035 108.939 51.8629V51.5348C108.939 49.901 108.45 48.5885 107.473 47.5973C106.495 46.6061 105.207 46.1105 103.607 46.1105C102.007 46.1105 100.715 46.6061 99.7311 47.5973C98.7535 48.5885 98.2648 49.901 98.2648 51.5348V51.8629ZM100.992 51.4323C100.992 50.4274 101.218 49.631 101.669 49.0431C102.12 48.4552 102.766 48.1613 103.607 48.1613C104.441 48.1613 105.084 48.4552 105.535 49.0431C105.986 49.631 106.212 50.4274 106.212 51.4323V51.9757C106.212 52.9806 105.989 53.777 105.545 54.3649C105.101 54.9528 104.455 55.2467 103.607 55.2467C102.759 55.2467 102.11 54.9528 101.659 54.3649C101.214 53.777 100.992 52.9806 100.992 51.9757V51.4323ZM109.698 48.3868H116.168V46.4181H109.698V48.3868ZM111.39 53.9957C111.39 55.1373 111.667 55.9713 112.22 56.4977C112.774 57.024 113.519 57.2872 114.456 57.2872C114.818 57.2872 115.146 57.2565 115.44 57.1949C115.741 57.1334 115.973 57.0651 116.137 56.9899V55.0211C115.98 55.0826 115.816 55.1339 115.645 55.1749C115.481 55.2091 115.317 55.2262 115.153 55.2262C114.791 55.2262 114.514 55.1305 114.322 54.9391C114.138 54.7477 114.046 54.3888 114.046 53.8624V43.7111H111.41V47.1051L111.39 47.382V53.9957Z" fill="#263238"/>
<defs>
<linearGradient id="paint0_linear_1_806" x1="79.6427" y1="0.500122" x2="79.4742" y2="35.0011" gradientUnits="userSpaceOnUse">
<stop stop-color="#7782FF"/>
<stop offset="1" stop-color="#7782FF" stop-opacity="0"/>
</linearGradient>
</defs>
</svg>
